<svg width="20" height="24" viewBox="0 0 20 24" fill="none" xmlns="http://www.w3.org/2000/svg">
<path d="M19.8613 17.683V6.33625C19.8613 6.00869 19.578 5.85231 19.5778 5.85215C19.5778 5.85215 10.2819 0.592921 10.2819 0.592921L10.2818 0.592866C10.1189 0.500831 9.92044 0.500553 9.75619 0.590035C9.74664 0.595253 9.73709 0.600526 9.72765 0.605855H9.7276L0.422649 5.85209C0.422371 5.85226 0.13916 6.01102 0.13916 6.33619V17.683C0.13916 17.9845 0.417376 18.1641 0.41893 18.165C0.419818 18.1655 9.7276 23.4134 9.7276 23.4134C9.7276 23.4134 9.72765 23.4134 9.72771 23.4134C9.89935 23.498 10.1011 23.498 10.2728 23.4134L10.2729 23.4134L19.5789 18.1665C19.5797 18.1661 19.8613 18.0248 19.8613 17.683ZM10.0002 18.3771L4.65444 15.363V8.65623L10.0002 5.64221L15.5558 8.77452C15.5565 8.77491 15.5579 8.77574 15.56 8.77707C15.7277 8.87888 15.9378 8.87816 16.1062 8.77768C16.1063 8.77763 16.1063 8.77757 16.1063 8.77757L18.751 7.28647V16.7328L16.3888 15.401V13.2322C16.3888 12.9365 16.1657 12.6784 15.8707 12.6593C15.5474 12.6383 15.2786 12.8944 15.2786 13.2131V15.4009L10.0002 18.3771ZM3.54425 8.58046V15.4389L1.2493 16.7329V7.28647L3.54425 8.58046ZM15.8337 7.65677L10.5553 4.68072V2.03967L18.1759 6.33625L15.8337 7.65677ZM9.44505 2.03967V4.68072L4.16657 7.65683L1.82444 6.3363L9.44505 2.03967ZM4.16657 16.3625L9.44505 19.3386V21.9796L1.82444 17.6831L4.16657 16.3625ZM10.5553 21.9796V19.3386L15.8337 16.3625L18.1759 17.683L10.5553 21.9796Z" fill="white"/>
</svg>
