<svg width="48" height="48" viewBox="0 0 48 48" fill="none" xmlns="http://www.w3.org/2000/svg">
<path d="M36.6316 24.0984C36.6435 18.1044 32.4486 12.9243 26.5831 11.6892C20.7179 10.4545 14.7903 13.5033 12.384 18.993C9.97783 24.4831 11.7526 30.908 16.636 34.3843C21.5189 37.8603 28.1709 37.4343 32.5708 33.3639C35.1582 30.9774 36.6304 27.6183 36.6316 24.0984ZM12.9885 23.3089C13.1735 20.7535 14.2432 18.3427 16.013 16.4904C16.5843 16.9607 17.1965 17.379 17.8422 17.7409C17.2786 19.5454 16.9671 21.4192 16.917 23.3089H12.9885ZM35.0148 24.8879C34.8298 27.4432 33.7601 29.8541 31.9903 31.7067C31.4202 31.2364 30.8095 30.8182 30.165 30.4562C30.7267 28.6514 31.0354 26.7775 31.0832 24.8879H35.0148ZM28.7179 29.7504C27.4643 29.2485 26.1378 28.952 24.7894 28.8722V24.8879H29.5058C29.4522 26.5358 29.1863 28.1703 28.7148 29.7504H28.7179ZM24.7894 30.4512C25.9532 30.5329 27.0962 30.7993 28.1755 31.2407C27.319 33.2302 26.1232 34.6199 24.7894 35.0223V30.4512ZM24.7894 23.3089V19.3245C26.1367 19.2443 27.462 18.9479 28.7148 18.4468C29.1859 20.0269 29.4511 21.6609 29.5043 23.3089H24.7894ZM23.2104 17.7456C22.047 17.6638 20.9041 17.3975 19.8247 16.9561C20.6813 14.9666 21.877 13.5773 23.2104 13.1745V17.7456ZM24.7894 17.7456V13.1775C26.124 13.5804 27.3159 14.9697 28.1755 16.9592C27.0958 17.3994 25.9528 17.665 24.7894 17.7456ZM28.2222 13.8907C29.1535 14.2762 30.0266 14.7889 30.8173 15.4141C30.4302 15.7194 30.0224 15.9981 29.5976 16.2479C29.2356 15.4095 28.7738 14.6181 28.2222 13.8907ZM18.4026 16.2479C17.9775 15.9978 17.5696 15.7194 17.1822 15.4141C17.9732 14.7889 18.8471 14.2758 19.7788 13.8899C19.2268 14.6177 18.765 15.4095 18.4026 16.2479ZM19.2854 18.4468C20.5382 18.9479 21.8636 19.2443 23.2104 19.3245V23.3089H18.4944C18.548 21.6609 18.814 20.0269 19.2854 18.4468ZM23.2104 24.8879V28.8722C21.8636 28.9524 20.5382 29.2489 19.2854 29.7504C18.8143 28.1703 18.5491 26.5358 18.4959 24.8879H23.2104ZM23.2104 30.4512V35.0192C21.8763 34.6168 20.6843 33.2271 19.8247 31.2376C20.9045 30.7974 22.0474 30.5318 23.2104 30.4512ZM19.7781 34.3065C18.8467 33.9206 17.9736 33.4079 17.183 32.7826C17.57 32.4773 17.9775 32.199 18.4026 31.9492C18.7646 32.7872 19.2264 33.5787 19.7781 34.3065ZM29.5976 31.9492C30.0228 32.199 30.4306 32.4777 30.818 32.7826C30.027 33.4083 29.1531 33.9214 28.2214 34.3072C28.7734 33.5794 29.2352 32.7876 29.5976 31.9492ZM35.0117 23.3089H31.0832C31.0343 21.4192 30.7244 19.5454 30.1619 17.7409C30.8061 17.379 31.4171 16.9603 31.9872 16.4904C33.7574 18.3423 34.8271 20.7535 35.0117 23.3089ZM12.9854 24.8879H16.9139C16.9648 26.7779 17.2774 28.6517 17.8422 30.4562C17.198 30.8182 16.587 31.2364 16.0169 31.7067C14.2452 29.8552 13.1743 27.444 12.9885 24.8879H12.9854Z" fill="white"/>
<path d="M47.6842 24.0984C47.6807 22.5703 46.5836 21.2639 45.079 20.9967C44.5725 17.5139 43.2029 14.2129 41.0946 11.395C41.9816 10.1433 41.8352 8.43371 40.7481 7.35126C39.6479 6.30505 37.9691 6.16204 36.7082 7.00779C33.8891 4.89764 30.5867 3.52646 27.1019 3.01955C26.8378 1.51307 25.5295 0.414429 23.9998 0.414429C22.4706 0.414429 21.1623 1.51307 20.8982 3.01955C17.4126 3.52608 14.1094 4.89725 11.2896 7.00779C10.0286 6.16204 8.34985 6.30505 7.24967 7.35126C6.16221 8.43371 6.01573 10.1433 6.90312 11.395C4.79566 14.2133 3.4268 17.5139 2.92104 20.9967C1.41456 21.2608 0.315918 22.5691 0.315918 24.0984C0.315918 25.6276 1.41456 26.9359 2.92104 27.2004C3.42757 30.6829 4.7972 33.9838 6.90543 36.8021C6.01804 38.0541 6.1626 39.7641 7.24813 40.8497C8.33366 41.9348 10.0433 42.0798 11.2957 41.192C14.114 43.3006 17.415 44.6706 20.8982 45.1775C21.1623 46.6836 22.4706 47.7827 23.9998 47.7827C25.5295 47.7827 26.8378 46.6836 27.1019 45.1775C30.5847 44.671 33.8853 43.301 36.7036 41.1931C37.956 42.0805 39.6656 41.9356 40.7512 40.8504C41.8363 39.7649 41.9813 38.0553 41.0939 36.8028C43.2025 33.9845 44.5725 30.6832 45.079 27.2004C46.5836 26.9328 47.6807 25.6264 47.6842 24.0984ZM46.1052 24.0984C46.1052 24.9703 45.3986 25.6773 44.5262 25.6773C43.6543 25.6773 42.9473 24.9703 42.9473 24.0984C42.9473 23.2264 43.6543 22.5194 44.5262 22.5194C45.3986 22.5194 46.1052 23.2264 46.1052 24.0984ZM38.5146 8.00505C39.1533 8.00466 39.7292 8.38938 39.9736 8.97917C40.218 9.56935 40.0831 10.2486 39.6317 10.7004C39.0072 11.2967 38.0235 11.2967 37.399 10.7004C36.9476 10.2486 36.8127 9.56974 37.0571 8.97956C37.3011 8.38976 37.877 8.00505 38.5154 8.00505H38.5146ZM23.9998 1.993C24.8722 1.993 25.5788 2.69998 25.5788 3.57195C25.5788 4.44392 24.8722 5.1509 23.9998 5.1509C23.1279 5.1509 22.4209 4.44392 22.4209 3.57195C22.4209 2.69998 23.1279 1.993 23.9998 1.993ZM8.36835 8.46686C8.76463 8.05632 9.35173 7.89172 9.90375 8.03627C10.4561 8.18083 10.8871 8.6118 11.0317 9.16382C11.1762 9.71584 11.0116 10.3029 10.6011 10.6996C9.9766 11.2959 8.99284 11.2959 8.36835 10.6996C7.75196 10.0828 7.75196 9.08326 8.36835 8.46686ZM1.89449 24.0984C1.89449 23.2264 2.60147 22.5194 3.47344 22.5194C4.3458 22.5194 5.05239 23.2264 5.05239 24.0984C5.05239 24.9703 4.3458 25.6773 3.47344 25.6773C2.60147 25.6773 1.89449 24.9703 1.89449 24.0984ZM8.36835 39.7302C7.75157 39.1134 7.75157 38.1135 8.36797 37.4971C8.98475 36.8803 9.9847 36.8803 10.6011 37.4971C11.2179 38.1135 11.2179 39.1134 10.6011 39.7302C9.9766 40.327 8.99284 40.327 8.36835 39.7302ZM23.9998 46.2037C23.1279 46.2037 22.4209 45.4967 22.4209 44.6248C22.4209 43.7528 23.1279 43.0458 23.9998 43.0458C24.8722 43.0458 25.5788 43.7528 25.5788 44.6248C25.5788 45.4967 24.8722 46.2037 23.9998 46.2037ZM23.9998 41.4668C22.6557 41.4707 21.4618 42.3265 21.027 43.5986C17.8714 43.1237 14.8804 41.8828 12.3157 39.9843C12.914 38.7792 12.6719 37.3267 11.7159 36.3803C10.7518 35.4644 9.3259 35.2312 8.12048 35.7921C6.21849 33.2251 4.9753 30.2311 4.49999 27.0716C5.77518 26.641 6.63405 25.4445 6.63405 24.0984C6.63405 22.7522 5.77518 21.5561 4.49999 21.1251C4.97453 17.9699 6.21579 14.9789 8.11432 12.4142C9.31973 13.0075 10.7692 12.7677 11.7194 11.8179C12.6696 10.8677 12.9094 9.41824 12.3157 8.21244C14.8804 6.31392 17.8714 5.07304 21.027 4.5985C21.4576 5.87369 22.6537 6.73217 23.9998 6.73217C25.3463 6.73217 26.5425 5.87369 26.9731 4.5985C30.1287 5.07304 33.1197 6.31392 35.6843 8.21244C35.0907 9.41824 35.3305 10.8677 36.2807 11.8179C37.2309 12.7677 38.6803 13.0075 39.8858 12.4142C41.7843 14.9789 43.0255 17.9699 43.5001 21.1251C42.2249 21.5561 41.366 22.7522 41.366 24.0984C41.366 25.4445 42.2249 26.641 43.5001 27.0716C43.0236 30.2314 41.7785 33.2259 39.875 35.7921C38.6692 35.2312 37.2432 35.4644 36.2795 36.3803C35.3231 37.3267 35.0814 38.7792 35.6797 39.9843C33.1162 41.882 30.1272 43.1229 26.9731 43.5986C26.5383 42.3265 25.3444 41.4707 23.9998 41.4668ZM39.6317 39.7302C39.0072 40.327 38.0235 40.327 37.399 39.7302C36.7822 39.1134 36.7822 38.1135 37.399 37.4971C38.0154 36.8803 39.0153 36.8803 39.6317 37.4971C40.2485 38.1135 40.2485 39.1134 39.6317 39.7302Z" fill="white"/>
</svg>
