<svg width="30" height="30" viewBox="0 0 30 30" fill="none" xmlns="http://www.w3.org/2000/svg">
<path d="M14.9997 5.23041C9.61248 5.23041 5.22998 9.61291 5.22998 15.0001C5.22998 20.3874 9.61248 24.7699 14.9997 24.7699C20.3869 24.7699 24.7695 20.3874 24.7695 15.0001C24.7695 9.61291 20.3869 5.23041 14.9997 5.23041ZM14.9997 23.8817C10.1026 23.8817 6.11814 19.8972 6.11814 15.0001C6.11814 10.1031 10.1026 6.11857 14.9997 6.11857C19.8968 6.11857 23.8813 10.1031 23.8813 15.0001C23.8813 19.8972 19.8968 23.8817 14.9997 23.8817Z" fill="white"/>
<path d="M14.9997 4.78633C15.1175 4.78633 15.2305 4.73955 15.3138 4.65627C15.397 4.57299 15.4438 4.46003 15.4438 4.34226V1.67778C15.4438 1.56001 15.397 1.44705 15.3138 1.36377C15.2305 1.28049 15.1175 1.2337 14.9997 1.2337C14.882 1.2337 14.769 1.28049 14.6857 1.36377C14.6025 1.44705 14.5557 1.56001 14.5557 1.67778V4.34226C14.5557 4.46003 14.6025 4.57299 14.6857 4.65627C14.769 4.73955 14.882 4.78633 14.9997 4.78633Z" fill="white"/>
<path d="M14.9997 25.214C14.882 25.214 14.769 25.2608 14.6857 25.3441C14.6025 25.4273 14.5557 25.5403 14.5557 25.6581V26.5462C14.5557 26.664 14.6025 26.777 14.6857 26.8602C14.769 26.9435 14.882 26.9903 14.9997 26.9903C15.1175 26.9903 15.2305 26.9435 15.3138 26.8602C15.397 26.777 15.4438 26.664 15.4438 26.5462V25.6581C15.4438 25.5403 15.397 25.4273 15.3138 25.3441C15.2305 25.2608 15.1175 25.214 14.9997 25.214Z" fill="white"/>
<path d="M28.3224 14.5561H25.6579C25.5402 14.5561 25.4272 14.6029 25.3439 14.6862C25.2607 14.7694 25.2139 14.8824 25.2139 15.0002C25.2139 15.1179 25.2607 15.2309 25.3439 15.3142C25.4272 15.3975 25.5402 15.4442 25.6579 15.4442H28.3224C28.4402 15.4442 28.5532 15.3975 28.6364 15.3142C28.7197 15.2309 28.7665 15.1179 28.7665 15.0002C28.7665 14.8824 28.7197 14.7694 28.6364 14.6862C28.5532 14.6029 28.4402 14.5561 28.3224 14.5561Z" fill="white"/>
<path d="M4.39746 14.5561H1.67748C1.5597 14.5561 1.44675 14.6029 1.36347 14.6862C1.28019 14.7694 1.2334 14.8824 1.2334 15.0002C1.2334 15.1179 1.28019 15.2309 1.36347 15.3142C1.44675 15.3975 1.5597 15.4442 1.67748 15.4442H4.39746C4.51524 15.4442 4.62819 15.3975 4.71147 15.3142C4.79475 15.2309 4.84154 15.1179 4.84154 15.0002C4.84154 14.8824 4.79475 14.7694 4.71147 14.6862C4.62819 14.6029 4.51524 14.5561 4.39746 14.5561Z" fill="white"/>
<path d="M14.9997 27.4344C14.882 27.4344 14.769 27.4812 14.6857 27.5645C14.6025 27.6477 14.5557 27.7607 14.5557 27.8785V28.3225C14.5557 28.4403 14.6025 28.5533 14.6857 28.6366C14.769 28.7198 14.882 28.7666 14.9997 28.7666C15.1175 28.7666 15.2305 28.7198 15.3138 28.6366C15.397 28.5533 15.4438 28.4403 15.4438 28.3225V27.8785C15.4438 27.7607 15.397 27.6477 15.3138 27.5645C15.2305 27.4812 15.1175 27.4344 14.9997 27.4344Z" fill="white"/>
<path d="M22.85 22.2224C22.8087 22.1811 22.7598 22.1484 22.7059 22.1261C22.652 22.1038 22.5943 22.0923 22.5359 22.0923C22.4776 22.0923 22.4199 22.1038 22.366 22.1261C22.3121 22.1484 22.2631 22.1811 22.2219 22.2224C22.1806 22.2636 22.1479 22.3126 22.1256 22.3665C22.1033 22.4203 22.0918 22.4781 22.0918 22.5364C22.0918 22.5947 22.1033 22.6525 22.1256 22.7064C22.1479 22.7603 22.1806 22.8092 22.2219 22.8505L24.106 24.7345C24.1472 24.7758 24.1962 24.8085 24.2501 24.8308C24.3039 24.8531 24.3617 24.8646 24.42 24.8646C24.4783 24.8646 24.5361 24.8531 24.59 24.8308C24.6438 24.8085 24.6928 24.7758 24.734 24.7345C24.7753 24.6933 24.808 24.6443 24.8303 24.5905C24.8526 24.5366 24.8641 24.4788 24.8641 24.4205C24.8641 24.3622 24.8526 24.3044 24.8303 24.2506C24.808 24.1967 24.7753 24.1477 24.734 24.1065L22.85 22.2224Z" fill="white"/>
<path d="M7.14965 7.77793C7.23295 7.86122 7.34591 7.90801 7.4637 7.90801C7.58149 7.90801 7.69446 7.86122 7.77775 7.77793C7.86104 7.69464 7.90783 7.58167 7.90783 7.46388C7.90783 7.34609 7.86104 7.23313 7.77775 7.14984L7.14971 6.52186C7.06643 6.43857 6.95347 6.39178 6.83569 6.39178C6.71791 6.39178 6.60496 6.43857 6.52167 6.52186C6.43839 6.60514 6.3916 6.71809 6.3916 6.83587C6.3916 6.95365 6.43839 7.06661 6.52167 7.14989L7.14965 7.77793Z" fill="white"/>
<path d="M7.14939 22.2224L5.26533 24.1065C5.18204 24.1898 5.13525 24.3027 5.13525 24.4205C5.13525 24.5383 5.18204 24.6512 5.26533 24.7345C5.34861 24.8178 5.46156 24.8646 5.57934 24.8646C5.69712 24.8646 5.81008 24.8178 5.89336 24.7345L7.77748 22.8505C7.81872 22.8092 7.85143 22.7603 7.87375 22.7064C7.89607 22.6525 7.90756 22.5947 7.90756 22.5364C7.90756 22.4781 7.89607 22.4203 7.87375 22.3665C7.85143 22.3126 7.81872 22.2636 7.77748 22.2224C7.73624 22.1811 7.68728 22.1484 7.63339 22.1261C7.57951 22.1038 7.52176 22.0923 7.46343 22.0923C7.40511 22.0923 7.34736 22.1038 7.29347 22.1261C7.23959 22.1484 7.19063 22.1811 7.14939 22.2224Z" fill="white"/>
<path d="M24.1062 5.26581L22.1828 7.18912C22.1416 7.23036 22.1089 7.27932 22.0865 7.33321C22.0642 7.38709 22.0527 7.44484 22.0527 7.50317C22.0527 7.56149 22.0642 7.61924 22.0865 7.67313C22.1089 7.72701 22.1416 7.77597 22.1828 7.81721C22.2241 7.85845 22.273 7.89117 22.3269 7.91349C22.3808 7.93581 22.4385 7.9473 22.4969 7.9473C22.5552 7.9473 22.6129 7.93581 22.6668 7.91349C22.7207 7.89117 22.7697 7.85845 22.8109 7.81721L24.7342 5.89385C24.7755 5.85261 24.8082 5.80366 24.8305 5.74978C24.8528 5.6959 24.8643 5.63815 24.8643 5.57983C24.8643 5.52151 24.8528 5.46377 24.8305 5.40989C24.8082 5.35601 24.7755 5.30705 24.7342 5.26581C24.693 5.22458 24.644 5.19186 24.5901 5.16955C24.5363 5.14723 24.4785 5.13574 24.4202 5.13574C24.3619 5.13574 24.3041 5.14723 24.2502 5.16955C24.1964 5.19186 24.1474 5.22458 24.1062 5.26581Z" fill="white"/>
<path d="M5.57934 6.20787C5.66263 6.29115 5.77558 6.33794 5.89336 6.33794C6.01114 6.33794 6.1241 6.29115 6.20738 6.20787C6.29067 6.12459 6.33745 6.01163 6.33745 5.89385C6.33745 5.77607 6.29067 5.66312 6.20738 5.57983L5.89336 5.26581C5.81008 5.18253 5.69712 5.13574 5.57934 5.13574C5.46156 5.13574 5.34861 5.18253 5.26533 5.26581C5.18204 5.3491 5.13525 5.46205 5.13525 5.57983C5.13525 5.69761 5.18204 5.81057 5.26533 5.89385L5.57934 6.20787Z" fill="white"/>
<path d="M18.0616 14.8014C18.0246 14.7276 17.9679 14.6656 17.8977 14.6223C17.8275 14.579 17.7466 14.556 17.6641 14.556H16.4207L16.7749 9.70335C16.7818 9.60763 16.7576 9.51222 16.7058 9.43142C16.654 9.35062 16.5775 9.28878 16.4876 9.25515C16.3977 9.22152 16.2993 9.21791 16.2072 9.24487C16.1151 9.27184 16.0342 9.32791 15.9766 9.40471L11.9799 14.7337C11.9304 14.7996 11.9003 14.8781 11.8929 14.9602C11.8855 15.0424 11.9011 15.1249 11.938 15.1987C11.9749 15.2725 12.0316 15.3345 12.1017 15.3779C12.1719 15.4212 12.2527 15.4442 12.3352 15.4442H13.6291L13.225 20.2924C13.2171 20.3884 13.2406 20.4843 13.292 20.5658C13.3434 20.6472 13.4199 20.7097 13.5099 20.7439C13.5999 20.7781 13.6986 20.7822 13.7911 20.7554C13.8836 20.7286 13.9649 20.6725 14.0227 20.5955L18.0194 15.2665C18.0689 15.2006 18.099 15.1221 18.1065 15.0399C18.1139 14.9578 18.0984 14.8752 18.0616 14.8014ZM14.2381 18.8281L14.5539 15.0367C14.5591 14.9755 14.5515 14.9139 14.5316 14.8558C14.5117 14.7977 14.48 14.7443 14.4384 14.6991C14.3968 14.6539 14.3462 14.6179 14.29 14.5932C14.2337 14.5686 14.1729 14.5559 14.1115 14.556H13.2233L15.779 11.1488L15.5004 14.9679C15.4959 15.0288 15.5041 15.0899 15.5244 15.1475C15.5446 15.2051 15.5765 15.2578 15.6181 15.3025C15.6597 15.3472 15.71 15.3829 15.766 15.4072C15.8219 15.4316 15.8823 15.4442 15.9433 15.4442H16.776L14.2381 18.8281Z" fill="white"/>
</svg>
