<svg width="30" height="26" viewBox="0 0 30 26" fill="none" xmlns="http://www.w3.org/2000/svg">
<path d="M15.274 5.29136C15.1158 5.14926 14.8758 5.14926 14.7176 5.29136L4.00475 14.9198C3.30022 15.4411 2.62577 15.4048 1.98136 14.8109C1.45873 14.1064 1.49504 13.4321 2.09027 12.7877L14.0387 2.05875C14.5844 1.56865 15.4074 1.56859 15.9531 2.05875L20.5626 6.19801C20.7337 6.35177 20.9969 6.33761 21.1507 6.16659C21.3043 5.99556 21.2903 5.73222 21.1192 5.57852L16.5095 1.43909C15.6466 0.663949 14.3451 0.663949 13.4822 1.43903L1.53395 12.168C0.613986 12.9935 0.535273 14.4479 1.3617 15.3674C2.18664 16.2865 3.64222 16.3643 4.56113 15.5395L5.69325 14.5229V24.726C5.69325 24.956 5.87965 25.1425 6.10968 25.1425H10.3295C10.5596 25.1425 10.746 24.956 10.746 24.726C10.746 24.4961 10.5596 24.3096 10.3295 24.3096H6.52612V13.7751L14.9958 6.16975L23.4655 13.7751V24.3097H16.06V21.2845C17.4481 21.5604 18.9884 20.8022 19.814 19.9573C20.6446 19.1073 21.1507 17.9517 21.2392 16.7034C21.2639 16.3551 21.1325 16.1362 21.018 16.0139C20.7385 15.7156 20.287 15.684 19.9677 15.6848C18.367 15.6853 16.6235 16.5494 15.7628 17.926C14.9073 15.8081 12.4494 14.4792 10.238 14.4786C9.5413 14.4742 8.68917 14.7404 8.7529 15.6403C8.86175 17.1762 9.48402 18.5975 10.505 19.6424C11.5326 20.694 13.2191 21.5882 15.2271 21.225V24.3097H12.144C11.914 24.3097 11.7276 24.4961 11.7276 24.7261C11.7276 24.9561 11.914 25.1425 12.144 25.1425H23.8819C24.112 25.1425 24.2984 24.9561 24.2984 24.7261V14.523L25.4303 15.5394C26.337 16.3544 27.8176 16.2866 28.6297 15.3676C29.5247 14.3548 29.3211 12.7968 28.4577 12.168L22.9341 7.20801C22.7629 7.0543 22.4996 7.06857 22.346 7.23965C22.1924 7.41073 22.2065 7.67407 22.3776 7.82772L27.9014 12.7878C28.4966 13.4322 28.5328 14.1066 28.01 14.8111C27.4748 15.4075 26.567 15.4412 25.9869 14.9198L15.274 5.29136ZM16.6752 18.0749C17.4266 17.1289 18.7195 16.5177 19.9691 16.5177C20.0613 16.5172 20.4175 16.5192 20.4085 16.6445C20.2517 18.856 18.6359 20.4814 16.5665 20.5092C16.2004 20.5144 16.1642 20.436 16.123 20.2588C15.9437 19.487 16.1862 18.6904 16.6752 18.0749ZM15.1458 20.1156C15.077 20.4116 14.9665 20.5155 14.4886 20.5092C11.8464 20.4736 9.78355 18.4012 9.58371 15.5814C9.56251 15.2834 10.0538 15.3148 10.2368 15.3115C11.8293 15.3115 13.4775 16.091 14.4358 17.2975C15.0675 18.0927 15.3772 19.1191 15.1458 20.1156Z" fill="white"/>
</svg>
