<svg width="28" height="28" viewBox="0 0 28 28" fill="none" xmlns="http://www.w3.org/2000/svg">
    <path d="M14 0C6.28017 0 0 6.28017 0 14C0 21.7198 6.28017 28 14 28C21.7198 28 28 21.7198 28 14C28 6.28017 21.7198 0 14 0ZM18.6667 19.8333H9.33333C8.68933 19.8333 8.16667 19.3107 8.16667 18.6667C8.16667 18.0227 8.68933 17.5 9.33333 17.5H18.6667C19.3107 17.5 19.8333 18.0227 19.8333 18.6667C19.8333 19.3107 19.3107 19.8333 18.6667 19.8333ZM18.6667 15.1667H9.33333C8.68933 15.1667 8.16667 14.644 8.16667 14C8.16667 13.356 8.68933 12.8333 9.33333 12.8333H18.6667C19.3107 12.8333 19.8333 13.356 19.8333 14C19.8333 14.644 19.3107 15.1667 18.6667 15.1667ZM18.6667 10.5H9.33333C8.68933 10.5 8.16667 9.97733 8.16667 9.33333C8.16667 8.68933 8.68933 8.16667 9.33333 8.16667H18.6667C19.3107 8.16667 19.8333 8.68933 19.8333 9.33333C19.8333 9.97733 19.3107 10.5 18.6667 10.5Z" fill="url(#paint0_linear)"/>
    <defs>
        <linearGradient id="paint0_linear" x1="0" y1="25.76" x2="28" y2="25.76" gradientUnits="userSpaceOnUse">
            <stop stop-color="#00887A"/>
            <stop offset="1" stop-color="#004A42"/>
        </linearGradient>
    </defs>
</svg>
