<svg width="163" height="20" viewBox="0 0 163 20" fill="none" xmlns="http://www.w3.org/2000/svg">
<path fill-rule="evenodd" clip-rule="evenodd" d="M1.08022 18.8066C0.591926 18.8066 0.591926 18.719 0.591926 18.6751C0.503145 18.3244 0.547535 17.8422 0.547535 17.4038C0.547535 17.1846 0.591926 16.9216 0.591926 16.7024V1.88507C0.591926 1.79739 0.591926 1.70971 0.591926 1.62204C0.591926 1.40285 0.547536 1.05214 0.680706 1.0083C0.680706 1.0083 0.725096 1.0083 0.858266 1.0083C0.858266 1.0083 1.12461 1.0083 1.169 1.0083H13.1543C13.5095 1.0083 13.6426 1.05214 13.6426 1.05214C13.6426 1.05214 13.687 1.09598 13.687 1.18365C13.7314 1.75355 13.7314 2.36729 13.687 2.98102V3.24405C13.687 3.50708 13.6426 3.50708 13.6426 3.50708C13.6426 3.50708 13.5538 3.55092 13.3763 3.55092C13.3763 3.55092 13.1099 3.55092 13.0656 3.55092H3.8768V8.41697H11.2012C11.3787 8.41697 11.4231 8.41697 11.4675 8.46081C11.5119 8.54848 11.5119 8.89919 11.5119 9.0307C11.5119 9.11838 11.5119 9.2499 11.5119 9.33757C11.5119 9.51293 11.5119 9.68828 11.5563 9.86363C11.6007 10.2143 11.6007 10.6966 11.5119 10.9157C11.5119 10.9596 11.29 10.9596 11.29 10.9596C11.1124 10.9596 10.9348 10.9596 10.7129 10.9596C10.5353 10.9596 10.3134 10.9596 10.1358 10.9596C9.95825 10.9596 9.73629 10.9596 9.55873 10.9596H3.8768V16.2202H13.4207C13.9534 16.2202 13.9534 16.264 13.9534 16.3955C13.9977 17.0969 13.9977 17.8422 13.9534 18.5436C13.9534 18.719 13.909 18.719 13.8646 18.7628C13.8202 18.8066 13.7314 18.8066 13.6426 18.8066H13.4207H1.47973H1.08022Z" fill="black"/>
<path d="M13.1543 1.53443C13.1543 1.97282 13.1543 2.45504 13.1543 2.93726V3.02493C13.1099 3.02493 13.1099 3.02493 13.0655 3.02493H10.9792H5.47478H4.45381H3.34406V4.12089V7.84714V8.9431H4.45381H8.80404H10.9348V8.98694C10.9348 9.11845 10.9348 9.20613 10.9348 9.29381C10.9348 9.46916 10.9348 9.68835 10.9792 9.8637C10.9792 9.99522 11.0235 10.2144 11.0235 10.3898C10.9348 10.3898 10.846 10.3898 10.7128 10.3898C10.5353 10.3898 10.3133 10.3898 10.1357 10.3898C9.9138 10.3898 9.73624 10.3898 9.51429 10.3898H4.45381H3.34406V11.4857V15.6504V16.7463H4.45381H13.1987H13.3318H13.465C13.5094 17.2285 13.465 17.7546 13.465 18.2368H13.4206H11.7338H6.22941H1.47967C1.43528 18.2368 1.3465 18.2368 1.25772 18.2368C1.21333 18.2368 1.12455 18.2368 1.08016 18.2368C1.08016 17.9738 1.08016 17.7108 1.08016 17.4039C1.08016 17.1847 1.12455 16.9217 1.12455 16.7025V11.7487V1.88514C1.12455 1.79746 1.12455 1.70979 1.12455 1.57827C1.12455 1.57827 1.12455 1.53443 1.12455 1.49059H2.81137H12.8879H12.9767L13.1543 1.53443ZM0.858209 0.438477C0.725038 0.438477 0.591868 0.438476 0.458698 0.482315C-0.0739838 0.701506 0.0591868 1.40292 0.0591868 1.88514C0.0591868 5.17301 0.0591868 8.46088 0.0591868 11.7049C0.0591868 13.3708 0.0591868 15.0366 0.0591868 16.6586C0.0591868 17.3162 -0.0739836 18.1053 0.0591868 18.7629C0.147967 19.2451 0.636258 19.3328 1.08016 19.3328C1.21333 19.3328 1.3465 19.3328 1.47967 19.3328C3.07772 19.3328 4.63137 19.3328 6.22941 19.3328C8.04941 19.3328 9.86941 19.3328 11.7338 19.3328C12.3109 19.3328 12.8435 19.3328 13.4206 19.3328C13.5094 19.3328 13.5538 19.3328 13.6426 19.3328C13.8201 19.3328 13.9977 19.3328 14.1309 19.2451C14.4416 19.1136 14.5304 18.8505 14.5304 18.5437C14.5748 17.8423 14.5748 17.0532 14.5304 16.3518C14.486 15.6942 13.9533 15.6504 13.4206 15.6504C13.3318 15.6504 13.2431 15.6504 13.1543 15.6504C10.2245 15.6504 7.33917 15.6504 4.40942 15.6504V11.4857C6.09624 11.4857 7.78307 11.4857 9.46989 11.4857C9.86941 11.4857 10.2689 11.4857 10.624 11.4857C10.8016 11.4857 11.0236 11.4857 11.2011 11.4857C11.5118 11.4857 11.7782 11.398 11.9114 11.0912C12.1333 10.609 11.9557 9.81986 11.9557 9.29381C11.9557 8.9431 12.0889 8.3732 11.7782 8.06633C11.6006 7.84714 11.3343 7.84714 11.1123 7.84714C11.0679 7.84714 11.0236 7.84714 10.9792 7.84714C10.2245 7.84714 9.46989 7.84714 8.71526 7.84714C7.25039 7.84714 5.8299 7.84714 4.36503 7.84714V4.07705C4.72015 4.07705 5.07527 4.07705 5.43039 4.07705C7.25039 4.07705 9.07038 4.07705 10.8904 4.07705C11.6006 4.07705 12.3109 4.07705 12.9767 4.07705C13.0655 4.07705 13.1987 4.07705 13.2874 4.07705C13.465 4.07705 13.6426 4.07705 13.8201 3.98938C14.1309 3.81402 14.1753 3.55099 14.1753 3.24413C14.2196 2.54271 14.2196 1.79746 14.1753 1.09605C14.1309 0.438477 13.5982 0.438477 13.1099 0.438477C13.0211 0.438477 12.9767 0.438477 12.8879 0.438477C9.51429 0.438477 6.14063 0.438477 2.81137 0.438477C2.2343 0.438477 1.65723 0.438477 1.12455 0.438477C1.08016 0.438477 0.946989 0.438477 0.858209 0.438477Z" fill="black"/>
<path fill-rule="evenodd" clip-rule="evenodd" d="M26.8265 19.0259C26.5158 19.0259 26.1606 19.0259 25.8499 19.0259C25.5392 19.0259 25.2285 19.0259 24.9177 19.0259H21.2333C20.5675 19.0259 19.9016 19.0259 19.2802 18.8506C17.8597 18.456 17.1051 17.2724 17.0607 15.4312C17.0607 14.949 17.0607 14.4229 17.0607 13.8968V13.853C17.0607 13.7215 17.0607 13.6338 17.1051 13.59C17.1051 13.59 17.1494 13.5461 17.327 13.5461C17.5046 13.5461 17.6821 13.5461 17.8597 13.5461C18.0373 13.5461 18.2592 13.5461 18.4368 13.5461C18.6143 13.5461 18.8363 13.5461 19.0138 13.5461C19.1026 13.5461 19.2358 13.5461 19.369 13.5461C19.5021 13.5461 19.6353 13.5461 19.7685 13.5461C20.0792 13.5461 20.2568 13.59 20.2568 13.6338C20.3455 13.8092 20.3455 14.0284 20.3011 14.3352C20.2568 14.7736 20.2568 15.4312 20.745 15.9572C21.2777 16.5271 22.0324 16.571 22.6094 16.571C22.787 16.571 23.0089 16.571 23.1865 16.571C23.3197 16.571 23.4972 16.571 23.6304 16.571H25.628C25.8943 16.571 26.2938 16.571 26.6489 16.4395C27.8919 16.0011 27.8919 14.8174 27.8475 14.0284V13.853C27.8919 12.6694 26.8265 12.2748 26.3382 12.0556C25.5836 11.7926 24.8733 11.5296 24.1187 11.2665C23.7636 11.135 23.4085 11.0035 23.0089 10.872C22.6538 10.7405 22.2543 10.609 21.8104 10.4775C20.4787 10.0391 19.147 9.60069 18.2148 8.8116C17.1938 7.93484 17.2382 6.53201 17.2826 5.17303C17.2826 4.95383 17.2826 4.73464 17.2826 4.51545C17.2826 2.63041 17.9485 1.44677 19.2358 1.00839C19.9016 0.789199 20.6563 0.745361 21.3221 0.745361C21.7216 0.745361 22.1211 0.745361 22.5207 0.745361H24.9177C25.1841 0.745361 25.406 0.745361 25.6724 0.745361C25.9387 0.745361 26.205 0.745361 26.4714 0.745361C27.5811 0.745361 28.7353 0.833038 29.5787 1.44677C30.8216 2.36738 30.7772 4.16475 30.7328 5.74292V6.00595C30.7328 6.22514 30.7328 6.26898 30.4665 6.26898C30.2889 6.26898 30.067 6.26898 29.8894 6.26898C29.7119 6.26898 29.4899 6.26898 29.3123 6.26898C29.0904 6.26898 28.9128 6.26898 28.6909 6.26898C28.5577 6.26898 28.4245 6.26898 28.2914 6.26898C28.1582 6.26898 28.0694 6.26898 27.9363 6.26898C27.8031 6.26898 27.7143 6.26898 27.6255 6.22514C27.5367 6.22514 27.4923 6.18131 27.4923 5.56757C27.4923 5.43606 27.4923 5.30454 27.4923 5.17303C27.448 4.03323 26.6489 3.28798 25.4948 3.24414C24.9621 3.24414 24.4738 3.24414 23.9411 3.24414C23.4528 3.24414 22.9646 3.24414 22.4319 3.24414C21.2333 3.28798 20.4343 4.07707 20.4343 5.34838C20.4343 6.35666 20.5231 7.23342 21.8104 7.67181L27.8919 9.86372C28.6021 10.1267 29.2236 10.3459 29.7119 10.6966C30.9104 11.5296 30.9992 12.757 30.9992 14.5106C30.9992 16.3079 30.9104 17.7984 29.5343 18.5437C28.8684 18.9382 27.8031 19.0259 26.8265 19.0259Z" fill="black"/>
<path d="M26.6489 1.1399C27.6699 1.1399 28.6909 1.22758 29.4011 1.75364C30.4221 2.54273 30.3777 4.07707 30.3333 5.61141C30.2446 5.61141 30.1114 5.61141 30.0226 5.61141C29.845 5.61141 29.6231 5.61141 29.4455 5.61141C29.2236 5.61141 29.046 5.61141 28.8241 5.61141C28.6909 5.61141 28.5577 5.61141 28.4246 5.61141C28.3358 5.61141 28.2914 5.61141 28.2026 5.61141C28.2026 5.56757 28.2026 5.52373 28.2026 5.52373C28.2026 5.39221 28.2026 5.21686 28.2026 5.08535C28.1582 3.68252 27.0929 2.67424 25.6724 2.6304C25.1397 2.6304 24.607 2.6304 24.1187 2.6304C23.6304 2.6304 23.0977 2.6304 22.6094 2.6304C21.1002 2.67424 20.0792 3.72636 20.0792 5.2607C20.0792 6.09363 20.0348 7.49645 21.8104 8.11019C22.3875 8.32938 22.9646 8.50473 23.5416 8.72392L24.3851 9.03079L27.9363 10.3021C28.6021 10.5651 29.1792 10.7843 29.6231 11.0912C30.5997 11.7926 30.6441 12.8009 30.6441 14.4229C30.6441 16.0888 30.5553 17.4039 29.4899 17.9738C28.7353 18.3683 27.7143 18.456 26.8709 18.456C26.5602 18.456 26.2494 18.456 25.9387 18.456C25.628 18.456 25.3172 18.456 25.0065 18.456H21.3221C20.7007 18.456 20.0792 18.456 19.5021 18.2807C19.0582 18.1491 17.7265 17.7546 17.6821 15.3435C17.6821 14.9051 17.6821 14.4667 17.6821 13.9845C17.7709 13.9845 17.8153 13.9845 17.9041 13.9845C18.0817 13.9845 18.2592 13.9845 18.4812 13.9845C18.7031 13.9845 18.8807 13.9845 19.1026 13.9845C19.2358 13.9845 19.369 13.9845 19.5021 13.9845C19.6353 13.9845 19.7685 13.9845 19.9016 13.9845C19.9016 14.0722 19.9016 14.1599 19.9016 14.2037C19.8573 14.6859 19.8129 15.5189 20.5231 16.2203C21.189 16.9217 22.1655 17.0094 22.787 17.0094C22.9646 17.0094 23.1865 17.0094 23.3641 17.0094C23.4972 17.0094 23.6304 17.0094 23.7636 17.0094H25.7168H25.7611H25.8055C26.1163 17.0094 26.5602 17.0094 27.0041 16.834C28.6021 16.2641 28.6021 14.7298 28.5577 13.8968V13.7653C28.6021 12.1871 27.226 11.6611 26.6933 11.4419C25.9387 11.1789 25.1841 10.9158 24.4738 10.6528C24.1187 10.5213 23.7192 10.3898 23.3641 10.2583C22.9646 10.1267 22.5651 9.99523 22.1655 9.86372C20.8782 9.46917 19.5909 9.03079 18.7475 8.32938C17.9929 7.6718 17.9485 6.61969 17.9929 5.08535C17.9929 4.86616 17.9929 4.64696 17.9929 4.42777C17.9929 1.97283 19.1914 1.57828 19.5909 1.44677C20.2124 1.22758 20.9226 1.22758 21.4997 1.18374C21.8992 1.18374 22.2987 1.18374 22.6982 1.18374C23.0977 1.18374 23.4973 1.18374 23.8968 1.18374C24.2963 1.18374 24.6958 1.18374 25.0953 1.18374C25.3616 1.18374 25.628 1.18374 25.8943 1.18374C26.1163 1.1399 26.3826 1.1399 26.6489 1.1399ZM26.6489 0.0439453C26.1163 0.0439453 25.5836 0.0439453 25.0509 0.0439453C24.2519 0.0439453 23.4529 0.0439453 22.6538 0.0439453C22.2543 0.0439453 21.8548 0.0439453 21.4553 0.0439453C20.7007 0.0439453 19.9016 0.0877835 19.1914 0.350813C17.3714 0.964549 16.8387 2.6304 16.8387 4.38393C16.8387 6.00595 16.5724 7.93483 17.9929 9.11847C19.3246 10.2583 21.3665 10.6966 22.9646 11.2665C24.0743 11.6611 25.1841 12.0556 26.2938 12.4502C26.9153 12.6694 27.448 12.9762 27.448 13.7215C27.448 14.5544 27.5368 15.4312 26.6046 15.7819C26.3382 15.8696 26.0719 15.8696 25.7611 15.8696C25.7168 15.8696 25.7168 15.8696 25.6724 15.8696C25.0065 15.8696 24.3851 15.8696 23.7192 15.8696C23.4085 15.8696 23.0977 15.9134 22.7426 15.9134C22.1655 15.9134 21.6329 15.8257 21.2777 15.475C20.6563 14.8174 21.189 13.9845 20.8338 13.2831C20.6563 12.9324 20.2568 12.8886 19.8573 12.8886C19.5909 12.8886 19.2802 12.9324 19.0582 12.9324C18.6587 12.9324 18.3036 12.9324 17.9041 12.9324C17.7265 12.9324 17.5046 12.9324 17.327 12.9324C17.1051 12.9324 16.8831 12.9762 16.7499 13.1516C16.5724 13.3269 16.5724 13.59 16.5724 13.8092C16.5724 14.3352 16.5724 14.8613 16.5724 15.3873C16.6168 17.1847 17.2826 18.8067 19.1914 19.3328C19.8573 19.552 20.6119 19.552 21.3221 19.552C22.5651 19.552 23.7636 19.552 25.0065 19.552C25.628 19.552 26.2494 19.5958 26.9153 19.5958C28.025 19.5958 29.1348 19.5081 30.067 18.9821C31.7538 18.0615 31.7982 16.1326 31.7982 14.4667C31.7982 12.8447 31.7538 11.2665 30.2889 10.2144C29.7119 9.77604 29.0016 9.55685 28.3358 9.29382C27.1372 8.85544 25.9831 8.46089 24.7846 8.02251C23.9412 7.71564 23.0533 7.40877 22.2099 7.10191C21.2777 6.7512 21.189 6.1813 21.189 5.2607C21.189 4.3401 21.6773 3.72636 22.6538 3.72636C23.1421 3.72636 23.6304 3.72636 24.1187 3.72636C24.6514 3.72636 25.1397 3.72636 25.6724 3.72636C26.5602 3.7702 27.0928 4.25242 27.1372 5.12918C27.1816 5.69908 26.9153 6.53201 27.7143 6.70736C27.8475 6.7512 27.9807 6.7512 28.1582 6.7512C28.4246 6.7512 28.6909 6.70736 28.9128 6.70736C29.3124 6.70736 29.7119 6.70736 30.1114 6.70736C30.2889 6.70736 30.5109 6.70736 30.6884 6.70736C31.2211 6.70736 31.4875 6.44433 31.4875 5.91827C31.5319 4.16474 31.665 2.06051 30.1114 0.876873C29.0904 0.131622 27.8475 0.0439453 26.6489 0.0439453Z" fill="black"/>
<path fill-rule="evenodd" clip-rule="evenodd" d="M41.6083 18.8505C41.342 18.8505 41.12 18.8505 40.8537 18.8505C40.5874 18.8505 40.321 18.8505 40.0991 18.8505C39.2557 18.8505 39.2557 18.8066 39.2557 18.4998C39.2113 16.1763 39.2113 13.8091 39.2557 11.4856C39.2557 10.302 39.2557 9.16222 39.2557 7.97858V3.6386H34.4615C33.8401 3.6386 33.8401 3.59476 33.8401 3.4194C33.7957 2.80567 33.7957 2.10426 33.8401 1.31517C33.8401 1.13982 33.8844 1.09598 33.8844 1.09598C33.9288 1.05214 34.062 1.0083 34.4171 1.0083C34.5947 1.0083 34.8166 1.0083 34.9942 1.05214C35.1718 1.05214 35.3493 1.09598 35.4825 1.09598H45.3371C45.6034 1.09598 45.8698 1.09598 46.1361 1.09598C46.4025 1.09598 46.6688 1.09598 46.9351 1.09598C47.2015 1.09598 47.4678 1.09598 47.6898 1.09598C47.8673 1.09598 47.9561 1.09598 47.9117 2.06042C47.9117 2.19193 47.9117 2.36729 47.9117 2.45496C47.9117 2.54264 47.9117 2.67415 47.9117 2.76183C47.9117 3.02486 47.9117 3.46324 47.8229 3.55092C47.7786 3.59476 47.6898 3.59476 47.5122 3.59476H42.4961V18.6751C42.4961 18.7628 42.363 18.8066 42.3186 18.8066C42.141 18.8066 41.8747 18.8505 41.6083 18.8505Z" fill="black"/>
<path d="M34.3728 1.49049C34.5503 1.49049 34.7279 1.49049 34.9055 1.53433C35.083 1.53433 35.2606 1.57816 35.4381 1.57816H45.2928C45.5591 1.57816 45.8254 1.57816 46.1362 1.57816C46.4025 1.57816 46.6689 1.57816 46.9352 1.57816C47.1128 1.57816 47.2459 1.57816 47.3791 1.57816C47.3791 1.70968 47.3791 1.88503 47.3791 1.97271C47.3791 2.14806 47.3791 2.27958 47.3791 2.41109C47.3791 2.49877 47.3791 2.63028 47.3791 2.71796C47.3791 2.80564 47.3791 2.93715 47.3791 3.02483H43.0733H41.9635V4.12078V18.2805C41.8747 18.2805 41.7415 18.2805 41.6084 18.2805C41.3864 18.2805 41.1201 18.2805 40.8981 18.2805C40.6318 18.2805 40.3655 18.2805 40.0991 18.2805C40.0103 18.2805 39.8772 18.2805 39.7884 18.2805C39.744 16.001 39.7884 13.6775 39.7884 11.4418C39.7884 10.2581 39.7884 9.11835 39.7884 7.93471V4.12078V3.02483H38.6786H34.5503H34.506H34.4616C34.4172 3.02483 34.4172 3.02483 34.3728 3.02483C34.3728 2.54261 34.3728 2.06039 34.3728 1.49049ZM34.3728 0.394531C34.0621 0.394531 33.7957 0.43837 33.5738 0.526046C33.3074 0.657561 33.263 0.92059 33.263 1.22746C33.2186 1.92887 33.2186 2.67412 33.263 3.37553C33.3074 4.07695 33.8845 4.12078 34.4616 4.12078C34.506 4.12078 34.5503 4.12078 34.5503 4.12078C35.9264 4.12078 37.3025 4.12078 38.6786 4.12078C38.6786 5.39209 38.6786 6.6634 38.6786 7.93471C38.6786 11.4418 38.6342 14.9488 38.6786 18.4559C38.6786 19.3765 39.3001 19.3765 40.0991 19.3765C40.5874 19.3765 41.1201 19.4203 41.6084 19.4203C41.8747 19.4203 42.1411 19.4203 42.4074 19.3765C42.7625 19.3327 43.0733 19.1135 43.0733 18.7189V4.07695C44.5825 4.07695 46.0474 4.07695 47.5567 4.07695C48.6664 4.07695 48.4888 3.20018 48.4888 2.36725C48.4888 1.66584 48.7552 0.482208 47.7342 0.43837C47.4679 0.43837 47.2015 0.43837 46.9352 0.43837C46.4025 0.43837 45.8698 0.43837 45.3371 0.43837C42.0523 0.43837 38.7674 0.43837 35.4825 0.43837C35.1718 0.43837 34.7723 0.394531 34.3728 0.394531Z" fill="black"/>
<path fill-rule="evenodd" clip-rule="evenodd" d="M63.4928 19.0257C62.5606 19.0257 61.8504 18.9819 61.1845 18.8942C60.4299 18.8065 58.6099 18.3682 57.9885 16.6146C57.6333 15.5625 57.6333 14.3789 57.6777 13.2391C57.6777 12.9322 57.6777 12.6692 57.6777 12.3623V4.7783C57.6777 3.6385 57.9441 2.76174 58.4324 2.06033C58.9207 1.35891 59.7641 0.92053 60.7406 0.701339C61.4953 0.569824 62.2055 0.569824 62.9158 0.569824H63.6704H68.5977C71.0836 0.569824 72.5484 1.2274 73.1699 2.63022C73.525 3.41931 73.6582 4.42759 73.5694 5.6989C73.4806 5.6989 73.3918 5.6989 73.3475 5.6989H71.8826C71.8382 5.52355 71.8826 5.26052 71.8826 5.08517C71.8826 4.90981 71.927 4.73446 71.8826 4.64678C71.8382 3.94537 71.6606 3.37547 71.3055 2.89325C70.5509 1.88497 69.2636 1.88497 68.4201 1.88497H63.4928C63.3597 1.88497 63.2265 1.88497 63.0489 1.88497C62.8714 1.88497 62.7382 1.88497 62.5606 1.88497C61.8504 1.88497 61.0514 1.92881 60.3855 2.45487C59.4533 3.15628 59.3202 4.16456 59.3202 5.08517V14.2474C59.3202 15.0365 59.3202 16.0447 60.0304 16.8338C60.785 17.6229 61.9392 17.6229 62.605 17.6229H68.0206H68.6865C69.5299 17.6229 70.3733 17.5352 71.0836 16.9653C72.0157 16.1762 71.9714 14.9926 71.9714 14.0282C71.9714 13.8967 71.9714 13.7651 71.9714 13.6336V11.1348H68.3758C68.287 11.1348 68.1538 11.1348 67.9762 11.1348C67.8431 11.1348 67.6655 11.1787 67.5323 11.1787C67.3548 11.1787 67.266 11.1787 67.2216 11.1348C67.1772 10.6965 67.2216 10.1704 67.2216 9.77586C67.4436 9.73202 67.6211 9.73202 67.8875 9.73202C68.1538 9.73202 68.4201 9.73202 68.7309 9.77586C68.9972 9.77586 69.3079 9.8197 69.5743 9.8197H73.4806C73.525 9.8197 73.6138 9.8197 73.6138 9.8197C73.6138 10.5649 73.6138 11.3102 73.6138 12.0116C73.6138 12.3623 73.6138 12.7569 73.6138 13.1076C73.6138 13.3268 73.6138 13.5459 73.6138 13.7651C73.6138 14.335 73.6138 14.9488 73.5694 15.4748C73.4806 16.3516 73.0367 17.8859 71.4387 18.4997C70.4621 18.8942 69.4411 18.9381 68.4201 18.9381C68.1538 18.9381 67.8875 18.9381 67.6211 18.9381C67.3548 18.9381 67.0884 18.9381 66.8221 18.9381C66.2894 18.9381 65.7123 18.9381 65.1353 18.9819C64.647 19.0257 64.0699 19.0257 63.4928 19.0257Z" fill="black"/>
<path d="M62.9601 1.13979H63.3152H63.6703H68.5976C70.8171 1.13979 72.1045 1.70969 72.6815 2.84949C72.9479 3.41939 73.081 4.20847 73.081 5.17292H72.9479H72.504H72.4596C72.4596 4.99756 72.504 4.82221 72.504 4.64686C72.4596 3.81393 72.2376 3.15636 71.8381 2.58646C70.9059 1.35899 69.3967 1.35899 68.5089 1.35899H63.4928C63.3596 1.35899 63.2264 1.35899 63.0489 1.35899C62.8713 1.35899 62.6937 1.35899 62.5606 1.35899C61.7616 1.35899 60.8738 1.44666 60.0747 2.01656C58.9206 2.84949 58.7874 4.07696 58.7874 5.08524V9.46907V14.1598V14.2474C58.7874 15.0804 58.7874 16.264 59.6752 17.1846C60.6074 18.149 61.9391 18.149 62.6494 18.149H62.8269H63.0045H68.0206C68.1093 18.149 68.2425 18.149 68.3313 18.149C68.4645 18.149 68.5532 18.149 68.6864 18.149C69.6186 18.149 70.5952 18.0614 71.4386 17.36C72.5484 16.3955 72.5484 14.9927 72.504 13.9844C72.504 13.8529 72.504 13.7214 72.504 13.5899V11.661V10.565H71.3942H68.3757C68.2425 10.565 68.1093 10.565 67.9318 10.6089C67.8874 10.6089 67.7986 10.6089 67.7542 10.6089C67.7542 10.4773 67.7542 10.3897 67.7542 10.2582C67.7986 10.2582 67.843 10.2582 67.8874 10.2582C68.1537 10.2582 68.4201 10.2582 68.6864 10.302C68.9528 10.302 69.2635 10.3458 69.5298 10.3458H73.0366C73.0366 10.9157 73.0366 11.4856 73.0366 12.0117C73.0366 12.4062 73.0366 12.7569 73.0366 13.1515C73.0366 13.3707 73.0366 13.5899 73.0366 13.8091C73.0366 14.379 73.0366 14.9489 72.9923 15.4749C72.9035 16.2202 72.5484 17.5353 71.2166 18.0614C70.3288 18.4121 69.3523 18.4559 68.4201 18.4559C68.1537 18.4559 67.8874 18.4559 67.6211 18.4559C67.3547 18.4559 67.0884 18.4559 66.822 18.4559C66.245 18.4559 65.6679 18.4559 65.1352 18.4998C64.6025 18.4998 64.0255 18.5436 63.4484 18.5436C62.5606 18.5436 61.8503 18.4998 61.2289 18.4121C60.563 18.3244 59.0094 17.9737 58.4767 16.527C58.166 15.5626 58.166 14.5105 58.2104 13.3268C58.2104 13.02 58.2104 12.7131 58.2104 12.4501V5.30443V4.77837C58.2104 3.77009 58.4323 2.981 58.8318 2.36727C59.2313 1.79737 59.9416 1.40282 60.785 1.22747C61.584 1.13979 62.2942 1.13979 62.9601 1.13979ZM62.9601 0.043838C62.2055 0.043838 61.4508 0.0438383 60.6962 0.219191C59.6752 0.394544 58.6542 0.920604 58.0328 1.79737C57.4113 2.67413 57.1894 3.77009 57.1894 4.82221C57.1894 4.99756 57.1894 5.12908 57.1894 5.30443C57.1894 7.6717 57.1894 10.039 57.1894 12.4062C57.1894 13.8529 57.0118 15.4311 57.5001 16.8339C58.0328 18.4121 59.5421 19.245 61.1401 19.4642C61.9391 19.5519 62.7381 19.5957 63.5372 19.5957C64.6469 19.5957 65.8011 19.5519 66.8664 19.5519C67.3991 19.5519 67.9318 19.5519 68.4645 19.5519C69.5742 19.5519 70.6396 19.4642 71.7049 19.0696C73.2142 18.4559 73.9688 17.0969 74.1464 15.6064C74.2352 14.8173 74.1908 13.9844 74.1908 13.1515C74.1908 12.0555 74.1908 10.9157 74.1908 9.81977C74.1908 9.29371 73.8801 9.24988 73.4805 9.24988C73.3918 9.24988 73.3474 9.24988 73.2586 9.24988C72.0157 9.24988 70.7727 9.24988 69.5742 9.24988C69.0415 9.24988 68.4645 9.20604 67.9318 9.20604C67.6211 9.20604 67.3547 9.20604 67.0884 9.24988C66.7776 9.29371 66.7332 9.46907 66.6889 9.7321C66.6445 10.2143 66.6445 10.7404 66.6889 11.2226C66.7332 11.6171 67.1328 11.7048 67.5323 11.7048C67.843 11.7048 68.1537 11.661 68.3757 11.661C69.3967 11.661 70.4176 11.661 71.4386 11.661C71.4386 12.3186 71.4386 12.9323 71.4386 13.5899C71.4386 14.5981 71.5718 15.7818 70.7284 16.527C70.1513 17.0092 69.441 17.0531 68.7308 17.0531C68.5089 17.0531 68.2869 17.0531 68.065 17.0531C66.3781 17.0531 64.6913 17.0531 63.0489 17.0531C62.9157 17.0531 62.7825 17.0531 62.6937 17.0531C61.8947 17.0531 61.0957 17.0093 60.5186 16.3955C59.9416 15.7818 59.9416 14.905 59.9416 14.1159C59.9416 12.5377 59.9416 10.9596 59.9416 9.42523C59.9416 7.97857 59.9416 6.5319 59.9416 5.0414C59.9416 4.20847 60.0747 3.37555 60.785 2.84949C61.3177 2.45494 61.9835 2.41111 62.605 2.41111C62.9157 2.41111 63.2264 2.41111 63.5372 2.41111C65.224 2.41111 66.8664 2.41111 68.5532 2.41111C69.441 2.41111 70.4176 2.45494 70.9947 3.20019C71.3054 3.59474 71.4386 4.1208 71.4386 4.64686C71.4386 5.0414 71.261 5.87433 71.5718 6.13736C71.6606 6.22504 71.7937 6.22503 71.9269 6.22503C71.9713 6.22503 72.0601 6.22503 72.1045 6.22503C72.2376 6.22503 72.3708 6.22503 72.5484 6.22503C72.8147 6.22503 73.1254 6.22503 73.3918 6.22503C73.8357 6.22503 74.1464 6.22504 74.1464 5.74281C74.2352 4.64686 74.1464 3.41939 73.7025 2.36727C72.7703 0.394544 70.5952 0 68.642 0C66.9996 0 65.3572 0 63.7147 0C63.4484 0.0438383 63.182 0.043838 62.9601 0.043838Z" fill="black"/>
<path fill-rule="evenodd" clip-rule="evenodd" d="M81.5152 18.8504C81.2932 18.8504 81.1156 18.8504 80.9381 18.8065C80.7605 18.8065 80.6274 18.7627 80.4942 18.7627C80.361 18.7627 80.3166 18.7627 80.2722 18.7627C80.2722 18.7189 80.2722 18.7189 80.2722 18.675C80.2722 15.5625 80.2722 12.4061 80.2722 9.33747C80.2722 7.75929 80.2722 6.22495 80.2722 4.64677V1.75344C80.2722 1.66577 80.2722 1.57809 80.2722 1.44658C80.2722 1.31506 80.2278 1.09587 80.2722 0.964355C80.3166 0.964355 80.4054 0.964355 80.5386 0.964355C80.7161 0.964355 80.8937 0.964355 81.0269 1.00819C81.16 1.00819 81.2932 1.00819 81.3376 1.00819H85.1995C85.821 1.00819 86.4425 1.00819 87.0639 1.00819C87.6854 1.00819 88.3068 1.00819 88.9283 1.00819C89.7273 1.00819 90.3488 1.00819 90.9702 1.05203C92.2576 1.09587 93.9444 1.49041 94.699 2.89324C95.3649 4.12071 95.2761 5.65505 95.2317 7.18939C95.2317 7.49626 95.1873 7.84696 95.1873 8.10999C95.1873 9.11827 94.921 10.9156 93.2785 11.7486C92.879 11.9239 92.5683 12.0554 92.3463 12.0554L91.4585 12.1431L95.4537 18.8504C95.3205 18.8504 95.2317 18.8504 95.1429 18.8504C95.0541 18.8504 95.0098 18.8504 94.9654 18.8504C94.8322 18.8504 94.699 18.8504 94.5659 18.8504C94.4327 18.8504 94.2995 18.8504 94.1663 18.8504C93.7668 18.8504 93.6337 18.7627 93.5893 18.7189C93.0122 17.8421 92.4795 16.8776 91.9468 15.9132C91.6805 15.431 91.4142 14.9488 91.1478 14.4665L89.9493 12.3623H81.9147V15.7379C81.9147 16.0886 81.9147 16.4393 81.9591 16.8338C82.0034 17.5352 82.0034 18.2366 81.9591 18.8942C81.9147 18.8065 81.7815 18.8504 81.5152 18.8504ZM81.9591 11.0033H90.5263C92.1688 10.9595 93.2342 10.1704 93.5005 8.94292C93.5893 8.4607 93.5893 7.93464 93.5893 7.45242C93.5893 7.3209 93.5893 7.14555 93.5893 7.01404C93.5893 6.79485 93.5893 6.61949 93.5893 6.4003C93.5893 5.91808 93.5893 5.39202 93.5893 4.9098C93.5005 3.50697 92.5683 2.54253 91.1034 2.36718C90.6595 2.32334 90.1712 2.2795 89.5942 2.2795C89.1946 2.2795 88.7951 2.2795 88.3956 2.32334C87.9961 2.32334 87.641 2.36718 87.2859 2.36718H82.0034V11.0033H81.9591Z" fill="black"/>
<path d="M88.8839 1.49049C89.6829 1.49049 90.3044 1.49049 90.9258 1.53433C92.08 1.57816 93.5892 1.92887 94.2107 3.1125C94.7878 4.20846 94.7434 5.69896 94.699 7.14562C94.699 7.45249 94.6546 7.8032 94.6546 8.11007C94.6546 8.98683 94.4327 10.565 93.0566 11.2664C92.6571 11.4856 92.3907 11.5295 92.3019 11.5295L90.5707 11.7048L91.4585 13.1953L94.5214 18.3244C94.4327 18.3244 94.2995 18.3244 94.1663 18.3244C94.0775 18.3244 94.0331 18.3244 93.9888 18.3244C93.4117 17.4915 92.9234 16.5709 92.4351 15.6502C92.1688 15.168 91.9024 14.6858 91.6361 14.2036L91.1034 13.283L90.5707 12.3624L90.26 11.7925H89.6385H82.4917H81.382V12.8884V15.6941C81.382 16.0448 81.382 16.4393 81.4264 16.79C81.4264 17.3161 81.4707 17.8422 81.4264 18.3244C81.2932 18.3244 81.1156 18.3244 80.9825 18.2805C80.9381 18.2805 80.8493 18.2805 80.8049 18.2805C80.8049 15.2995 80.8049 12.2747 80.8049 9.33754C80.8049 7.75936 80.8049 6.22502 80.8049 4.64684V1.75352C80.8049 1.66584 80.8049 1.57816 80.8049 1.49049C80.8493 1.49049 80.8937 1.49049 80.9825 1.49049C81.1156 1.49049 81.2488 1.49049 81.3376 1.49049H85.1995C85.821 1.49049 86.4424 1.49049 87.0639 1.49049C87.6854 1.53433 88.2624 1.49049 88.8839 1.49049ZM81.382 11.5295H82.4917H90.5263C92.3907 11.4418 93.678 10.565 93.9888 9.03067C94.1219 8.46077 94.0775 7.93471 94.0775 7.45249C94.0775 7.32098 94.0775 7.14562 94.0775 7.01411C94.0775 6.79492 94.0775 6.61957 94.0775 6.40037C94.0775 5.91815 94.0775 5.39209 94.0775 4.86603C93.9888 3.24402 92.8346 2.06039 91.1034 1.84119C90.6151 1.79736 90.1268 1.75352 89.5054 1.75352C89.1058 1.75352 88.7063 1.75352 88.3068 1.79736C87.9073 1.79736 87.5522 1.79736 87.1971 1.79736H82.4917H81.382V2.89331V10.4335V11.5295ZM80.4942 0.394531C80.1834 0.394531 79.8727 0.43837 79.7839 0.613723C79.6064 0.876752 79.6951 1.49049 79.6951 1.79736C79.6951 2.7618 79.6951 3.72624 79.6951 4.69068C79.6951 9.38138 79.6507 14.0282 79.6951 18.7189C79.6951 19.2888 79.9171 19.3765 80.4942 19.3765C80.7161 19.3765 81.16 19.4203 81.5151 19.4203C82.0034 19.4203 82.4473 19.3327 82.4917 18.8943C82.6249 17.8422 82.4917 16.7462 82.4917 15.6941C82.4917 14.7735 82.4917 13.809 82.4917 12.8884H89.6385C89.9936 13.5022 90.3488 14.1159 90.7039 14.7296C91.5029 16.1325 92.2575 17.6668 93.1897 19.0258C93.4117 19.3327 93.8112 19.4203 94.2107 19.4203C94.4771 19.4203 94.7878 19.3765 95.0097 19.3765C95.0985 19.3765 95.3205 19.4203 95.5868 19.4203C95.9863 19.4203 96.4302 19.3327 96.2083 18.982L92.3907 12.6254C92.7902 12.5816 93.1897 12.4062 93.5449 12.2309C95.1429 11.4418 95.7644 9.77592 95.7644 8.11007C95.8088 6.35654 96.0751 4.2523 95.1873 2.63028C94.3883 1.09594 92.6127 0.569884 90.9702 0.482208C90.26 0.438369 89.5941 0.43837 88.8839 0.43837C87.641 0.43837 86.398 0.482208 85.1551 0.482208C83.8678 0.482208 82.5805 0.482208 81.2932 0.482208C81.16 0.438369 80.8049 0.394531 80.4942 0.394531ZM82.4917 10.4335V2.89331C84.0454 2.89331 85.6434 2.89331 87.1971 2.89331C87.9517 2.89331 88.7507 2.84947 89.5054 2.84947C89.9937 2.84947 90.4819 2.84947 90.9702 2.93715C92.1244 3.06867 92.879 3.81392 92.9678 4.95371C93.0122 5.65512 92.9678 6.3127 92.9678 7.01411C92.9678 7.58401 93.0122 8.24158 92.9234 8.81148C92.7014 9.99511 91.6361 10.4335 90.5263 10.4335C87.8185 10.4335 85.1551 10.4335 82.4917 10.4335Z" fill="black"/>
<path fill-rule="evenodd" clip-rule="evenodd" d="M106.773 19.026C105.708 19.026 104.331 18.9383 103.222 18.3684C102.023 17.7108 101.446 16.4834 101.446 14.3353V4.77854C101.446 3.55107 101.801 1.44683 104.198 0.78926C104.997 0.570068 105.841 0.570068 106.64 0.570068H111.434C111.656 0.570068 111.922 0.570068 112.144 0.570068C112.411 0.570068 112.632 0.570068 112.899 0.570068C114.497 0.570068 115.784 0.745422 116.716 1.49067C118.004 2.54279 118.004 4.20864 118.004 5.83066V5.96218C118.004 6.92662 118.004 7.89106 118.004 8.81166C118.004 10.6967 118.004 12.6256 118.004 14.5106C118.004 16.571 117.338 17.8423 115.962 18.4561C115.251 18.7629 114.408 18.9383 113.298 18.9383H109.436C109.037 18.9383 108.593 18.9383 108.149 18.9821C107.705 19.026 107.261 19.026 106.773 19.026ZM111.878 17.6232C112.055 17.6232 112.189 17.6232 112.366 17.6232C112.544 17.6232 112.766 17.6232 112.943 17.6232C113.653 17.6232 115.251 17.6232 115.962 16.2642C116.272 15.6504 116.317 15.0367 116.317 14.4668V4.77854C116.272 4.12097 116.139 3.15653 115.296 2.49895C114.674 2.01673 113.875 1.92905 113.21 1.92905C112.499 1.92905 111.789 1.92905 111.079 1.92905C110.369 1.92905 109.658 1.92905 108.948 1.92905C108.238 1.92905 107.528 1.92905 106.817 1.92905C105.574 1.92905 103.71 1.92905 103.177 3.8141C103.044 4.29632 103.044 4.82238 103.044 5.26076C103.044 5.34844 103.044 5.43612 103.044 5.52379V8.59247C103.044 9.25004 103.044 9.95146 103.044 10.609C103.044 11.9242 103.044 13.327 103.044 14.6421C103.044 16.4395 104.154 17.5793 105.93 17.5793C106.595 17.5793 107.217 17.5793 107.883 17.5793C108.549 17.5793 109.17 17.5793 109.836 17.5793C110.546 17.667 111.212 17.6232 111.878 17.6232Z" fill="black"/>
<path d="M112.899 1.1399C114.364 1.1399 115.518 1.27142 116.361 1.97283C117.427 2.84959 117.427 4.3401 117.427 5.87443V6.00595C117.427 6.97039 117.427 7.93483 117.427 8.85544C117.427 10.7405 117.427 12.6694 117.427 14.5544C117.427 17.2285 116.139 17.7984 115.74 17.9738C115.118 18.2807 114.319 18.4122 113.343 18.4122H109.481C109.037 18.4122 108.593 18.4122 108.194 18.456C107.75 18.456 107.306 18.4999 106.862 18.4999C105.841 18.4999 104.554 18.4122 103.577 17.93C102.556 17.4039 102.112 16.3079 102.112 14.3791V5.6114V4.77848C102.112 3.50717 102.512 1.84131 104.465 1.31526C105.175 1.1399 105.974 1.1399 106.773 1.1399H111.434C111.656 1.1399 111.922 1.1399 112.144 1.1399C112.411 1.1399 112.633 1.1399 112.899 1.1399ZM107.972 18.193C108.637 18.193 109.259 18.193 109.925 18.193C110.591 18.193 111.212 18.193 111.878 18.193C112.011 18.193 112.189 18.193 112.366 18.193C112.544 18.193 112.766 18.193 112.988 18.193C113.698 18.193 115.651 18.193 116.494 16.571C116.894 15.8696 116.894 15.1243 116.894 14.5106V11.8803V5.2607V4.82232C116.85 4.07707 116.716 2.98111 115.695 2.14818C114.941 1.53445 114.053 1.44677 113.254 1.44677C112.544 1.44677 111.834 1.44677 111.123 1.44677C110.413 1.44677 109.703 1.44677 108.993 1.44677C108.282 1.44677 107.572 1.44677 106.862 1.44677C105.619 1.44677 103.355 1.44677 102.689 3.68252C102.512 4.25242 102.512 4.82232 102.556 5.30454C102.556 5.39221 102.556 5.47989 102.556 5.56757V8.63624C102.556 9.29382 102.556 9.99523 102.556 10.6528C102.556 11.968 102.556 13.3708 102.556 14.7298C102.6 16.7902 103.932 18.193 105.974 18.2368C106.595 18.193 107.217 18.193 107.972 18.193ZM112.899 0.0439453C112.411 0.0439453 111.922 0.0439453 111.434 0.0439453C109.836 0.0439453 108.282 0.0439453 106.684 0.0439453C105.796 0.0439453 104.909 0.0439453 104.065 0.263137C101.89 0.833034 100.914 2.6304 100.914 4.77848C100.914 5.04151 100.914 5.30454 100.914 5.56757C100.914 8.46089 100.914 11.3981 100.914 14.2914C100.914 16.0449 101.224 17.93 102.955 18.8067C104.065 19.4205 105.441 19.5081 106.773 19.5081C107.705 19.5081 108.593 19.4643 109.436 19.4643C110.724 19.4643 112.011 19.4643 113.298 19.4643C114.275 19.4643 115.252 19.3328 116.184 18.9382C118.004 18.1491 118.536 16.3518 118.536 14.5106C118.536 11.6611 118.536 8.76776 118.536 5.91827C118.536 4.16474 118.581 2.23586 117.072 1.00839C115.917 0.17546 114.364 0.0439453 112.899 0.0439453ZM107.972 17.097C107.306 17.097 106.684 17.097 106.018 17.097C104.509 17.0532 103.666 16.1326 103.666 14.6859C103.621 12.6694 103.666 10.6528 103.666 8.63624C103.666 7.62796 103.666 6.57585 103.666 5.56757C103.666 5.04151 103.621 4.51545 103.755 3.98939C104.198 2.54273 105.619 2.49889 106.862 2.49889C108.282 2.49889 109.658 2.49889 111.079 2.49889C111.789 2.49889 112.499 2.49889 113.21 2.49889C113.831 2.49889 114.453 2.58656 114.985 2.93727C115.562 3.41949 115.74 4.03323 115.784 4.77848C115.784 4.90999 115.784 5.08535 115.784 5.21686C115.784 7.40877 115.784 9.64452 115.784 11.8364C115.784 12.7132 115.784 13.59 115.784 14.4667C115.784 14.9928 115.74 15.5189 115.518 16.0011C115.03 16.9217 113.964 17.0532 112.988 17.0532C112.588 17.0532 112.233 17.0532 111.878 17.0532C110.546 17.097 109.259 17.097 107.972 17.097Z" fill="black"/>
<path fill-rule="evenodd" clip-rule="evenodd" d="M131.232 18.982C130.566 18.982 129.9 18.982 129.234 18.982C128.08 18.982 126.615 18.8505 125.594 17.9299C124.84 17.2723 124.485 16.1764 124.485 14.7735V2.63035C124.485 2.45499 124.485 2.2358 124.485 2.06045C124.485 1.66591 124.485 1.3152 124.485 0.964493C124.529 0.964493 124.529 0.964493 124.573 0.964493C124.662 0.964493 124.751 0.964493 124.84 0.964493C124.929 0.964493 125.062 0.964493 125.151 0.964493C125.239 0.964493 125.373 0.964493 125.55 0.964493C125.683 0.964493 125.816 0.920654 125.95 0.920654C126.083 0.920654 126.127 0.920654 126.172 0.920654C126.216 1.22752 126.172 1.53439 126.172 1.84126C126.172 2.01661 126.172 2.19196 126.172 2.36732V9.38144C126.172 9.95134 126.172 10.5651 126.172 11.135C126.172 12.3186 126.172 13.5022 126.172 14.6859C126.172 16.3956 127.237 17.5354 128.879 17.623C129.456 17.6669 130.122 17.6669 130.833 17.6669C131.454 17.6669 132.12 17.6669 132.741 17.623C133.363 17.623 133.984 17.5792 134.606 17.5792H135.005C136.071 17.5792 137.846 17.5792 138.468 15.8695C138.645 15.3434 138.645 14.8174 138.645 14.3352V1.84126C138.645 1.75358 138.645 1.62207 138.645 1.49055C138.645 1.35904 138.601 1.13985 138.645 1.00833H138.823C139 1.00833 139.178 1.00833 139.355 1.00833C139.533 1.00833 139.711 1.00833 139.888 1.00833C140.066 1.00833 140.199 1.00833 140.376 1.00833C140.376 1.05217 140.376 14.8612 140.376 14.8612C140.376 16.4394 139.844 17.623 138.823 18.2806C137.802 18.9382 136.47 18.982 135.316 18.982C134.65 18.982 133.984 18.982 133.318 18.982C132.564 18.982 131.898 18.982 131.232 18.982Z" fill="black"/>
<path d="M125.639 1.53433C125.639 1.66584 125.639 1.75352 125.639 1.88503C125.639 2.06039 125.639 2.23574 125.639 2.41109V9.42521C125.639 9.99511 125.639 10.6088 125.639 11.1787C125.639 12.3185 125.639 13.546 125.639 14.7296C125.639 16.7462 126.926 18.1052 128.835 18.2367C129.412 18.2805 130.078 18.2805 130.833 18.2805C131.498 18.2805 132.12 18.2805 132.786 18.2367C133.407 18.2367 134.029 18.1929 134.65 18.1929H134.828H135.05C136.115 18.1929 138.29 18.1929 139.045 16.1325C139.267 15.5187 139.267 14.905 139.267 14.3789V12.0117V4.73452V1.84119C139.267 1.75352 139.267 1.66584 139.267 1.53433C139.311 1.53433 139.355 1.53433 139.4 1.53433C139.533 1.53433 139.666 1.53433 139.844 1.53433V13.6775V14.8173C139.844 16.2201 139.4 17.2284 138.512 17.7983C137.624 18.3682 136.381 18.4121 135.316 18.4121C134.65 18.4121 133.984 18.4121 133.318 18.4121C132.652 18.4121 131.987 18.4121 131.321 18.4121C130.655 18.4121 129.989 18.4121 129.323 18.4121C127.725 18.3682 126.749 18.1052 126.083 17.4915C125.461 16.9216 125.151 16.001 125.151 14.7296V9.77592V2.63028C125.151 2.45493 125.151 2.23574 125.151 2.01655C125.151 1.84119 125.151 1.66584 125.151 1.49049C125.195 1.49049 125.239 1.49049 125.284 1.49049C125.417 1.49049 125.55 1.49049 125.728 1.44665C125.594 1.53433 125.594 1.53433 125.639 1.53433ZM125.95 0.394531C125.683 0.394531 125.373 0.43837 125.151 0.43837C124.973 0.43837 124.795 0.43837 124.573 0.43837C124.218 0.43837 123.952 0.526046 123.908 0.92059C123.863 1.49049 123.908 2.06039 123.908 2.63028C123.908 4.99755 123.908 7.40865 123.908 9.77592C123.908 11.4418 123.908 13.1076 123.908 14.7735C123.908 16.0886 124.174 17.4476 125.195 18.3682C126.26 19.3327 127.77 19.5519 129.19 19.5519C129.856 19.5519 130.522 19.5519 131.188 19.5519C132.519 19.5519 133.851 19.5519 135.183 19.5519C136.47 19.5519 137.891 19.4642 139 18.7628C140.332 17.886 140.82 16.3955 140.82 14.8612C140.82 14.4666 140.82 14.0721 140.82 13.7214C140.82 9.55673 140.82 5.34826 140.82 1.18362C140.82 0.789076 140.82 0.526046 140.332 0.482208C140.154 0.482208 139.977 0.482208 139.799 0.482208C139.444 0.482208 139.089 0.482208 138.734 0.482208C138.69 0.482208 138.601 0.482208 138.556 0.482208C138.379 0.482208 138.201 0.526046 138.068 0.701399C137.935 1.00827 138.024 1.53433 138.024 1.88503C138.024 2.84947 138.024 3.81392 138.024 4.77836C138.024 7.2333 138.024 9.64441 138.024 12.0993C138.024 12.8884 138.024 13.6775 138.024 14.4666C138.024 14.9488 138.024 15.3872 137.846 15.8256C137.402 17.0969 136.071 17.1408 134.916 17.1408C134.783 17.1408 134.65 17.1408 134.517 17.1408C133.274 17.1408 131.987 17.1846 130.699 17.1846C130.033 17.1846 129.412 17.1846 128.746 17.1408C127.326 17.0531 126.571 16.0886 126.571 14.7296C126.571 12.9761 126.571 11.2226 126.571 9.42521C126.571 7.10179 126.571 4.77836 126.571 2.41109C126.571 1.88503 126.615 1.35897 126.571 0.876752C126.66 0.482208 126.305 0.394531 125.95 0.394531Z" fill="black"/>
<path fill-rule="evenodd" clip-rule="evenodd" d="M148.012 18.8505C147.701 18.8505 147.435 18.8505 147.213 18.8066C147.168 18.3683 147.168 17.9299 147.213 17.4477C147.213 17.1846 147.213 16.9654 147.213 16.7024V2.98102C147.213 2.76183 147.213 2.4988 147.213 2.27961C147.213 1.84123 147.168 1.40285 147.213 1.0083C147.257 1.0083 147.301 1.0083 147.39 1.0083C147.479 1.0083 147.568 1.0083 147.657 1.0083C147.745 1.0083 147.878 1.0083 147.967 1.0083H157.334C157.911 1.0083 158.488 1.0083 159.065 1.09598C160.929 1.40285 162.128 2.63032 162.35 4.34001C162.438 5.17294 162.438 6.00586 162.394 6.88263C162.394 7.23333 162.394 7.5402 162.394 7.89091C162.394 8.76767 162.394 9.64444 162.083 10.5212C161.417 12.4501 159.198 12.8008 157.955 12.8446C157.112 12.8885 156.268 12.8885 155.203 12.8885C154.404 12.8885 153.56 12.8885 152.761 12.8885C151.962 12.8885 151.119 12.8885 150.32 12.8885H148.855V17.1408C148.855 17.3161 148.855 17.5353 148.855 17.7107C148.855 18.1052 148.855 18.4559 148.855 18.8066C148.633 18.8066 148.322 18.8505 148.012 18.8505ZM148.899 11.5295H157.733C159.42 11.4856 160.485 10.6527 160.707 9.29373C160.796 8.81151 160.796 8.28545 160.752 7.80323C160.752 7.62788 160.752 7.49636 160.752 7.32101C160.752 7.10182 160.752 6.83879 160.752 6.6196C160.752 6.13738 160.752 5.65516 160.752 5.17294C160.707 3.6386 159.819 2.63032 158.355 2.36729C157.911 2.27961 157.378 2.27961 156.801 2.27961C156.401 2.27961 155.957 2.27961 155.558 2.32345C155.158 2.32345 154.803 2.36729 154.404 2.36729H148.899V11.5295Z" fill="black"/>
<path d="M147.79 1.53443C147.878 1.53443 147.923 1.53443 148.012 1.53443H152.451H156.89H157.112H157.334C157.866 1.53443 158.443 1.53443 158.976 1.62211C160.574 1.88514 161.595 2.89342 161.773 4.38392C161.861 5.17301 161.861 5.9621 161.817 6.83886C161.817 7.18957 161.817 7.54028 161.817 7.84714C161.817 8.72391 161.817 9.513 161.551 10.3021C161.018 11.8364 159.287 12.231 157.955 12.2748C157.156 12.3186 156.268 12.3186 155.247 12.3186C154.448 12.3186 153.605 12.3186 152.806 12.3186C151.962 12.3186 151.163 12.3186 150.32 12.3186H149.432H148.322V13.4146V17.1409C148.322 17.36 148.322 17.5354 148.322 17.7546C148.322 17.9299 148.322 18.1491 148.322 18.3245C148.189 18.3245 148.1 18.3245 147.967 18.3245C147.878 18.3245 147.79 18.3245 147.701 18.3245C147.701 18.0615 147.701 17.7984 147.701 17.4916C147.701 17.2285 147.701 17.0093 147.701 16.7463V7.32108V2.9811C147.701 2.7619 147.701 2.49888 147.701 2.23585C147.79 2.01665 147.79 1.75362 147.79 1.53443ZM148.367 12.0556H149.477H157.777C159.686 11.9679 161.018 10.9597 161.24 9.33764C161.329 8.76775 161.329 8.24169 161.284 7.75947C161.284 7.58411 161.284 7.4526 161.284 7.27725C161.284 7.05805 161.284 6.79502 161.284 6.57583C161.284 6.09361 161.284 5.61139 161.284 5.12917C161.24 3.3318 160.13 2.10433 158.443 1.79746C157.955 1.70979 157.422 1.66595 156.801 1.66595C156.357 1.66595 155.957 1.66595 155.558 1.70979C155.158 1.70979 154.803 1.75362 154.448 1.75362H149.477H148.367V2.84958V10.9597V12.0556ZM147.39 0.438477C147.035 0.438477 146.724 0.526153 146.68 0.876859C146.636 1.57827 146.68 2.27968 146.68 2.9811C146.68 4.42776 146.68 5.87442 146.68 7.32108C146.68 10.4774 146.68 13.59 146.68 16.7463C146.68 17.4477 146.636 18.193 146.68 18.8944C146.724 19.2013 146.813 19.2889 147.124 19.3328C147.39 19.3766 147.701 19.3766 148.012 19.3766C148.367 19.3766 148.677 19.3766 148.988 19.3328C149.343 19.2889 149.432 19.1574 149.477 18.8505C149.521 18.2807 149.477 17.7108 149.477 17.1409C149.477 15.9134 149.477 14.6421 149.477 13.4146C149.787 13.4146 150.054 13.4146 150.364 13.4146C152.007 13.4146 153.649 13.4584 155.292 13.4584C156.224 13.4584 157.156 13.4584 158.044 13.4146C159.997 13.3708 161.995 12.6694 162.66 10.6966C162.971 9.77603 162.971 8.85542 162.971 7.89098C162.971 6.70735 163.06 5.47988 162.927 4.29624C162.705 2.23585 161.24 0.876859 159.198 0.569991C158.576 0.482314 157.955 0.482315 157.378 0.482315C157.2 0.482315 157.067 0.482315 156.89 0.482315C155.425 0.482315 153.916 0.482315 152.451 0.482315C150.986 0.482315 149.476 0.482315 148.012 0.482315C147.79 0.438476 147.612 0.438477 147.39 0.438477ZM149.432 10.9597V2.89342C151.075 2.89342 152.761 2.89342 154.404 2.89342C155.158 2.89342 156.002 2.84958 156.801 2.84958C157.289 2.84958 157.822 2.89342 158.266 2.93726C159.509 3.11261 160.175 3.98938 160.175 5.17301C160.175 5.87442 160.175 6.57583 160.175 7.32108C160.175 7.93482 160.219 8.59239 160.13 9.20613C159.908 10.4774 158.887 10.9597 157.689 11.0035C154.981 10.9597 152.229 10.9597 149.432 10.9597Z" fill="black"/>
</svg>
