<?xml version="1.0" encoding="iso-8859-1"?>
<?xml-stylesheet type="text/css" href="../css/fr-svg-include.css" ?>

<svg xmlns="http://www.w3.org/2000/svg" xmlns:xlink="http://www.w3.org/1999/xlink">

    <symbol id="phone-icon" viewBox="0 0 17 17" xmlns="http://www.w3.org/2000/svg">
        <path d="M15.8282 12.1254L13.6652 9.96237C12.8926 9.18984 11.5794 9.49888 11.2703 10.5031C11.0386 11.1984 10.2661 11.5847 9.57079 11.4302C8.02574 11.0439 5.93992 9.03533 5.55366 7.41303C5.3219 6.71773 5.78541 5.9452 6.48069 5.71348C7.48497 5.40447 7.79398 4.09117 7.02145 3.31865L4.85838 1.15558C4.24036 0.614808 3.31333 0.614808 2.77256 1.15558L1.30477 2.62337C-0.163032 4.16843 1.45927 8.26281 5.09014 11.8937C8.72101 15.5245 12.8154 17.2241 14.3604 15.6791L15.8282 14.2113C16.369 13.5932 16.369 12.6662 15.8282 12.1254Z"/>
    </symbol>

    <symbol id="download-icon" viewBox="0 0 15 19" xmlns="http://www.w3.org/2000/svg">
        <path d="M13.2468 7.6145C13.1743 7.44529 12.9809 7.32443 12.7875 7.32443H10.5394V0.507634C10.5394 0.24173 10.2977 0 10.0318 0H4.23024C3.94017 0 3.72261 0.217557 3.72261 0.507634V7.32443H1.47452C1.28113 7.32443 1.11192 7.44529 1.01523 7.6145C0.918538 7.78371 0.942711 8.00127 1.06358 8.14631L6.72007 15.3257C6.81676 15.4466 6.96179 15.5191 7.13101 15.5191C7.27604 15.5191 7.44526 15.4466 7.54195 15.3257L13.1984 8.14631C13.3193 8.00127 13.3435 7.78371 13.2468 7.6145ZM7.13101 14.1896L2.51396 8.33969H4.23024C4.52032 8.33969 4.73788 8.12214 4.73788 7.83206V1.01527H9.49996V7.83206C9.49996 8.12214 9.71752 8.33969 10.0076 8.33969H11.7481L7.13101 14.1896Z"/>
        <path d="M13.7303 17.9847H0.507634C0.24173 17.9847 0 18.2023 0 18.4924C0 18.7825 0.217557 19 0.507634 19H13.7303C14.0204 19 14.2379 18.7825 14.2379 18.4924C14.2379 18.2023 14.0204 17.9847 13.7303 17.9847Z"/>
    </symbol>

    <symbol id="arrow-btn-icon" viewBox="0 0 36 12" xmlns="http://www.w3.org/2000/svg">
        <path d="M35.5303 6.53033C35.8232 6.23744 35.8232 5.76256 35.5303 5.46967L30.7574 0.696699C30.4645 0.403806 29.9896 0.403806 29.6967 0.696699C29.4038 0.989593 29.4038 1.46447 29.6967 1.75736L33.9393 6L29.6967 10.2426C29.4038 10.5355 29.4038 11.0104 29.6967 11.3033C29.9896 11.5962 30.4645 11.5962 30.7574 11.3033L35.5303 6.53033ZM0 6.75H35V5.25H0V6.75Z"/>
    </symbol>

    <symbol id="arrow-prev-icon" viewBox="0 0 31 16" xmlns="http://www.w3.org/2000/svg">
        <path d="M0.292891 7.29289C-0.0976334 7.68342 -0.0976334 8.31658 0.292891 8.70711L6.65685 15.0711C7.04738 15.4616 7.68054 15.4616 8.07107 15.0711C8.46159 14.6805 8.46159 14.0474 8.07107 13.6569L2.41421 8L8.07107 2.34315C8.46159 1.95262 8.46159 1.31946 8.07107 0.928932C7.68054 0.538408 7.04738 0.538408 6.65685 0.928932L0.292891 7.29289ZM31 7L0.999998 7V9L31 9V7Z"/>
    </symbol>

    <symbol id="arrow-next-icon" viewBox="0 0 31 16" xmlns="http://www.w3.org/2000/svg">
        <path d="M30.7071 8.70711C31.0976 8.31658 31.0976 7.68342 30.7071 7.29289L24.3431 0.928932C23.9526 0.538408 23.3195 0.538408 22.9289 0.928932C22.5384 1.31946 22.5384 1.95262 22.9289 2.34315L28.5858 8L22.9289 13.6569C22.5384 14.0474 22.5384 14.6805 22.9289 15.0711C23.3195 15.4616 23.9526 15.4616 24.3431 15.0711L30.7071 8.70711ZM0 9H30V7H0V9Z"/>
    </symbol>

    <symbol id="arrow-prev-icon-mobile" width="11" height="20" viewBox="0 0 11 20" xmlns="http://www.w3.org/2000/svg">
        <path d="M0.26667 10.5488L9.50188 19.784C9.80762 20.0792 10.2948 20.0708 10.5901 19.765C10.8781 19.4668 10.8781 18.994 10.5901 18.6958L1.89898 10.0047L10.5901 1.31355C10.8905 1.01305 10.8905 0.525856 10.5901 0.225349C10.2895 -0.0751095 9.80239 -0.0751095 9.50188 0.225349L0.26667 9.46056C-0.0337896 9.76111 -0.0337896 10.2483 0.26667 10.5488Z"/>
    </symbol>

    <symbol id="arrow-next-icon-mobile" width="12" height="20" viewBox="0 0 12 20" xmlns="http://www.w3.org/2000/svg">
        <path d="M11.1618 9.45124L1.92659 0.216026C1.62085 -0.0792478 1.13366 -0.0707702 0.838382 0.234966C0.550323 0.533216 0.550323 1.00602 0.838382 1.30423L9.52949 9.99534L0.838382 18.6864C0.537922 18.9869 0.537922 19.4741 0.838382 19.7747C1.13893 20.0751 1.62608 20.0751 1.92659 19.7747L11.1618 10.5394C11.4623 10.2389 11.4623 9.75174 11.1618 9.45124Z"/>
    </symbol>

    <symbol id="location-icon" viewBox="0 0 8 10" xmlns="http://www.w3.org/2000/svg">
        <path d="M6.96043 1.71245C6.35353 0.665107 5.27557 0.0252441 4.07683 0.000791016C4.02566 -0.000263672 3.97416 -0.000263672 3.92297 0.000791016C2.72426 0.0252441 1.64629 0.665107 1.03937 1.71245C0.419022 2.783 0.402049 4.06893 0.993963 5.15235L3.47371 9.69116C3.47482 9.69317 3.47594 9.69518 3.47709 9.69718C3.58619 9.88681 3.78164 10 3.99994 10C4.21822 10 4.41367 9.88679 4.52275 9.69718C4.5239 9.69518 4.52502 9.69317 4.52613 9.69116L7.00588 5.15235C7.59775 4.06893 7.58078 2.783 6.96043 1.71245ZM3.9999 4.53126C3.22449 4.53126 2.59365 3.90042 2.59365 3.12501C2.59365 2.3496 3.22449 1.71876 3.9999 1.71876C4.77531 1.71876 5.40615 2.3496 5.40615 3.12501C5.40615 3.90042 4.77533 4.53126 3.9999 4.53126Z"/>
    </symbol>

    <symbol id="gem-icon" viewBox="0 0 20 24" xmlns="http://www.w3.org/2000/svg">
        <path d="M19.8613 17.683V6.33625C19.8613 6.00869 19.578 5.85231 19.5778 5.85215C19.5778 5.85215 10.2819 0.592921 10.2819 0.592921L10.2818 0.592866C10.1189 0.500831 9.92044 0.500553 9.75619 0.590035C9.74664 0.595253 9.73709 0.600526 9.72765 0.605855H9.7276L0.422649 5.85209C0.422371 5.85226 0.13916 6.01102 0.13916 6.33619V17.683C0.13916 17.9845 0.417376 18.1641 0.41893 18.165C0.419818 18.1655 9.7276 23.4134 9.7276 23.4134C9.7276 23.4134 9.72765 23.4134 9.72771 23.4134C9.89935 23.498 10.1011 23.498 10.2728 23.4134L10.2729 23.4134L19.5789 18.1665C19.5797 18.1661 19.8613 18.0248 19.8613 17.683ZM10.0002 18.3771L4.65444 15.363V8.65623L10.0002 5.64221L15.5558 8.77452C15.5565 8.77491 15.5579 8.77574 15.56 8.77707C15.7277 8.87888 15.9378 8.87816 16.1062 8.77768C16.1063 8.77763 16.1063 8.77757 16.1063 8.77757L18.751 7.28647V16.7328L16.3888 15.401V13.2322C16.3888 12.9365 16.1657 12.6784 15.8707 12.6593C15.5474 12.6383 15.2786 12.8944 15.2786 13.2131V15.4009L10.0002 18.3771ZM3.54425 8.58046V15.4389L1.2493 16.7329V7.28647L3.54425 8.58046ZM15.8337 7.65677L10.5553 4.68072V2.03967L18.1759 6.33625L15.8337 7.65677ZM9.44505 2.03967V4.68072L4.16657 7.65683L1.82444 6.3363L9.44505 2.03967ZM4.16657 16.3625L9.44505 19.3386V21.9796L1.82444 17.6831L4.16657 16.3625ZM10.5553 21.9796V19.3386L15.8337 16.3625L18.1759 17.683L10.5553 21.9796Z"/>
    </symbol>

    <symbol id="spreading-icon" viewBox="0 0 48 48" xmlns="http://www.w3.org/2000/svg">
        <path d="M36.6316 24.0984C36.6435 18.1044 32.4486 12.9243 26.5831 11.6892C20.7179 10.4545 14.7903 13.5033 12.384 18.993C9.97783 24.4831 11.7526 30.908 16.636 34.3843C21.5189 37.8603 28.1709 37.4343 32.5708 33.3639C35.1582 30.9774 36.6304 27.6183 36.6316 24.0984ZM12.9885 23.3089C13.1735 20.7535 14.2432 18.3427 16.013 16.4904C16.5843 16.9607 17.1965 17.379 17.8422 17.7409C17.2786 19.5454 16.9671 21.4192 16.917 23.3089H12.9885ZM35.0148 24.8879C34.8298 27.4432 33.7601 29.8541 31.9903 31.7067C31.4202 31.2364 30.8095 30.8182 30.165 30.4562C30.7267 28.6514 31.0354 26.7775 31.0832 24.8879H35.0148ZM28.7179 29.7504C27.4643 29.2485 26.1378 28.952 24.7894 28.8722V24.8879H29.5058C29.4522 26.5358 29.1863 28.1703 28.7148 29.7504H28.7179ZM24.7894 30.4512C25.9532 30.5329 27.0962 30.7993 28.1755 31.2407C27.319 33.2302 26.1232 34.6199 24.7894 35.0223V30.4512ZM24.7894 23.3089V19.3245C26.1367 19.2443 27.462 18.9479 28.7148 18.4468C29.1859 20.0269 29.4511 21.6609 29.5043 23.3089H24.7894ZM23.2104 17.7456C22.047 17.6638 20.9041 17.3975 19.8247 16.9561C20.6813 14.9666 21.877 13.5773 23.2104 13.1745V17.7456ZM24.7894 17.7456V13.1775C26.124 13.5804 27.3159 14.9697 28.1755 16.9592C27.0958 17.3994 25.9528 17.665 24.7894 17.7456ZM28.2222 13.8907C29.1535 14.2762 30.0266 14.7889 30.8173 15.4141C30.4302 15.7194 30.0224 15.9981 29.5976 16.2479C29.2356 15.4095 28.7738 14.6181 28.2222 13.8907ZM18.4026 16.2479C17.9775 15.9978 17.5696 15.7194 17.1822 15.4141C17.9732 14.7889 18.8471 14.2758 19.7788 13.8899C19.2268 14.6177 18.765 15.4095 18.4026 16.2479ZM19.2854 18.4468C20.5382 18.9479 21.8636 19.2443 23.2104 19.3245V23.3089H18.4944C18.548 21.6609 18.814 20.0269 19.2854 18.4468ZM23.2104 24.8879V28.8722C21.8636 28.9524 20.5382 29.2489 19.2854 29.7504C18.8143 28.1703 18.5491 26.5358 18.4959 24.8879H23.2104ZM23.2104 30.4512V35.0192C21.8763 34.6168 20.6843 33.2271 19.8247 31.2376C20.9045 30.7974 22.0474 30.5318 23.2104 30.4512ZM19.7781 34.3065C18.8467 33.9206 17.9736 33.4079 17.183 32.7826C17.57 32.4773 17.9775 32.199 18.4026 31.9492C18.7646 32.7872 19.2264 33.5787 19.7781 34.3065ZM29.5976 31.9492C30.0228 32.199 30.4306 32.4777 30.818 32.7826C30.027 33.4083 29.1531 33.9214 28.2214 34.3072C28.7734 33.5794 29.2352 32.7876 29.5976 31.9492ZM35.0117 23.3089H31.0832C31.0343 21.4192 30.7244 19.5454 30.1619 17.7409C30.8061 17.379 31.4171 16.9603 31.9872 16.4904C33.7574 18.3423 34.8271 20.7535 35.0117 23.3089ZM12.9854 24.8879H16.9139C16.9648 26.7779 17.2774 28.6517 17.8422 30.4562C17.198 30.8182 16.587 31.2364 16.0169 31.7067C14.2452 29.8552 13.1743 27.444 12.9885 24.8879H12.9854Z"/>
        <path d="M47.6842 24.0984C47.6807 22.5703 46.5836 21.2639 45.079 20.9967C44.5725 17.5139 43.2029 14.2129 41.0946 11.395C41.9816 10.1433 41.8352 8.43371 40.7481 7.35126C39.6479 6.30505 37.9691 6.16204 36.7082 7.00779C33.8891 4.89764 30.5867 3.52646 27.1019 3.01955C26.8378 1.51307 25.5295 0.414429 23.9998 0.414429C22.4706 0.414429 21.1623 1.51307 20.8982 3.01955C17.4126 3.52608 14.1094 4.89725 11.2896 7.00779C10.0286 6.16204 8.34985 6.30505 7.24967 7.35126C6.16221 8.43371 6.01573 10.1433 6.90312 11.395C4.79566 14.2133 3.4268 17.5139 2.92104 20.9967C1.41456 21.2608 0.315918 22.5691 0.315918 24.0984C0.315918 25.6276 1.41456 26.9359 2.92104 27.2004C3.42757 30.6829 4.7972 33.9838 6.90543 36.8021C6.01804 38.0541 6.1626 39.7641 7.24813 40.8497C8.33366 41.9348 10.0433 42.0798 11.2957 41.192C14.114 43.3006 17.415 44.6706 20.8982 45.1775C21.1623 46.6836 22.4706 47.7827 23.9998 47.7827C25.5295 47.7827 26.8378 46.6836 27.1019 45.1775C30.5847 44.671 33.8853 43.301 36.7036 41.1931C37.956 42.0805 39.6656 41.9356 40.7512 40.8504C41.8363 39.7649 41.9813 38.0553 41.0939 36.8028C43.2025 33.9845 44.5725 30.6832 45.079 27.2004C46.5836 26.9328 47.6807 25.6264 47.6842 24.0984ZM46.1052 24.0984C46.1052 24.9703 45.3986 25.6773 44.5262 25.6773C43.6543 25.6773 42.9473 24.9703 42.9473 24.0984C42.9473 23.2264 43.6543 22.5194 44.5262 22.5194C45.3986 22.5194 46.1052 23.2264 46.1052 24.0984ZM38.5146 8.00505C39.1533 8.00466 39.7292 8.38938 39.9736 8.97917C40.218 9.56935 40.0831 10.2486 39.6317 10.7004C39.0072 11.2967 38.0235 11.2967 37.399 10.7004C36.9476 10.2486 36.8127 9.56974 37.0571 8.97956C37.3011 8.38976 37.877 8.00505 38.5154 8.00505H38.5146ZM23.9998 1.993C24.8722 1.993 25.5788 2.69998 25.5788 3.57195C25.5788 4.44392 24.8722 5.1509 23.9998 5.1509C23.1279 5.1509 22.4209 4.44392 22.4209 3.57195C22.4209 2.69998 23.1279 1.993 23.9998 1.993ZM8.36835 8.46686C8.76463 8.05632 9.35173 7.89172 9.90375 8.03627C10.4561 8.18083 10.8871 8.6118 11.0317 9.16382C11.1762 9.71584 11.0116 10.3029 10.6011 10.6996C9.9766 11.2959 8.99284 11.2959 8.36835 10.6996C7.75196 10.0828 7.75196 9.08326 8.36835 8.46686ZM1.89449 24.0984C1.89449 23.2264 2.60147 22.5194 3.47344 22.5194C4.3458 22.5194 5.05239 23.2264 5.05239 24.0984C5.05239 24.9703 4.3458 25.6773 3.47344 25.6773C2.60147 25.6773 1.89449 24.9703 1.89449 24.0984ZM8.36835 39.7302C7.75157 39.1134 7.75157 38.1135 8.36797 37.4971C8.98475 36.8803 9.9847 36.8803 10.6011 37.4971C11.2179 38.1135 11.2179 39.1134 10.6011 39.7302C9.9766 40.327 8.99284 40.327 8.36835 39.7302ZM23.9998 46.2037C23.1279 46.2037 22.4209 45.4967 22.4209 44.6248C22.4209 43.7528 23.1279 43.0458 23.9998 43.0458C24.8722 43.0458 25.5788 43.7528 25.5788 44.6248C25.5788 45.4967 24.8722 46.2037 23.9998 46.2037ZM23.9998 41.4668C22.6557 41.4707 21.4618 42.3265 21.027 43.5986C17.8714 43.1237 14.8804 41.8828 12.3157 39.9843C12.914 38.7792 12.6719 37.3267 11.7159 36.3803C10.7518 35.4644 9.3259 35.2312 8.12048 35.7921C6.21849 33.2251 4.9753 30.2311 4.49999 27.0716C5.77518 26.641 6.63405 25.4445 6.63405 24.0984C6.63405 22.7522 5.77518 21.5561 4.49999 21.1251C4.97453 17.9699 6.21579 14.9789 8.11432 12.4142C9.31973 13.0075 10.7692 12.7677 11.7194 11.8179C12.6696 10.8677 12.9094 9.41824 12.3157 8.21244C14.8804 6.31392 17.8714 5.07304 21.027 4.5985C21.4576 5.87369 22.6537 6.73217 23.9998 6.73217C25.3463 6.73217 26.5425 5.87369 26.9731 4.5985C30.1287 5.07304 33.1197 6.31392 35.6843 8.21244C35.0907 9.41824 35.3305 10.8677 36.2807 11.8179C37.2309 12.7677 38.6803 13.0075 39.8858 12.4142C41.7843 14.9789 43.0255 17.9699 43.5001 21.1251C42.2249 21.5561 41.366 22.7522 41.366 24.0984C41.366 25.4445 42.2249 26.641 43.5001 27.0716C43.0236 30.2314 41.7785 33.2259 39.875 35.7921C38.6692 35.2312 37.2432 35.4644 36.2795 36.3803C35.3231 37.3267 35.0814 38.7792 35.6797 39.9843C33.1162 41.882 30.1272 43.1229 26.9731 43.5986C26.5383 42.3265 25.3444 41.4707 23.9998 41.4668ZM39.6317 39.7302C39.0072 40.327 38.0235 40.327 37.399 39.7302C36.7822 39.1134 36.7822 38.1135 37.399 37.4971C38.0154 36.8803 39.0153 36.8803 39.6317 37.4971C40.2485 38.1135 40.2485 39.1134 39.6317 39.7302Z"/>
    </symbol>

    <symbol id="energy-icon" viewBox="0 0 30 30" xmlns="http://www.w3.org/2000/svg">
        <path d="M14.9997 5.23041C9.61248 5.23041 5.22998 9.61291 5.22998 15.0001C5.22998 20.3874 9.61248 24.7699 14.9997 24.7699C20.3869 24.7699 24.7695 20.3874 24.7695 15.0001C24.7695 9.61291 20.3869 5.23041 14.9997 5.23041ZM14.9997 23.8817C10.1026 23.8817 6.11814 19.8972 6.11814 15.0001C6.11814 10.1031 10.1026 6.11857 14.9997 6.11857C19.8968 6.11857 23.8813 10.1031 23.8813 15.0001C23.8813 19.8972 19.8968 23.8817 14.9997 23.8817Z"/>
        <path d="M14.9997 4.78633C15.1175 4.78633 15.2305 4.73955 15.3138 4.65627C15.397 4.57299 15.4438 4.46003 15.4438 4.34226V1.67778C15.4438 1.56001 15.397 1.44705 15.3138 1.36377C15.2305 1.28049 15.1175 1.2337 14.9997 1.2337C14.882 1.2337 14.769 1.28049 14.6857 1.36377C14.6025 1.44705 14.5557 1.56001 14.5557 1.67778V4.34226C14.5557 4.46003 14.6025 4.57299 14.6857 4.65627C14.769 4.73955 14.882 4.78633 14.9997 4.78633Z"/>
        <path d="M14.9997 25.214C14.882 25.214 14.769 25.2608 14.6857 25.3441C14.6025 25.4273 14.5557 25.5403 14.5557 25.6581V26.5462C14.5557 26.664 14.6025 26.777 14.6857 26.8602C14.769 26.9435 14.882 26.9903 14.9997 26.9903C15.1175 26.9903 15.2305 26.9435 15.3138 26.8602C15.397 26.777 15.4438 26.664 15.4438 26.5462V25.6581C15.4438 25.5403 15.397 25.4273 15.3138 25.3441C15.2305 25.2608 15.1175 25.214 14.9997 25.214Z"/>
        <path d="M28.3224 14.5561H25.6579C25.5402 14.5561 25.4272 14.6029 25.3439 14.6862C25.2607 14.7694 25.2139 14.8824 25.2139 15.0002C25.2139 15.1179 25.2607 15.2309 25.3439 15.3142C25.4272 15.3975 25.5402 15.4442 25.6579 15.4442H28.3224C28.4402 15.4442 28.5532 15.3975 28.6364 15.3142C28.7197 15.2309 28.7665 15.1179 28.7665 15.0002C28.7665 14.8824 28.7197 14.7694 28.6364 14.6862C28.5532 14.6029 28.4402 14.5561 28.3224 14.5561Z"/>
        <path d="M4.39746 14.5561H1.67748C1.5597 14.5561 1.44675 14.6029 1.36347 14.6862C1.28019 14.7694 1.2334 14.8824 1.2334 15.0002C1.2334 15.1179 1.28019 15.2309 1.36347 15.3142C1.44675 15.3975 1.5597 15.4442 1.67748 15.4442H4.39746C4.51524 15.4442 4.62819 15.3975 4.71147 15.3142C4.79475 15.2309 4.84154 15.1179 4.84154 15.0002C4.84154 14.8824 4.79475 14.7694 4.71147 14.6862C4.62819 14.6029 4.51524 14.5561 4.39746 14.5561Z"/>
        <path d="M14.9997 27.4344C14.882 27.4344 14.769 27.4812 14.6857 27.5645C14.6025 27.6477 14.5557 27.7607 14.5557 27.8785V28.3225C14.5557 28.4403 14.6025 28.5533 14.6857 28.6366C14.769 28.7198 14.882 28.7666 14.9997 28.7666C15.1175 28.7666 15.2305 28.7198 15.3138 28.6366C15.397 28.5533 15.4438 28.4403 15.4438 28.3225V27.8785C15.4438 27.7607 15.397 27.6477 15.3138 27.5645C15.2305 27.4812 15.1175 27.4344 14.9997 27.4344Z"/>
        <path d="M22.85 22.2224C22.8087 22.1811 22.7598 22.1484 22.7059 22.1261C22.652 22.1038 22.5943 22.0923 22.5359 22.0923C22.4776 22.0923 22.4199 22.1038 22.366 22.1261C22.3121 22.1484 22.2631 22.1811 22.2219 22.2224C22.1806 22.2636 22.1479 22.3126 22.1256 22.3665C22.1033 22.4203 22.0918 22.4781 22.0918 22.5364C22.0918 22.5947 22.1033 22.6525 22.1256 22.7064C22.1479 22.7603 22.1806 22.8092 22.2219 22.8505L24.106 24.7345C24.1472 24.7758 24.1962 24.8085 24.2501 24.8308C24.3039 24.8531 24.3617 24.8646 24.42 24.8646C24.4783 24.8646 24.5361 24.8531 24.59 24.8308C24.6438 24.8085 24.6928 24.7758 24.734 24.7345C24.7753 24.6933 24.808 24.6443 24.8303 24.5905C24.8526 24.5366 24.8641 24.4788 24.8641 24.4205C24.8641 24.3622 24.8526 24.3044 24.8303 24.2506C24.808 24.1967 24.7753 24.1477 24.734 24.1065L22.85 22.2224Z"/>
        <path d="M7.14965 7.77793C7.23295 7.86122 7.34591 7.90801 7.4637 7.90801C7.58149 7.90801 7.69446 7.86122 7.77775 7.77793C7.86104 7.69464 7.90783 7.58167 7.90783 7.46388C7.90783 7.34609 7.86104 7.23313 7.77775 7.14984L7.14971 6.52186C7.06643 6.43857 6.95347 6.39178 6.83569 6.39178C6.71791 6.39178 6.60496 6.43857 6.52167 6.52186C6.43839 6.60514 6.3916 6.71809 6.3916 6.83587C6.3916 6.95365 6.43839 7.06661 6.52167 7.14989L7.14965 7.77793Z"/>
        <path d="M7.14939 22.2224L5.26533 24.1065C5.18204 24.1898 5.13525 24.3027 5.13525 24.4205C5.13525 24.5383 5.18204 24.6512 5.26533 24.7345C5.34861 24.8178 5.46156 24.8646 5.57934 24.8646C5.69712 24.8646 5.81008 24.8178 5.89336 24.7345L7.77748 22.8505C7.81872 22.8092 7.85143 22.7603 7.87375 22.7064C7.89607 22.6525 7.90756 22.5947 7.90756 22.5364C7.90756 22.4781 7.89607 22.4203 7.87375 22.3665C7.85143 22.3126 7.81872 22.2636 7.77748 22.2224C7.73624 22.1811 7.68728 22.1484 7.63339 22.1261C7.57951 22.1038 7.52176 22.0923 7.46343 22.0923C7.40511 22.0923 7.34736 22.1038 7.29347 22.1261C7.23959 22.1484 7.19063 22.1811 7.14939 22.2224Z"/>
        <path d="M24.1062 5.26581L22.1828 7.18912C22.1416 7.23036 22.1089 7.27932 22.0865 7.33321C22.0642 7.38709 22.0527 7.44484 22.0527 7.50317C22.0527 7.56149 22.0642 7.61924 22.0865 7.67313C22.1089 7.72701 22.1416 7.77597 22.1828 7.81721C22.2241 7.85845 22.273 7.89117 22.3269 7.91349C22.3808 7.93581 22.4385 7.9473 22.4969 7.9473C22.5552 7.9473 22.6129 7.93581 22.6668 7.91349C22.7207 7.89117 22.7697 7.85845 22.8109 7.81721L24.7342 5.89385C24.7755 5.85261 24.8082 5.80366 24.8305 5.74978C24.8528 5.6959 24.8643 5.63815 24.8643 5.57983C24.8643 5.52151 24.8528 5.46377 24.8305 5.40989C24.8082 5.35601 24.7755 5.30705 24.7342 5.26581C24.693 5.22458 24.644 5.19186 24.5901 5.16955C24.5363 5.14723 24.4785 5.13574 24.4202 5.13574C24.3619 5.13574 24.3041 5.14723 24.2502 5.16955C24.1964 5.19186 24.1474 5.22458 24.1062 5.26581Z"/>
        <path d="M5.57934 6.20787C5.66263 6.29115 5.77558 6.33794 5.89336 6.33794C6.01114 6.33794 6.1241 6.29115 6.20738 6.20787C6.29067 6.12459 6.33745 6.01163 6.33745 5.89385C6.33745 5.77607 6.29067 5.66312 6.20738 5.57983L5.89336 5.26581C5.81008 5.18253 5.69712 5.13574 5.57934 5.13574C5.46156 5.13574 5.34861 5.18253 5.26533 5.26581C5.18204 5.3491 5.13525 5.46205 5.13525 5.57983C5.13525 5.69761 5.18204 5.81057 5.26533 5.89385L5.57934 6.20787Z"/>
        <path d="M18.0616 14.8014C18.0246 14.7276 17.9679 14.6656 17.8977 14.6223C17.8275 14.579 17.7466 14.556 17.6641 14.556H16.4207L16.7749 9.70335C16.7818 9.60763 16.7576 9.51222 16.7058 9.43142C16.654 9.35062 16.5775 9.28878 16.4876 9.25515C16.3977 9.22152 16.2993 9.21791 16.2072 9.24487C16.1151 9.27184 16.0342 9.32791 15.9766 9.40471L11.9799 14.7337C11.9304 14.7996 11.9003 14.8781 11.8929 14.9602C11.8855 15.0424 11.9011 15.1249 11.938 15.1987C11.9749 15.2725 12.0316 15.3345 12.1017 15.3779C12.1719 15.4212 12.2527 15.4442 12.3352 15.4442H13.6291L13.225 20.2924C13.2171 20.3884 13.2406 20.4843 13.292 20.5658C13.3434 20.6472 13.4199 20.7097 13.5099 20.7439C13.5999 20.7781 13.6986 20.7822 13.7911 20.7554C13.8836 20.7286 13.9649 20.6725 14.0227 20.5955L18.0194 15.2665C18.0689 15.2006 18.099 15.1221 18.1065 15.0399C18.1139 14.9578 18.0984 14.8752 18.0616 14.8014ZM14.2381 18.8281L14.5539 15.0367C14.5591 14.9755 14.5515 14.9139 14.5316 14.8558C14.5117 14.7977 14.48 14.7443 14.4384 14.6991C14.3968 14.6539 14.3462 14.6179 14.29 14.5932C14.2337 14.5686 14.1729 14.5559 14.1115 14.556H13.2233L15.779 11.1488L15.5004 14.9679C15.4959 15.0288 15.5041 15.0899 15.5244 15.1475C15.5446 15.2051 15.5765 15.2578 15.6181 15.3025C15.6597 15.3472 15.71 15.3829 15.766 15.4072C15.8219 15.4316 15.8823 15.4442 15.9433 15.4442H16.776L14.2381 18.8281Z"/>
    </symbol>

    <symbol id="house-icon" viewBox="0 0 30 26" xmlns="http://www.w3.org/2000/svg">
        <path d="M15.274 5.29136C15.1158 5.14926 14.8758 5.14926 14.7176 5.29136L4.00475 14.9198C3.30022 15.4411 2.62577 15.4048 1.98136 14.8109C1.45873 14.1064 1.49504 13.4321 2.09027 12.7877L14.0387 2.05875C14.5844 1.56865 15.4074 1.56859 15.9531 2.05875L20.5626 6.19801C20.7337 6.35177 20.9969 6.33761 21.1507 6.16659C21.3043 5.99556 21.2903 5.73222 21.1192 5.57852L16.5095 1.43909C15.6466 0.663949 14.3451 0.663949 13.4822 1.43903L1.53395 12.168C0.613986 12.9935 0.535273 14.4479 1.3617 15.3674C2.18664 16.2865 3.64222 16.3643 4.56113 15.5395L5.69325 14.5229V24.726C5.69325 24.956 5.87965 25.1425 6.10968 25.1425H10.3295C10.5596 25.1425 10.746 24.956 10.746 24.726C10.746 24.4961 10.5596 24.3096 10.3295 24.3096H6.52612V13.7751L14.9958 6.16975L23.4655 13.7751V24.3097H16.06V21.2845C17.4481 21.5604 18.9884 20.8022 19.814 19.9573C20.6446 19.1073 21.1507 17.9517 21.2392 16.7034C21.2639 16.3551 21.1325 16.1362 21.018 16.0139C20.7385 15.7156 20.287 15.684 19.9677 15.6848C18.367 15.6853 16.6235 16.5494 15.7628 17.926C14.9073 15.8081 12.4494 14.4792 10.238 14.4786C9.5413 14.4742 8.68917 14.7404 8.7529 15.6403C8.86175 17.1762 9.48402 18.5975 10.505 19.6424C11.5326 20.694 13.2191 21.5882 15.2271 21.225V24.3097H12.144C11.914 24.3097 11.7276 24.4961 11.7276 24.7261C11.7276 24.9561 11.914 25.1425 12.144 25.1425H23.8819C24.112 25.1425 24.2984 24.9561 24.2984 24.7261V14.523L25.4303 15.5394C26.337 16.3544 27.8176 16.2866 28.6297 15.3676C29.5247 14.3548 29.3211 12.7968 28.4577 12.168L22.9341 7.20801C22.7629 7.0543 22.4996 7.06857 22.346 7.23965C22.1924 7.41073 22.2065 7.67407 22.3776 7.82772L27.9014 12.7878C28.4966 13.4322 28.5328 14.1066 28.01 14.8111C27.4748 15.4075 26.567 15.4412 25.9869 14.9198L15.274 5.29136ZM16.6752 18.0749C17.4266 17.1289 18.7195 16.5177 19.9691 16.5177C20.0613 16.5172 20.4175 16.5192 20.4085 16.6445C20.2517 18.856 18.6359 20.4814 16.5665 20.5092C16.2004 20.5144 16.1642 20.436 16.123 20.2588C15.9437 19.487 16.1862 18.6904 16.6752 18.0749ZM15.1458 20.1156C15.077 20.4116 14.9665 20.5155 14.4886 20.5092C11.8464 20.4736 9.78355 18.4012 9.58371 15.5814C9.56251 15.2834 10.0538 15.3148 10.2368 15.3115C11.8293 15.3115 13.4775 16.091 14.4358 17.2975C15.0675 18.0927 15.3772 19.1191 15.1458 20.1156Z"/>
    </symbol>
    
    <symbol id="projects-list-prev" viewBox="0 0 19 35" xmlns="http://www.w3.org/2000/svg">
        <path d="M0.466429 18.4603L16.628 34.622C17.1631 35.1387 18.0157 35.1238 18.5324 34.5888C19.0365 34.0669 19.0365 33.2395 18.5324 32.7176L3.32296 17.5082L18.5324 2.29873C19.0582 1.77284 19.0582 0.92025 18.5324 0.394367C18.0064 -0.131439 17.1539 -0.131439 16.628 0.394367L0.466429 16.556C-0.0593758 17.0819 -0.0593758 17.9345 0.466429 18.4603Z"/>
    </symbol>

    <symbol id="projects-list-next" viewBox="0 0 19 35" xmlns="http://www.w3.org/2000/svg">
        <path d="M18.5331 16.5397L2.37146 0.378046C1.83643 -0.138684 0.983837 -0.123848 0.467108 0.41119C-0.0369959 0.933128 -0.0369959 1.76054 0.467108 2.2824L15.6765 17.4918L0.467108 32.7013C-0.0586973 33.2272 -0.0586973 34.0798 0.467108 34.6056C0.99307 35.1314 1.84558 35.1314 2.37146 34.6056L18.5331 18.444C19.0589 17.9181 19.0589 17.0655 18.5331 16.5397Z"/>
    </symbol>

    <symbol id="drawing-icon" viewBox="0 0 28 28" xmlns="http://www.w3.org/2000/svg">
        <path d="M24.5728 19.6518C24.4221 19.5894 24.2487 19.6239 24.1333 19.7392L19.7265 24.146C19.6112 24.2614 19.5767 24.4348 19.6391 24.5855C19.7015 24.7362 19.8486 24.8344 20.0117 24.8344H24.4185C24.6413 24.8344 24.8218 24.6539 24.8218 24.4312V20.0243C24.8217 19.8613 24.7235 19.7142 24.5728 19.6518ZM20.9851 24.028L24.0152 20.9979V24.028H20.9851Z"/>
        <path d="M27.4875 13.1882C27.3368 13.1257 27.1634 13.1603 27.048 13.2756L25.8403 14.4833V6.2717C25.8403 6.04895 25.6597 5.86844 25.4371 5.86844H22.3387L23.4634 4.74374C23.4636 4.74358 23.4637 4.74336 23.4639 4.7432L24.5476 3.65949C24.7798 3.42731 24.9077 3.11844 24.9077 2.79004C24.9077 2.46165 24.7798 2.15289 24.5476 1.9206L23.2944 0.667429C23.0622 0.435244 22.7534 0.307373 22.425 0.307373C22.0966 0.307373 21.7878 0.435244 21.5555 0.667429L20.4713 1.75168L19.1611 3.06183L16.3546 5.86839H3.8375V1.87906C3.8375 1.65632 3.65694 1.47581 3.43425 1.47581C1.68548 1.47592 0.262695 2.8986 0.262695 4.64747V21.7749C0.262695 21.8047 0.26613 21.8336 0.272247 21.8615C0.327945 22.6036 0.648991 23.2931 1.18553 23.8165C1.75905 24.3758 2.51613 24.6839 3.31738 24.6839H15.6397L13.3189 27.0046C13.2036 27.12 13.1691 27.2933 13.2315 27.4441C13.2939 27.5947 13.441 27.693 13.6041 27.693H27.3332C27.5559 27.693 27.7364 27.5125 27.7364 27.2897V13.5608C27.7364 13.3977 27.6381 13.2506 27.4875 13.1882ZM22.1259 1.23778C22.2908 1.07283 22.5594 1.07283 22.7242 1.23778L23.9774 2.491C24.1424 2.65589 24.1424 2.92435 23.9774 3.0893L23.1784 3.8884L21.3268 2.03688L22.1259 1.23778ZM20.7565 2.60717L22.608 4.45864L21.8681 5.19856L20.0167 3.34708L20.7565 2.60717ZM26.93 18.0919H26.186C25.9633 18.0919 25.7828 18.2724 25.7828 18.4951C25.7828 18.7179 25.9633 18.8984 26.186 18.8984H26.93V20.1136H26.186C25.9633 20.1136 25.7828 20.2941 25.7828 20.5168C25.7828 20.7396 25.9633 20.9201 26.186 20.9201H26.93V22.1352H26.186C25.9633 22.1352 25.7828 22.3157 25.7828 22.5385C25.7828 22.7612 25.9633 22.9417 26.186 22.9417H26.93V24.1569H26.186C25.9633 24.1569 25.7828 24.3374 25.7828 24.5601C25.7828 24.7829 25.9633 24.9634 26.186 24.9634H26.93V26.8867H14.5776L18.6508 22.8135C18.8083 22.656 18.8083 22.4007 18.6508 22.2432C18.6327 22.2251 18.6133 22.2095 18.5929 22.1955C18.4359 22.088 18.2199 22.1038 18.0804 22.2432L16.4462 23.8775H3.31743C2.09442 23.8775 1.10987 22.9227 1.07113 21.7018C1.07344 21.6252 1.0794 21.5492 1.08895 21.4741C1.089 21.4737 1.08905 21.4733 1.08911 21.4728C1.09361 21.4371 1.09903 21.4016 1.10521 21.3663C1.1059 21.3623 1.10665 21.3583 1.10735 21.3542C1.11299 21.3227 1.11932 21.2914 1.12624 21.2602C1.12817 21.2515 1.13021 21.2428 1.13225 21.2341C1.13837 21.2077 1.14497 21.1815 1.15205 21.1554C1.15591 21.1412 1.15994 21.1272 1.16407 21.1131C1.16997 21.0926 1.17609 21.0722 1.18258 21.0519C1.18908 21.0317 1.196 21.0117 1.20303 20.9917C1.20791 20.9777 1.21274 20.9636 1.218 20.9498C1.22782 20.9234 1.23823 20.8972 1.24896 20.8713C1.25202 20.8638 1.25502 20.8563 1.25819 20.8488C1.27198 20.8166 1.28631 20.7848 1.30144 20.7534C1.30208 20.752 1.30267 20.7507 1.30332 20.7493C1.61873 20.0966 2.22535 19.61 2.95335 19.459C2.95539 19.4586 2.95743 19.4581 2.95947 19.4576C2.99284 19.4508 3.02654 19.445 3.06046 19.4396C3.06609 19.4386 3.07172 19.4375 3.07747 19.4367C3.10811 19.432 3.13907 19.4283 3.17003 19.4249C3.17872 19.4239 3.18736 19.4225 3.19611 19.4217C3.226 19.4187 3.25615 19.4167 3.28631 19.4148C3.29586 19.4142 3.30541 19.4132 3.31496 19.4127C3.35446 19.4107 3.39427 19.4097 3.43425 19.4097C3.65694 19.4097 3.8375 19.2292 3.8375 19.0065V16.0826C3.8375 15.8599 3.65694 15.6794 3.43425 15.6794C3.21156 15.6794 3.031 15.8599 3.031 16.0826V18.6286C2.35006 18.7147 1.718 19.0184 1.21961 19.5051C1.16718 19.5563 1.11749 19.6096 1.06909 19.6636V4.64747C1.06909 3.48086 1.91831 2.50871 3.03094 2.31671V6.2717V14.4697V14.4697C3.03094 14.6924 3.21151 14.873 3.43419 14.873C3.65688 14.873 3.83745 14.6924 3.83745 14.4697V14.4697V6.67495H15.5481L13.3189 8.90418C13.1614 9.06173 13.1614 9.31699 13.3189 9.47448C13.4764 9.63192 13.7317 9.63192 13.8891 9.47448L16.8068 6.55684C16.8069 6.55674 16.8069 6.55663 16.807 6.55657L19.4463 3.91733L21.2977 5.76885L21.0805 5.98607C21.0803 5.98623 21.0801 5.98639 21.08 5.98655L12.949 14.1176L11.0975 12.2661L12.7002 10.6634C12.8577 10.5059 12.8577 10.2506 12.7002 10.0931C12.5428 9.93568 12.2874 9.93568 12.13 10.0931L10.2421 11.981C10.232 11.9911 10.2226 12.0017 10.2137 12.0127C10.2108 12.0163 10.2081 12.0203 10.2053 12.0241C10.1997 12.0316 10.1941 12.0392 10.1889 12.0472C10.1859 12.0518 10.1832 12.0565 10.1804 12.0613C10.176 12.0688 10.1717 12.0764 10.1678 12.0842C10.1652 12.0893 10.1629 12.0944 10.1605 12.0996C10.1569 12.1075 10.1536 12.1156 10.1506 12.1236C10.1495 12.1264 10.1481 12.1291 10.1471 12.132L9.36144 14.3575L8.82581 15.8749C8.81873 15.8951 8.81363 15.9156 8.80982 15.9363H7.46876C7.24607 15.9363 7.0655 16.1168 7.0655 16.3395C7.0655 16.5623 7.24607 16.7428 7.46876 16.7428H18.6361C18.8588 16.7428 19.0393 16.5623 19.0393 16.3395C19.0393 16.1168 18.8588 15.9363 18.6361 15.9363H10.624L13.0832 15.0682C13.0853 15.0674 13.0872 15.0664 13.0892 15.0657C13.0988 15.0621 13.1082 15.0581 13.1175 15.0539C13.1212 15.0522 13.1249 15.0506 13.1285 15.0488C13.1381 15.044 13.1476 15.0387 13.1569 15.033C13.16 15.0311 13.1631 15.0295 13.166 15.0276C13.1757 15.0214 13.1852 15.0146 13.1945 15.0074C13.1968 15.0056 13.1992 15.0041 13.2014 15.0022C13.2126 14.9932 13.2236 14.9835 13.2341 14.9731L21.5322 6.675H25.0338V15.2898L19.2656 21.0581C19.1081 21.2156 19.1081 21.4709 19.2656 21.6284C19.2754 21.6382 19.2856 21.6474 19.2962 21.6561C19.3701 21.7163 19.4605 21.7465 19.5507 21.7465C19.641 21.7465 19.7313 21.7163 19.8052 21.6561C19.8158 21.6475 19.826 21.6382 19.8359 21.6284C19.836 21.6282 19.8359 21.6284 19.836 21.6282L26.93 14.5342V18.0919ZM12.2115 14.5205L11.0564 14.9283L10.2868 14.1587L10.6946 13.0036L12.2115 14.5205Z"/>
    </symbol>

    <symbol id="building-icon" viewBox="0 0 28 28" xmlns="http://www.w3.org/2000/svg">
        <g clip-path="url(#clip0)">
            <path d="M27.3284 20.9785H24.6399V17.6445C24.6399 17.4192 24.4572 17.2365 24.2319 17.2365C24.0066 17.2365 23.8238 17.4192 23.8238 17.6445V26.8784H18.2489H16.8212V25.0588V23.8347V21.4886V20.2646V17.9186V16.6945V14.7565H23.8238V15.7402C23.8238 15.9656 24.0066 16.1483 24.2319 16.1483C24.4572 16.1483 24.6399 15.9656 24.6399 15.7402V14.3485C24.6399 14.1232 24.4572 13.9405 24.2319 13.9405H18.657V0.714179C18.657 0.488863 18.4743 0.306152 18.2489 0.306152H9.76258C9.53726 0.306152 9.35455 0.488863 9.35455 0.714179V6.81806H4.07655C3.85123 6.81806 3.66852 7.00077 3.66852 7.22608V17.2579H0.670722C0.445406 17.2579 0.262695 17.4407 0.262695 17.666V27.2864C0.262695 27.5117 0.445406 27.6944 0.670722 27.6944H4.07655H12.563C12.5634 27.6944 12.5637 27.6944 12.564 27.6944H16.4132H18.2489H24.2309C24.2312 27.6944 24.2316 27.6944 24.2319 27.6944H27.3284C27.5537 27.6944 27.7364 27.5117 27.7364 27.2864V21.3865C27.7364 21.1612 27.5537 20.9785 27.3284 20.9785ZM3.66852 26.8784H1.07875V18.074H3.66852V26.8784ZM12.155 26.8784H9.76258V26.8784H4.48457V24.6221H12.155V26.8784ZM12.155 21.0588H8.47765C8.25233 21.0588 8.06962 21.2415 8.06962 21.4668C8.06962 21.6921 8.25233 21.8748 8.47765 21.8748H12.155V23.806H4.48457V21.8748H6.57349C6.7988 21.8748 6.98151 21.6921 6.98151 21.4668C6.98151 21.2415 6.7988 21.0588 6.57349 21.0588H4.48457V19.1276H12.155V21.0588ZM12.155 18.3116H4.48457V17.666V16.3803H12.155V18.3116ZM12.155 15.5643H4.48457V13.6332H12.155V15.5643ZM12.155 12.8171H4.48457V10.8859H12.155V12.8171ZM12.155 10.0699H4.48457V7.63406H12.155V10.0699ZM16.0052 14.3486V16.6946V17.9187V20.2647V21.4887V23.8348V25.0589V26.8785H12.971V7.22603C12.971 7.00072 12.7884 6.818 12.563 6.818H12.0067V6.002C12.0067 5.77669 11.8241 5.59398 11.5987 5.59398C11.3733 5.59398 11.1907 5.77669 11.1907 6.002V6.818H10.1706V1.12221H17.8409V13.9406H16.4131C16.1878 13.9406 16.0052 14.1232 16.0052 14.3486ZM26.9203 26.8784H24.64V21.7945H26.9203V26.8784Z"/>
            <path d="M16.4129 9.14648C16.1875 9.14648 16.0049 9.3292 16.0049 9.55451V10.7785C16.0049 11.0039 16.1876 11.1866 16.4129 11.1866C16.6383 11.1866 16.8209 11.0039 16.8209 10.7785V9.55451C16.8209 9.3292 16.6383 9.14648 16.4129 9.14648Z"/>
            <path d="M14.0057 9.14648C13.7803 9.14648 13.5977 9.3292 13.5977 9.55451V10.7785C13.5977 11.0039 13.7804 11.1866 14.0057 11.1866C14.231 11.1866 14.4137 11.0039 14.4137 10.7785V9.55451C14.4137 9.3292 14.231 9.14648 14.0057 9.14648Z"/>
            <path d="M16.4129 5.59399C16.1875 5.59399 16.0049 5.77671 16.0049 6.00202V7.22605C16.0049 7.45137 16.1876 7.63408 16.4129 7.63408C16.6383 7.63408 16.8209 7.45137 16.8209 7.22605V6.00202C16.8209 5.77671 16.6383 5.59399 16.4129 5.59399Z"/>
            <path d="M14.0057 5.59399C13.7803 5.59399 13.5977 5.77671 13.5977 6.00202V7.22605C13.5977 7.45137 13.7804 7.63408 14.0057 7.63408C14.231 7.63408 14.4137 7.45137 14.4137 7.22605V6.00202C14.4137 5.77671 14.231 5.59399 14.0057 5.59399Z"/>
            <path d="M11.5985 2.0415C11.3731 2.0415 11.1904 2.22421 11.1904 2.44953V3.67356C11.1904 3.89887 11.3731 4.08159 11.5985 4.08159C11.8238 4.08159 12.0065 3.89887 12.0065 3.67356V2.44953C12.0065 2.22421 11.8239 2.0415 11.5985 2.0415Z"/>
            <path d="M16.4129 2.0415C16.1875 2.0415 16.0049 2.22421 16.0049 2.44953V3.67356C16.0049 3.89887 16.1876 4.08159 16.4129 4.08159C16.6383 4.08159 16.8209 3.89887 16.8209 3.67356V2.44953C16.8209 2.22421 16.6383 2.0415 16.4129 2.0415Z"/>
            <path d="M14.0057 2.0415C13.7803 2.0415 13.5977 2.22421 13.5977 2.44953V3.67356C13.5977 3.89887 13.7804 4.08159 14.0057 4.08159C14.231 4.08159 14.4137 3.89887 14.4137 3.67356V2.44953C14.4137 2.22421 14.231 2.0415 14.0057 2.0415Z"/>
            <path d="M16.1952 12.78C16.0301 12.8839 15.9606 13.1001 16.0365 13.2805C16.1017 13.4344 16.2551 13.5362 16.423 13.5321C16.5941 13.5279 16.7463 13.4147 16.8004 13.2524C16.9194 12.8956 16.5113 12.5812 16.1952 12.78Z"/>
            <path d="M14.0057 12.7166C13.7803 12.7166 13.5977 12.8993 13.5977 13.1246V14.3486C13.5977 14.574 13.7804 14.7566 14.0057 14.7566C14.231 14.7566 14.4137 14.5739 14.4137 14.3486V13.1246C14.4137 12.8992 14.231 12.7166 14.0057 12.7166Z"/>
            <path d="M14.0057 23.4268C13.7803 23.4268 13.5977 23.6095 13.5977 23.8348V25.0588C13.5977 25.2841 13.7804 25.4668 14.0057 25.4668C14.231 25.4668 14.4137 25.2841 14.4137 25.0588V23.8348C14.4137 23.6094 14.231 23.4268 14.0057 23.4268Z"/>
            <path d="M14.0057 19.8567C13.7803 19.8567 13.5977 20.0394 13.5977 20.2647V21.4887C13.5977 21.7141 13.7804 21.8968 14.0057 21.8968C14.231 21.8968 14.4137 21.7141 14.4137 21.4887V20.2647C14.4137 20.0394 14.231 19.8567 14.0057 19.8567Z"/>
            <path d="M14.0057 16.2866C13.7803 16.2866 13.5977 16.4693 13.5977 16.6946V17.9187C13.5977 18.144 13.7804 18.3267 14.0057 18.3267C14.231 18.3267 14.4137 18.144 14.4137 17.9187V16.6946C14.4137 16.4693 14.231 16.2866 14.0057 16.2866Z"/>
            <path d="M22.5793 23.3025H18.0653C17.8399 23.3025 17.6572 23.4852 17.6572 23.7105C17.6572 23.9358 17.8399 24.1185 18.0653 24.1185H22.5793C22.8046 24.1185 22.9873 23.9358 22.9873 23.7105C22.9873 23.4852 22.8047 23.3025 22.5793 23.3025Z"/>
            <path d="M22.5793 25.2312H18.0653C17.8399 25.2312 17.6572 25.4139 17.6572 25.6392C17.6572 25.8645 17.8399 26.0473 18.0653 26.0473H22.5793C22.8046 26.0473 22.9873 25.8645 22.9873 25.6392C22.9873 25.4139 22.8047 25.2312 22.5793 25.2312Z"/>
            <path d="M22.5793 21.3738H18.0653C17.8399 21.3738 17.6572 21.5565 17.6572 21.7818C17.6572 22.0071 17.8399 22.1898 18.0653 22.1898H22.5793C22.8046 22.1898 22.9873 22.0071 22.9873 21.7818C22.9873 21.5565 22.8047 21.3738 22.5793 21.3738Z"/>
            <path d="M22.5793 15.5876H18.0653C17.8399 15.5876 17.6572 15.7704 17.6572 15.9957C17.6572 16.221 17.8399 16.4037 18.0653 16.4037H22.5793C22.8046 16.4037 22.9873 16.221 22.9873 15.9957C22.9873 15.7704 22.8047 15.5876 22.5793 15.5876Z"/>
            <path d="M22.5793 19.4451H18.0653C17.8399 19.4451 17.6572 19.6278 17.6572 19.8531C17.6572 20.0784 17.8399 20.2611 18.0653 20.2611H22.5793C22.8046 20.2611 22.9873 20.0784 22.9873 19.8531C22.9873 19.6278 22.8047 19.4451 22.5793 19.4451Z"/>
            <path d="M22.5793 17.5164H18.0653C17.8399 17.5164 17.6572 17.6991 17.6572 17.9244C17.6572 18.1497 17.8399 18.3324 18.0653 18.3324H22.5793C22.8046 18.3324 22.9873 18.1497 22.9873 17.9244C22.9873 17.6991 22.8047 17.5164 22.5793 17.5164Z"/>
            <path d="M2.37385 18.7224C2.14848 18.7224 1.96582 18.9051 1.96582 19.1304V20.1912C1.96582 20.4166 2.14848 20.5993 2.37385 20.5993C2.59922 20.5993 2.78187 20.4166 2.78187 20.1912V19.1304C2.78187 18.9051 2.59916 18.7224 2.37385 18.7224Z"/>
            <path d="M2.37385 21.5378C2.14848 21.5378 1.96582 21.7206 1.96582 21.9459V23.0067C1.96582 23.232 2.14848 23.4147 2.37385 23.4147C2.59922 23.4147 2.78187 23.232 2.78187 23.0067V21.9459C2.78187 21.7205 2.59916 21.5378 2.37385 21.5378Z"/>
            <path d="M2.37385 24.353C2.14848 24.353 1.96582 24.5357 1.96582 24.7611V25.8219C1.96582 26.0472 2.14848 26.2299 2.37385 26.2299C2.59922 26.2299 2.78187 26.0472 2.78187 25.8219V24.7611C2.78187 24.5357 2.59916 24.353 2.37385 24.353Z"/>
            <path d="M25.7801 22.7737C25.5547 22.7737 25.3721 22.9564 25.3721 23.1817V24.3365C25.3721 24.5618 25.5547 24.7445 25.7801 24.7445C26.0055 24.7445 26.1881 24.5618 26.1881 24.3365V23.1817C26.1881 22.9564 26.0055 22.7737 25.7801 22.7737Z"/>
            <path d="M24.5839 8.16699H19.6063C19.3809 8.16699 19.1982 8.3497 19.1982 8.57502C19.1982 8.80034 19.3809 8.98305 19.6063 8.98305H24.5839C24.8093 8.98305 24.9919 8.80034 24.9919 8.57502C24.9919 8.3497 24.8093 8.16699 24.5839 8.16699Z"/>
            <path d="M26.1342 9.88062H22.5438C22.3184 9.88062 22.1357 10.0633 22.1357 10.2886C22.1357 10.514 22.3184 10.6967 22.5438 10.6967H26.1342C26.3596 10.6967 26.5423 10.514 26.5423 10.2886C26.5423 10.0633 26.3596 9.88062 26.1342 9.88062Z"/>
            <path d="M7.6108 3.35254H4.02033C3.79496 3.35254 3.6123 3.53525 3.6123 3.76057C3.6123 3.98588 3.79502 4.16859 4.02033 4.16859H7.6108C7.83617 4.16859 8.01883 3.98588 8.01883 3.76057C8.01883 3.53525 7.83622 3.35254 7.6108 3.35254Z"/>
            <path d="M5.57071 4.71265H1.98029C1.75492 4.71265 1.57227 4.89536 1.57227 5.12067C1.57227 5.34599 1.75498 5.5287 1.98029 5.5287H5.57076C5.79613 5.5287 5.97879 5.34599 5.97879 5.12067C5.97879 4.89536 5.79613 4.71265 5.57071 4.71265Z"/>
        </g>
    </symbol>

    <symbol id="play-video-icon" viewBox="0 0 12 12" xmlns="http://www.w3.org/2000/svg">
        <path d="M10.2227 4.44735C11.556 5.21715 11.556 7.14165 10.2227 7.91145L3.62031 11.7233C2.28697 12.4931 0.620307 11.5309 0.620307 9.99127V2.36753C0.620307 0.827929 2.28697 -0.134321 3.62031 0.635479L10.2227 4.44735Z"/>
    </symbol>

    <symbol id="dwelling-house-icon" viewBox="0 0 38 26" xmlns="http://www.w3.org/2000/svg">
        <path d="M3.4852 7.7771H2.375V8.8873H3.4852V7.7771Z"/>
        <path d="M5.33676 7.7771H4.22656V8.8873H5.33676V7.7771Z"/>
        <path d="M7.18593 7.7771H6.07617V8.8873H7.18593V7.7771Z"/>
        <path d="M29.7899 7.7771H28.6797V8.8873H29.7899V7.7771Z"/>
        <path d="M31.6395 7.7771H30.5293V8.8873H31.6395V7.7771Z"/>
        <path d="M33.4906 7.7771H32.3809V8.8873H33.4906V7.7771Z"/>
        <path d="M37.2042 21.9204V11.7453H36.094V21.9204H25.4485V10.8202H29.3755L19.0001 0.464783L8.62471 10.8201H12.5517V21.9203H1.90617V20.714H7.1856V19.6038H1.90617V11.7453H0.795974V21.9204H0.0527344V25.5355H37.9475V21.9204H37.2042ZM11.3086 9.70999L19.0001 2.03327L26.6916 9.70991H25.1229L19.0001 3.60272L12.8773 9.70999H11.3086ZM15.7703 13.1754V21.9204H13.6619V12.5833H15.0065V11.4731H13.6619V10.4954L19.0001 5.17076L24.3383 10.4954V21.9204H22.2228V13.1754H15.7703ZM16.8805 19.0054V17.2006H21.1126V19.0054H16.8805ZM21.1126 20.1156V21.9204H16.8805V20.1156H21.1126ZM16.8805 16.0904V14.2856H21.1126V16.0904H16.8805ZM36.8373 24.4254H5.36932V23.4319H4.25912V24.4254H1.16293V23.0306H30.6109V23.728H31.7211V23.0306H36.8373V24.4254Z"/>
        <path d="M15.793 2.78872V1.67853H0.0527344V10.82H7.74625V9.70977H1.16293V5.2188H8.94985V4.1086H1.16293V2.78872H15.793Z"/>
        <path d="M22.207 1.67853V2.78872H36.8371V9.70977H30.2538V10.82H37.9473V1.67853H22.207Z"/>
        <path d="M18.9967 7.44482C17.8182 7.44482 16.8594 8.40366 16.8594 9.58218V11.7195H21.1341V9.58218C21.1341 8.40366 20.1752 7.44482 18.9967 7.44482ZM20.0239 10.6094H17.9696V9.58225C17.9696 9.0159 18.4304 8.5551 18.9967 8.5551C19.5631 8.5551 20.0239 9.0159 20.0239 9.58225V10.6094Z"/>
        <path d="M3.50781 12.4514V18.3563H10.9508V12.4514H3.50781ZM6.67417 17.2461H4.61801V15.959H6.67417V17.2461ZM6.67417 14.8488H4.61801V13.5616H6.67417V14.8488ZM9.84052 17.2461H7.78437V15.9589H9.84052V17.2461ZM9.84052 14.8488H7.78437V13.5616H9.84052V14.8488Z"/>
        <path d="M27.0508 12.4514V18.3563H34.4938V12.4514H27.0508ZM30.2171 17.2461H28.161V15.959H30.2171V17.2461ZM30.2171 14.8488H28.161V13.5616H30.2171V14.8488ZM33.3835 17.2461H31.3273V15.9589H33.3835V17.2461ZM33.3835 14.8488H31.3273V13.5616H33.3835V14.8488Z"/>
        <path d="M33.5106 4.10883H32.4004V5.21902H33.5106V4.10883Z"/>
        <path d="M35.3602 4.10883H34.25V5.21902H35.3602V4.10883Z"/>
        <path d="M31.6602 4.10883H25.332V5.21902H31.6602V4.10883Z"/>
        <path d="M33.5106 19.6037H32.4004V20.7139H33.5106V19.6037Z"/>
        <path d="M35.3602 19.6037H34.25V20.7139H35.3602V19.6037Z"/>
        <path d="M31.6593 19.6037H26.4414V20.7139H31.6593V19.6037Z"/>
    </symbol>

    <symbol id="office-icon" viewBox="0 0 38 38" xmlns="http://www.w3.org/2000/svg">
        <path d="M8.93747 7.38848C8.93747 6.76722 8.43203 6.26178 7.81084 6.26178H5.42162C4.80036 6.26178 4.29492 6.76722 4.29492 7.38848V9.77778C4.29492 10.399 4.80043 10.9045 5.42162 10.9045H7.81092C8.43218 10.9045 8.93754 10.399 8.93754 9.77778V7.38848H8.93747ZM7.82742 9.7777C7.82742 9.78688 7.81995 9.79428 7.81084 9.79428H5.42162C5.41245 9.79428 5.40497 9.78681 5.40497 9.7777V7.38848C5.40497 7.37931 5.41245 7.3719 5.42162 7.3719H7.81092C7.82002 7.3719 7.82749 7.37938 7.82749 7.38848V9.7777H7.82742Z"/>
        <path d="M14.877 7.38848C14.877 6.76722 14.3716 6.26178 13.7504 6.26178H11.3611C10.7398 6.26178 10.2344 6.76722 10.2344 7.38848V9.77778C10.2344 10.399 10.7399 10.9045 11.3611 10.9045H13.7504C14.3716 10.9045 14.877 10.399 14.877 9.77778V7.38848ZM13.7669 9.7777C13.7669 9.78688 13.7595 9.79428 13.7504 9.79428H11.3611C11.3519 9.79428 11.3444 9.78681 11.3444 9.7777V7.38848C11.3444 7.37931 11.3519 7.3719 11.3611 7.3719H13.7504C13.7595 7.3719 13.7669 7.37938 13.7669 7.38848V9.7777Z"/>
        <path d="M8.93747 13.5276C8.93747 12.9063 8.43203 12.4009 7.81084 12.4009H5.42162C4.80036 12.4009 4.29492 12.9063 4.29492 13.5276V15.9169C4.29492 16.5381 4.80043 17.0436 5.42162 17.0436H7.81092C8.43218 17.0436 8.93754 16.5381 8.93754 15.9169V13.5276H8.93747ZM7.82742 15.9168C7.82742 15.926 7.81995 15.9334 7.81084 15.9334H5.42162C5.41245 15.9334 5.40497 15.9259 5.40497 15.9168V13.5276C5.40497 13.5184 5.41245 13.511 5.42162 13.511H7.81092C7.82002 13.511 7.82749 13.5185 7.82749 13.5276V15.9168H7.82742Z"/>
        <path d="M14.877 13.5276C14.877 12.9063 14.3716 12.4009 13.7504 12.4009H11.3611C10.7398 12.4009 10.2344 12.9063 10.2344 13.5276V15.9169C10.2344 16.5381 10.7399 17.0436 11.3611 17.0436H13.7504C14.3716 17.0436 14.877 16.5381 14.877 15.9169V13.5276ZM13.7669 15.9168C13.7669 15.926 13.7595 15.9334 13.7504 15.9334H11.3611C11.3519 15.9334 11.3444 15.9259 11.3444 15.9168V13.5276C11.3444 13.5184 11.3519 13.511 11.3611 13.511H13.7504C13.7595 13.511 13.7669 13.5185 13.7669 13.5276V15.9168Z"/>
        <path d="M7.81084 18.54H5.42162C4.80036 18.54 4.29492 19.0455 4.29492 19.6667V22.056C4.29492 22.6773 4.80043 23.1827 5.42162 23.1827H7.81092C8.43218 23.1827 8.93754 22.6773 8.93754 22.056V19.6667C8.93747 19.0455 8.43211 18.54 7.81084 18.54ZM7.82742 22.056C7.82742 22.0652 7.81995 22.0726 7.81084 22.0726H5.42162C5.41245 22.0726 5.40497 22.0651 5.40497 22.056V19.6667C5.40497 19.6576 5.41245 19.6502 5.42162 19.6502H7.81092C7.82002 19.6502 7.82749 19.6576 7.82749 19.6667V22.056H7.82742Z"/>
        <path d="M13.7504 18.54H11.3611C10.7398 18.54 10.2344 19.0455 10.2344 19.6667V22.056C10.2344 22.6773 10.7399 23.1827 11.3611 23.1827H13.7504C14.3716 23.1827 14.877 22.6773 14.877 22.056V19.6667C14.877 19.0455 14.3716 18.54 13.7504 18.54ZM13.7669 22.056C13.7669 22.0652 13.7595 22.0726 13.7504 22.0726H11.3611C11.3519 22.0726 11.3444 22.0651 11.3444 22.056V19.6667C11.3444 19.6576 11.3519 19.6502 11.3611 19.6502H13.7504C13.7595 19.6502 13.7669 19.6576 13.7669 19.6667V22.056Z"/>
        <path d="M36.1815 34.4179H35.3577V29.7276C35.3577 27.8591 34.1055 26.1866 32.3127 25.6602L28.951 24.6733C28.8563 24.5844 28.7471 24.5113 28.6277 24.4581L27.9297 24.1471C27.7323 24.0592 27.5218 24.02 27.3137 24.0266V22.4615C28.4183 21.6564 29.1878 20.4129 29.3546 18.9797C29.9017 18.8445 30.3087 18.3494 30.3087 17.761V16.2478V13.3436C30.3087 12.3237 29.4945 11.4905 28.4819 11.4596C28.4272 10.4689 27.6039 9.67962 26.5998 9.67962H22.0169C21.5947 9.67962 21.1894 9.75304 20.8124 9.88664C20.8159 9.85067 20.818 9.81433 20.818 9.77747V7.38833C20.818 6.76706 20.3125 6.26162 19.6913 6.26162H17.302C16.6808 6.26162 16.1753 6.76706 16.1753 7.38833V9.77762C16.1753 10.3989 16.6809 10.9043 17.302 10.9043H19.3079C18.9341 11.3273 18.6572 11.8376 18.5132 12.4009H17.302C16.6808 12.4009 16.1753 12.9064 16.1753 13.5276V15.9169C16.1753 16.5382 16.6809 17.0436 17.302 17.0436H18.401V17.7611C18.401 18.0552 18.5027 18.3261 18.6727 18.5403H17.302C16.6807 18.5403 16.1753 19.0457 16.1753 19.667V22.0562C16.1753 22.6775 16.6808 23.1829 17.302 23.1829H19.6913C20.3125 23.1829 20.8179 22.6774 20.8179 22.0562V21.9708C20.9979 22.1485 21.1912 22.3126 21.3959 22.4618V24.0237C21.1896 24.0188 20.9812 24.0585 20.7864 24.1459L20.1019 24.4533C19.9832 24.5065 19.8748 24.5795 19.7807 24.668L16.3989 25.6606C14.606 26.1868 13.3537 27.8594 13.3537 29.728V30.1049C13.3537 30.4114 13.6022 30.6599 13.9088 30.6599C14.2153 30.6599 14.4638 30.4114 14.4638 30.1049V29.728C14.4638 28.3488 15.3881 27.1142 16.7116 26.7257L19.4807 25.913C19.5375 26.07 19.6286 26.2171 19.754 26.3427L21.6502 28.2414C21.652 28.2432 21.6539 28.2451 21.6557 28.2469C21.8905 28.4754 22.1945 28.591 22.4996 28.5909C22.5708 28.5909 22.642 28.5844 22.7125 28.5717L23.1062 29.2479L22.1898 34.4179H17.9374V33.212C17.9374 32.9054 17.689 32.6569 17.3824 32.6569C17.0759 32.6569 16.8274 32.9055 16.8274 33.212V34.4179H14.464V32.6995C14.464 32.3929 14.2155 32.1445 13.909 32.1445C13.6024 32.1445 13.354 32.393 13.354 32.6995V34.4179H11.0439V27.9407H11.1136C11.4201 27.9407 11.6686 27.6922 11.6686 27.3857C11.6686 27.0792 11.4201 26.8307 11.1136 26.8307H4.43094C4.12437 26.8307 3.87591 27.0792 3.87591 27.3857C3.87591 27.6923 4.12437 27.9407 4.43094 27.9407H4.50066V34.4179H2.49053V5.3523C2.49053 4.89001 2.86667 4.51395 3.32888 4.51395H21.7843C22.2466 4.51395 22.6226 4.89001 22.6226 5.3523V7.60304C22.6226 7.9096 22.871 8.15806 23.1776 8.15806C23.4841 8.15806 23.7326 7.90953 23.7326 7.60304V5.3523C23.7326 4.3623 22.9903 3.54297 22.0331 3.42033V1.4182C22.0332 0.665267 21.4206 0.0527344 20.6676 0.0527344H4.44544C3.69251 0.0527344 3.08005 0.665267 3.08005 1.4182V3.42033C2.12284 3.54297 1.38048 4.3623 1.38048 5.3523V34.4731C0.619038 34.6688 0.0546875 35.361 0.0546875 36.1826C0.0546875 37.1557 0.846332 37.9475 1.81953 37.9475H36.1815C37.1547 37.9475 37.9464 37.1557 37.9464 36.1826C37.9464 35.2095 37.1547 34.4179 36.1815 34.4179ZM4.44544 1.16286H20.6676C20.8085 1.16286 20.9231 1.27743 20.9231 1.4182V3.40383H4.1901V1.4182C4.1901 1.27736 4.30467 1.16286 4.44544 1.16286ZM34.2477 29.7276V34.4179H31.8825V33.212C31.8825 32.9054 31.634 32.6569 31.3275 32.6569C31.0209 32.6569 30.7724 32.9055 30.7724 33.212V34.4179H26.5224L25.6045 29.2422L26.0036 28.527C26.0779 28.5411 26.1531 28.5488 26.2284 28.5488C26.5313 28.5488 26.8339 28.4346 27.0701 28.2077L28.967 26.3605C29.0974 26.2336 29.192 26.0814 29.2499 25.918L32.0002 26.7254C33.3234 27.1139 34.2477 28.3484 34.2477 29.7276ZM24.0073 28.5894L23.6578 27.9891L24.4021 27.3674L25.0637 27.9331L24.6975 28.5893L24.0073 28.5894ZM27.478 25.1611L28.1761 25.4722C28.2114 25.4879 28.2217 25.5365 28.1925 25.5651L26.2983 27.4097C26.261 27.4453 26.2035 27.447 26.1643 27.4136L25.2853 26.662L27.1768 25.1974C27.263 25.1306 27.3785 25.1168 27.478 25.1611ZM26.5999 10.7897C27.0271 10.7897 27.3747 11.1373 27.3747 11.5646C27.3747 12.1183 27.8252 12.5688 28.3789 12.5688H28.4237C28.851 12.5688 29.1985 12.9164 29.1985 13.3436V15.6927H28.8346C28.6304 15.6927 28.4643 15.5266 28.4643 15.3224V14.8159C28.4643 13.9304 27.7374 13.2824 26.9371 13.2824C26.7752 13.2824 26.6116 13.3085 26.4515 13.3613C25.1001 13.8081 23.6112 13.8082 22.2579 13.361C21.2656 13.0332 20.2454 13.7706 20.2454 14.8157V15.3224C20.2454 15.5266 20.0792 15.6927 19.875 15.6927H19.5111V13.2955C19.5111 11.9139 20.6352 10.7897 22.0169 10.7897H26.5999ZM17.2855 9.77754V7.38833C17.2855 7.37915 17.293 7.37175 17.3022 7.37175H19.6915C19.7006 7.37175 19.7081 7.37922 19.7081 7.38833V9.77762C19.7081 9.7868 19.7006 9.7942 19.6915 9.7942H17.3022C17.293 9.79412 17.2855 9.78672 17.2855 9.77754ZM17.2855 15.9168V13.5276C17.2855 13.5184 17.293 13.511 17.3022 13.511H18.4011V15.9334H17.3022C17.293 15.9334 17.2855 15.926 17.2855 15.9168ZM19.708 22.0561C19.708 22.0653 19.7005 22.0727 19.6914 22.0727H17.3021C17.2929 22.0727 17.2855 22.0653 17.2855 22.0561V19.6668C17.2855 19.6576 17.2929 19.6502 17.3021 19.6502H19.4803C19.5404 19.8835 19.6165 20.1102 19.7079 20.3289L19.708 22.0561ZM20.4393 18.6434C20.413 18.23 20.0691 17.9061 19.6564 17.9061C19.5764 17.9061 19.5113 17.841 19.5113 17.761V16.8028H19.8752C20.6915 16.8028 21.3556 16.1387 21.3556 15.3224V14.8157C21.3556 14.531 21.633 14.3237 21.9115 14.4157C23.4878 14.9365 25.224 14.9363 26.8 14.4154C27.0728 14.3253 27.3543 14.5276 27.3543 14.8159V15.3224C27.3543 16.1387 28.0184 16.8028 28.8347 16.8028H29.1986V17.761C29.1986 17.841 29.1335 17.9061 29.0535 17.9061C28.6407 17.9061 28.2968 18.2299 28.2706 18.6436C28.1407 20.7035 26.4208 22.3171 24.3549 22.3171C22.2891 22.3171 20.5692 20.7035 20.4393 18.6434ZM24.355 23.4272C25.0059 23.4272 25.6299 23.3017 26.2036 23.0741V24.5469L24.4003 25.9433L22.5062 24.528V23.0742C23.08 23.3017 23.704 23.4272 24.355 23.4272ZM20.5398 25.5581C20.5098 25.5281 20.5235 25.4807 20.5568 25.4658L21.2412 25.1585C21.3392 25.1147 21.4532 25.1271 21.5394 25.1914L23.5114 26.665L22.5636 27.4566C22.5248 27.489 22.4685 27.4874 22.4317 27.4531L20.5398 25.5581ZM24.1536 29.6994H24.5581L25.3949 34.4179H23.3173L24.1536 29.6994ZM5.61078 27.9407H9.93367V34.4179H5.61078V27.9407ZM36.1815 36.8373H1.81953C1.45849 36.8373 1.16481 36.5437 1.16481 36.1826C1.16481 35.8216 1.45849 35.528 1.81953 35.528H36.1815C36.5426 35.528 36.8363 35.8217 36.8363 36.1826C36.8363 36.5436 36.5425 36.8373 36.1815 36.8373Z"/>
    </symbol>

    <symbol id="culture-objects-icon" viewBox="0 0 38 36" xmlns="http://www.w3.org/2000/svg">
        <path d="M36.7629 33.9869H34.9866V32.2106C34.9866 32.0536 34.9242 31.903 34.8132 31.7919C34.7022 31.6809 34.5516 31.6185 34.3945 31.6185H33.2103V30.4343C33.2103 30.2773 33.1479 30.1267 33.0369 30.0156C32.9258 29.9046 32.7752 29.8422 32.6182 29.8422V14.4475C32.7752 14.4475 32.9258 14.3851 33.0369 14.274C33.1479 14.163 33.2103 14.0124 33.2103 13.8554V12.6711H35.5787C35.7358 12.6711 35.8864 12.6088 35.9974 12.4977C36.1085 12.3867 36.1708 12.2361 36.1708 12.079V9.71061C36.1708 9.55358 36.1085 9.40297 35.9974 9.29193C35.8864 9.18089 35.7358 9.11851 35.5787 9.11851H34.3945V7.34219C34.3945 7.22383 34.359 7.10819 34.2927 7.01018C34.2263 6.91217 34.1321 6.83627 34.0222 6.79228L19.2196 0.871226C19.0785 0.814979 18.9211 0.814979 18.78 0.871226L3.97734 6.79228C3.86746 6.83627 3.77328 6.91217 3.70692 7.01018C3.64057 7.10819 3.60509 7.22383 3.60506 7.34219V9.11851H2.42085C2.26381 9.11851 2.11321 9.18089 2.00217 9.29193C1.89112 9.40297 1.82874 9.55358 1.82874 9.71061V12.079C1.82874 12.2361 1.89112 12.3867 2.00217 12.4977C2.11321 12.6088 2.26381 12.6711 2.42085 12.6711H4.78927V13.8554C4.78927 14.0124 4.85165 14.163 4.96269 14.274C5.07373 14.3851 5.22434 14.4475 5.38137 14.4475V29.8422C5.22434 29.8422 5.07373 29.9046 4.96269 30.0156C4.85165 30.1267 4.78927 30.2773 4.78927 30.4343V31.6185H3.60506C3.44802 31.6185 3.29742 31.6809 3.18638 31.7919C3.07533 31.903 3.01295 32.0536 3.01295 32.2106V33.9869H1.23664C1.0796 33.9869 0.928996 34.0493 0.817955 34.1603C0.706914 34.2714 0.644531 34.422 0.644531 34.579C0.644531 34.7361 0.706914 34.8867 0.817955 34.9977C0.928996 35.1088 1.0796 35.1711 1.23664 35.1711H36.7629C36.92 35.1711 37.0706 35.1088 37.1816 34.9977C37.2927 34.8867 37.355 34.7361 37.355 34.579C37.355 34.422 37.2927 34.2714 37.1816 34.1603C37.0706 34.0493 36.92 33.9869 36.7629 33.9869ZM4.78927 7.74335L18.9998 2.05914L33.2103 7.74335V9.11851H4.78927V7.74335ZM3.01295 11.4869V10.3027H34.9866V11.4869H3.01295ZM32.0261 31.0264V31.6185H29.6577V31.0264H32.0261ZM30.2498 29.8422V14.4475H31.434V29.8422H30.2498ZM29.6577 13.2632V12.6711H32.0261V13.2632H29.6577ZM26.6972 29.8422V14.4475C26.8542 14.4475 27.0048 14.3851 27.1158 14.274C27.2269 14.163 27.2893 14.0124 27.2893 13.8554V12.6711H28.4735V13.8554C28.4735 14.0124 28.5359 14.163 28.6469 14.274C28.7579 14.3851 28.9085 14.4475 29.0656 14.4475V29.8422C28.9085 29.8422 28.7579 29.9046 28.6469 30.0156C28.5359 30.1267 28.4735 30.2773 28.4735 30.4343V31.6185H27.2893V30.4343C27.2893 30.2773 27.2269 30.1267 27.1158 30.0156C27.0048 29.9046 26.8542 29.8422 26.6972 29.8422ZM26.1051 31.0264V31.6185H23.7366V31.0264H26.1051ZM24.3287 29.8422V14.4475H25.5129V29.8422H24.3287ZM23.7366 13.2632V12.6711H26.1051V13.2632H23.7366ZM20.7761 29.8422V14.4475C20.9331 14.4475 21.0837 14.3851 21.1948 14.274C21.3058 14.163 21.3682 14.0124 21.3682 13.8554V12.6711H22.5524V13.8554C22.5524 14.0124 22.6148 14.163 22.7258 14.274C22.8369 14.3851 22.9875 14.4475 23.1445 14.4475V29.8422C22.9875 29.8422 22.8369 29.9046 22.7258 30.0156C22.6148 30.1267 22.5524 30.2773 22.5524 30.4343V31.6185H21.3682V30.4343C21.3682 30.2773 21.3058 30.1267 21.1948 30.0156C21.0837 29.9046 20.9331 29.8422 20.7761 29.8422ZM20.184 31.0264V31.6185H17.8156V31.0264H20.184ZM18.4077 29.8422V14.4475H19.5919V29.8422H18.4077ZM17.8156 13.2632V12.6711H20.184V13.2632H17.8156ZM14.8551 29.8422V14.4475C15.0121 14.4475 15.1627 14.3851 15.2737 14.274C15.3848 14.163 15.4472 14.0124 15.4472 13.8554V12.6711H16.6314V13.8554C16.6314 14.0124 16.6938 14.163 16.8048 14.274C16.9158 14.3851 17.0664 14.4475 17.2235 14.4475V29.8422C17.0664 29.8422 16.9158 29.9046 16.8048 30.0156C16.6938 30.1267 16.6314 30.2773 16.6314 30.4343V31.6185H15.4472V30.4343C15.4472 30.2773 15.3848 30.1267 15.2737 30.0156C15.1627 29.9046 15.0121 29.8422 14.8551 29.8422ZM14.2629 31.0264V31.6185H11.8945V31.0264H14.2629ZM12.4866 29.8422V14.4475H13.6708V29.8422H12.4866ZM11.8945 13.2632V12.6711H14.2629V13.2632H11.8945ZM8.934 29.8422V14.4475C9.09104 14.4475 9.24164 14.3851 9.35268 14.274C9.46373 14.163 9.52611 14.0124 9.52611 13.8554V12.6711H10.7103V13.8554C10.7103 14.0124 10.7727 14.163 10.8837 14.274C10.9948 14.3851 11.1454 14.4475 11.3024 14.4475V29.8422C11.1454 29.8422 10.9948 29.9046 10.8837 30.0156C10.7727 30.1267 10.7103 30.2773 10.7103 30.4343V31.6185H9.52611V30.4343C9.52611 30.2773 9.46373 30.1267 9.35268 30.0156C9.24164 29.9046 9.09104 29.8422 8.934 29.8422ZM8.3419 31.0264V31.6185H5.97348V31.0264H8.3419ZM6.56558 29.8422V14.4475H7.74979V29.8422H6.56558ZM5.97348 13.2632V12.6711H8.3419V13.2632H5.97348ZM33.8024 33.9869H4.19716V32.8027H33.8024V33.9869Z"/>
        <path d="M18.9993 3.78955C18.5309 3.78955 18.0729 3.92846 17.6835 4.1887C17.294 4.44895 16.9904 4.81884 16.8111 5.25162C16.6319 5.68439 16.585 6.1606 16.6764 6.62003C16.7678 7.07946 16.9933 7.50147 17.3246 7.8327C17.6558 8.16393 18.0778 8.3895 18.5372 8.48088C18.9967 8.57227 19.4729 8.52537 19.9056 8.34611C20.3384 8.16685 20.7083 7.86328 20.9686 7.4738C21.2288 7.08431 21.3677 6.6264 21.3677 6.15797C21.367 5.53004 21.1172 4.92804 20.6732 4.48402C20.2292 4.04001 19.6272 3.79026 18.9993 3.78955ZM18.9993 7.34218C18.7651 7.34218 18.5361 7.27273 18.3414 7.14261C18.1466 7.01248 17.9948 6.82753 17.9052 6.61115C17.8156 6.39476 17.7921 6.15666 17.8378 5.92694C17.8835 5.69723 17.9963 5.48622 18.1619 5.32061C18.3275 5.15499 18.5385 5.04221 18.7683 4.99652C18.998 4.95082 19.2361 4.97427 19.4525 5.0639C19.6688 5.15353 19.8538 5.30532 19.9839 5.50006C20.114 5.6948 20.1835 5.92376 20.1835 6.15797C20.1831 6.47193 20.0582 6.77292 19.8362 6.99492C19.6142 7.21693 19.3132 7.34181 18.9993 7.34218Z"/>
    </symbol>

    <symbol id="plant-icon" viewBox="0 0 38 38" xmlns="http://www.w3.org/2000/svg">
        <path d="M28.9834 4.45274H30.9058C31.7151 4.45274 32.3734 5.11109 32.3734 5.92027V6.70022C32.3734 7.50948 31.715 8.16783 30.9058 8.16783C29.8272 8.16783 28.9495 9.04541 28.9495 10.1241V10.9354C28.9495 11.242 29.198 11.4905 29.5046 11.4905C29.8113 11.4905 30.0597 11.242 30.0597 10.9354V10.1241C30.0597 9.65764 30.4393 9.27803 30.9058 9.27803C32.3272 9.27803 33.4836 8.12165 33.4836 6.70022V5.92027C33.4836 4.49893 32.3272 3.34254 30.9058 3.34254H28.9834C28.5051 3.34254 28.1161 2.95346 28.1161 2.47526V0.607833C28.1161 0.30127 27.8676 0.0527344 27.561 0.0527344C27.2543 0.0527344 27.0059 0.30127 27.0059 0.607833V2.47518C27.0059 3.56562 27.893 4.45274 28.9834 4.45274Z"/>
        <path d="M26.1405 8.81294C26.5181 8.81294 26.8252 9.1201 26.8252 9.49764V10.4007C26.8252 10.7072 27.0737 10.9558 27.3803 10.9558C27.687 10.9558 27.9354 10.7072 27.9354 10.4007V9.49764C27.9354 8.50794 27.1302 7.70275 26.1405 7.70275C25.763 7.70275 25.4559 7.39559 25.4559 7.01813V5.81438C25.4559 5.50781 25.2074 5.25928 24.9008 5.25928C24.5942 5.25928 24.3457 5.50781 24.3457 5.81438V7.01813C24.3457 8.00776 25.1509 8.81294 26.1405 8.81294Z"/>
        <path d="M30.2446 2.22344C30.5512 2.22344 30.7997 1.9749 30.7997 1.66834V0.612838C30.7997 0.306275 30.5512 0.0577393 30.2446 0.0577393C29.9379 0.0577393 29.6895 0.306275 29.6895 0.612838V1.66834C29.6895 1.9749 29.9379 2.22344 30.2446 2.22344Z"/>
        <path d="M22.6117 33.5291C22.3051 33.5291 22.0566 33.7776 22.0566 34.0842V34.6082C22.0566 34.9148 22.3051 35.1632 22.6117 35.1632C22.9184 35.1632 23.1668 34.9148 23.1668 34.6082V34.0842C23.1668 33.7776 22.9183 33.5291 22.6117 33.5291Z"/>
        <path d="M26.0785 33.5291C25.7719 33.5291 25.5234 33.7776 25.5234 34.0842V34.6082C25.5234 34.9148 25.7719 35.1632 26.0785 35.1632C26.3852 35.1632 26.6336 34.9148 26.6336 34.6082V34.0842C26.6336 33.7776 26.3851 33.5291 26.0785 33.5291Z"/>
        <path d="M29.5453 33.5291C29.2387 33.5291 28.9902 33.7776 28.9902 34.0842V34.6082C28.9902 34.9148 29.2387 35.1632 29.5453 35.1632C29.852 35.1632 30.1004 34.9148 30.1004 34.6082V34.0842C30.1004 33.7776 29.8519 33.5291 29.5453 33.5291Z"/>
        <path d="M33.0121 33.5291C32.7055 33.5291 32.457 33.7776 32.457 34.0842V34.6082C32.457 34.9148 32.7055 35.1632 33.0121 35.1632C33.3188 35.1632 33.5672 34.9148 33.5672 34.6082V34.0842C33.5672 33.7776 33.3188 33.5291 33.0121 33.5291Z"/>
        <path d="M37.3924 36.8372H36.6723V33.0348C36.6723 32.1425 35.9464 31.4167 35.0541 31.4167H32.8466C32.8458 31.4068 31.292 13.0884 31.2894 13.0582C31.2501 12.5935 30.8539 12.2294 30.3874 12.2294H27.438C26.964 12.2294 26.5762 12.5857 26.536 13.0581C24.73 34.3597 26.572 12.634 25.4415 25.9634H20.0617V24.0482C20.0617 23.819 19.9208 23.6134 19.7071 23.5306L18.6632 23.1262C18.3774 23.0152 18.0558 23.1573 17.945 23.4432C17.8343 23.729 17.9763 24.0506 18.2621 24.1613L18.9515 24.4284V36.8372H14.9461V33.6421C14.9461 33.3355 14.6976 33.087 14.391 33.087H6.99872C6.69216 33.087 6.44362 33.3355 6.44362 33.6421V36.8372H2.43818V18.0315L16.0427 23.3016C16.3286 23.4126 16.6501 23.2703 16.7608 22.9845C16.8716 22.6987 16.7296 22.3772 16.4437 22.2664L6.03033 18.2324V14.2545C6.03033 13.9479 5.7818 13.6994 5.47523 13.6994C5.16867 13.6994 4.92013 13.9479 4.92013 14.2545V17.8023L2.08366 16.7035C1.91305 16.6374 1.72047 16.6596 1.56941 16.7632C1.41835 16.8667 1.32805 17.038 1.32805 17.2212V36.8372H0.607833C0.301271 36.8372 0.0527344 37.0857 0.0527344 37.3923C0.0527344 37.699 0.301271 37.9474 0.607833 37.9474H37.3924C37.699 37.9474 37.9475 37.699 37.9475 37.3923C37.9475 37.0857 37.699 36.8372 37.3924 36.8372V36.8372ZM20.0617 31.4167V29.5706H25.1355L24.9788 31.4167H20.0617ZM31.7324 31.4166H26.093C26.1756 30.4427 26.3531 28.3507 26.4057 27.7299H27.8029C28.1096 27.7299 28.358 27.4815 28.358 27.1748C28.358 26.8682 28.1096 26.6197 27.8029 26.6197H26.4998C26.5283 26.2844 26.7838 23.272 26.8126 22.9331H31.0127L31.3254 26.6197H30.0224C29.7157 26.6197 29.4673 26.8682 29.4673 27.1748C29.4673 27.4815 29.7157 27.7299 30.0224 27.7299H31.4196L31.7324 31.4166ZM30.9186 21.823H26.9068L27.2195 18.1364H30.6059L30.9186 21.823ZM27.6264 13.3396H30.199L30.5117 17.0262H27.3137L27.6264 13.3396ZM25.3474 27.0736L25.2297 28.4604H20.0617V27.0736H25.3474ZM7.55382 36.8372V34.1972H13.836V36.8372H7.55382ZM20.0617 36.8372V32.5269H35.0541C35.3341 32.5269 35.562 32.7548 35.562 33.0348V36.8372H20.0617Z"/>
        <path d="M5.02882 20.9905C4.85896 20.9305 4.67053 20.9569 4.52354 21.0609C4.37647 21.1649 4.28914 21.3338 4.28914 21.514V24.692C4.28914 24.9987 4.53767 25.2471 4.84424 25.2471C5.1508 25.2471 5.39933 24.9987 5.39933 24.692V22.2983L8.2555 23.3055V28.947H5.39926V26.9114C5.39926 26.6048 5.15072 26.3563 4.84416 26.3563C4.5376 26.3563 4.28906 26.6048 4.28906 26.9114V29.5021C4.28906 29.8088 4.5376 30.0572 4.84416 30.0572H16.5464C16.8529 30.0572 17.1015 29.8088 17.1015 29.5021V25.6409C17.1015 25.4054 16.953 25.1956 16.731 25.1174L5.02882 20.9905ZM9.36562 23.6971L12.0249 24.635V28.9471H9.36562V23.6971ZM15.9913 28.9471H13.1351V25.0265L15.9913 26.0337V28.9471Z"/>
    </symbol>

    <symbol id="skyscraper-icon" viewBox="0 0 37 32" xmlns="http://www.w3.org/2000/svg">
        <path d="M26.213 31.8686C26.0772 31.8686 25.947 31.8147 25.8509 31.7187C25.7549 31.6226 25.7009 31.4924 25.7009 31.3566V4.15326L19.2107 1.43047L13.7605 3.57459V31.3566C13.7605 31.4924 13.7066 31.6226 13.6105 31.7187C13.5145 31.8147 13.3842 31.8686 13.2484 31.8686C13.1126 31.8686 12.9824 31.8147 12.8863 31.7187C12.7903 31.6226 12.7363 31.4924 12.7363 31.3566V3.22535C12.7363 3.12246 12.7672 3.02195 12.8252 2.93691C12.8831 2.85187 12.9652 2.78625 13.061 2.74859L19.0294 0.400654C19.1536 0.351723 19.2919 0.353193 19.415 0.404751L26.4112 3.34057C26.5042 3.3796 26.5836 3.44524 26.6395 3.52923C26.6953 3.61323 26.7251 3.71185 26.7251 3.81272V31.3566C26.7251 31.4924 26.6712 31.6226 26.5751 31.7187C26.4791 31.8147 26.3488 31.8686 26.213 31.8686Z" />
        <path d="M19.2172 31.8684C19.0814 31.8684 18.9511 31.8145 18.8551 31.7184C18.759 31.6224 18.7051 31.4922 18.7051 31.3563V0.877203C18.7051 0.741388 18.759 0.611136 18.8551 0.5151C18.9511 0.419065 19.0814 0.365112 19.2172 0.365112C19.353 0.365112 19.4832 0.419065 19.5793 0.5151C19.6753 0.611136 19.7293 0.741388 19.7293 0.877203V31.3563C19.7293 31.4922 19.6753 31.6224 19.5793 31.7184C19.4832 31.8145 19.353 31.8684 19.2172 31.8684Z" />
        <path d="M34.481 31.8686C34.3452 31.8686 34.2149 31.8147 34.1189 31.7186C34.0228 31.6226 33.9689 31.4923 33.9689 31.3565V15.2615L28.9617 12.3482H26.2133C26.0774 12.3482 25.9472 12.2943 25.8512 12.1982C25.7551 12.1022 25.7012 11.9719 25.7012 11.8361C25.7012 11.7003 25.7551 11.5701 25.8512 11.474C25.9472 11.378 26.0774 11.324 26.2133 11.324H29.0999C29.1899 11.3244 29.2782 11.3484 29.356 11.3937L34.7375 14.5246C34.8152 14.5695 34.8798 14.6339 34.9247 14.7116C34.9696 14.7892 34.9934 14.8773 34.9936 14.9671V31.354C34.9939 31.4215 34.9809 31.4884 34.9553 31.5508C34.9297 31.6133 34.892 31.6701 34.8443 31.7179C34.7967 31.7657 34.7401 31.8037 34.6777 31.8295C34.6153 31.8554 34.5485 31.8687 34.481 31.8686Z" />
        <path d="M29.1 31.8686C28.9642 31.8686 28.8339 31.8147 28.7379 31.7186C28.6418 31.6226 28.5879 31.4923 28.5879 31.3565V11.8361C28.5879 11.7003 28.6418 11.5701 28.7379 11.474C28.8339 11.378 28.9642 11.324 29.1 11.324C29.2358 11.324 29.3661 11.378 29.4621 11.474C29.5581 11.5701 29.6121 11.7003 29.6121 11.8361V31.3565C29.6121 31.4923 29.5581 31.6226 29.4621 31.7186C29.3661 31.8147 29.2358 31.8686 29.1 31.8686Z" />
        <path d="M2.73084 31.8685C2.59503 31.8685 2.46477 31.8145 2.36874 31.7185C2.2727 31.6224 2.21875 31.4922 2.21875 31.3564V15.4073C2.21875 15.2715 2.2727 15.1412 2.36874 15.0452C2.46477 14.9492 2.59503 14.8952 2.73084 14.8952H13.2497C13.3855 14.8952 13.5158 14.9492 13.6118 15.0452C13.7078 15.1412 13.7618 15.2715 13.7618 15.4073C13.7618 15.5431 13.7078 15.6734 13.6118 15.7694C13.5158 15.8654 13.3855 15.9194 13.2497 15.9194H3.24293V31.3564C3.24293 31.4922 3.18898 31.6224 3.09294 31.7185C2.99691 31.8145 2.86666 31.8685 2.73084 31.8685Z" />
        <path d="M5.5495 17.8865H4.46131C4.32549 17.8865 4.19524 17.8325 4.09921 17.7365C4.00317 17.6405 3.94922 17.5102 3.94922 17.3744C3.94922 17.2386 4.00317 17.1083 4.09921 17.0123C4.19524 16.9163 4.32549 16.8623 4.46131 16.8623H5.5495C5.68532 16.8623 5.81557 16.9163 5.91161 17.0123C6.00764 17.1083 6.06159 17.2386 6.06159 17.3744C6.06159 17.5102 6.00764 17.6405 5.91161 17.7365C5.81557 17.8325 5.68532 17.8865 5.5495 17.8865Z" />
        <path d="M8.53439 17.8865H7.44569C7.30987 17.8865 7.17962 17.8325 7.08358 17.7365C6.98755 17.6405 6.93359 17.5102 6.93359 17.3744C6.93359 17.2386 6.98755 17.1083 7.08358 17.0123C7.17962 16.9163 7.30987 16.8623 7.44569 16.8623H8.53439C8.67021 16.8623 8.80046 16.9163 8.89649 17.0123C8.99253 17.1083 9.04648 17.2386 9.04648 17.3744C9.04648 17.5102 8.99253 17.6405 8.89649 17.7365C8.80046 17.8325 8.67021 17.8865 8.53439 17.8865Z" />
        <path d="M11.5183 17.8865H10.4301C10.2942 17.8865 10.164 17.8325 10.068 17.7365C9.97192 17.6405 9.91797 17.5102 9.91797 17.3744C9.91797 17.2386 9.97192 17.1083 10.068 17.0123C10.164 16.9163 10.2942 16.8623 10.4301 16.8623H11.5183C11.6541 16.8623 11.7843 16.9163 11.8804 17.0123C11.9764 17.1083 12.0303 17.2386 12.0303 17.3744C12.0303 17.5102 11.9764 17.6405 11.8804 17.7365C11.7843 17.8325 11.6541 17.8865 11.5183 17.8865Z" />
        <path d="M5.5495 20.2896H4.46131C4.32549 20.2896 4.19524 20.2357 4.09921 20.1396C4.00317 20.0436 3.94922 19.9133 3.94922 19.7775C3.94922 19.6417 4.00317 19.5115 4.09921 19.4154C4.19524 19.3194 4.32549 19.2654 4.46131 19.2654H5.5495C5.68532 19.2654 5.81557 19.3194 5.91161 19.4154C6.00764 19.5115 6.06159 19.6417 6.06159 19.7775C6.06159 19.9133 6.00764 20.0436 5.91161 20.1396C5.81557 20.2357 5.68532 20.2896 5.5495 20.2896Z" />
        <path d="M8.53439 20.2896H7.44569C7.30987 20.2896 7.17962 20.2357 7.08358 20.1396C6.98755 20.0436 6.93359 19.9133 6.93359 19.7775C6.93359 19.6417 6.98755 19.5115 7.08358 19.4154C7.17962 19.3194 7.30987 19.2654 7.44569 19.2654H8.53439C8.67021 19.2654 8.80046 19.3194 8.89649 19.4154C8.99253 19.5115 9.04648 19.6417 9.04648 19.7775C9.04648 19.9133 8.99253 20.0436 8.89649 20.1396C8.80046 20.2357 8.67021 20.2896 8.53439 20.2896Z" />
        <path d="M11.5183 20.2896H10.4301C10.2942 20.2896 10.164 20.2357 10.068 20.1396C9.97192 20.0436 9.91797 19.9133 9.91797 19.7775C9.91797 19.6417 9.97192 19.5115 10.068 19.4154C10.164 19.3194 10.2942 19.2654 10.4301 19.2654H11.5183C11.6541 19.2654 11.7843 19.3194 11.8804 19.4154C11.9764 19.5115 12.0303 19.6417 12.0303 19.7775C12.0303 19.9133 11.9764 20.0436 11.8804 20.1396C11.7843 20.2357 11.6541 20.2896 11.5183 20.2896Z" />
        <path d="M5.5495 22.6922H4.46131C4.32549 22.6922 4.19524 22.6383 4.09921 22.5422C4.00317 22.4462 3.94922 22.3159 3.94922 22.1801C3.94922 22.0443 4.00317 21.9141 4.09921 21.818C4.19524 21.722 4.32549 21.668 4.46131 21.668H5.5495C5.68532 21.668 5.81557 21.722 5.91161 21.818C6.00764 21.9141 6.06159 22.0443 6.06159 22.1801C6.06159 22.3159 6.00764 22.4462 5.91161 22.5422C5.81557 22.6383 5.68532 22.6922 5.5495 22.6922Z" />
        <path d="M8.53439 22.6922H7.44569C7.30987 22.6922 7.17962 22.6383 7.08358 22.5422C6.98755 22.4462 6.93359 22.3159 6.93359 22.1801C6.93359 22.0443 6.98755 21.9141 7.08358 21.818C7.17962 21.722 7.30987 21.668 7.44569 21.668H8.53439C8.67021 21.668 8.80046 21.722 8.89649 21.818C8.99253 21.9141 9.04648 22.0443 9.04648 22.1801C9.04648 22.3159 8.99253 22.4462 8.89649 22.5422C8.80046 22.6383 8.67021 22.6922 8.53439 22.6922Z" />
        <path d="M11.5183 22.6922H10.4301C10.2942 22.6922 10.164 22.6383 10.068 22.5422C9.97192 22.4462 9.91797 22.3159 9.91797 22.1801C9.91797 22.0443 9.97192 21.9141 10.068 21.818C10.164 21.722 10.2942 21.668 10.4301 21.668H11.5183C11.6541 21.668 11.7843 21.722 11.8804 21.818C11.9764 21.9141 12.0303 22.0443 12.0303 22.1801C12.0303 22.3159 11.9764 22.4462 11.8804 22.5422C11.7843 22.6383 11.6541 22.6922 11.5183 22.6922Z" />
        <path d="M5.5495 25.0958H4.46131C4.32549 25.0958 4.19524 25.0419 4.09921 24.9459C4.00317 24.8498 3.94922 24.7196 3.94922 24.5837C3.94922 24.4479 4.00317 24.3177 4.09921 24.2216C4.19524 24.1256 4.32549 24.0717 4.46131 24.0717H5.5495C5.68532 24.0717 5.81557 24.1256 5.91161 24.2216C6.00764 24.3177 6.06159 24.4479 6.06159 24.5837C6.06159 24.7196 6.00764 24.8498 5.91161 24.9459C5.81557 25.0419 5.68532 25.0958 5.5495 25.0958Z" />
        <path d="M8.53439 25.0958H7.44569C7.30987 25.0958 7.17962 25.0419 7.08358 24.9459C6.98755 24.8498 6.93359 24.7196 6.93359 24.5837C6.93359 24.4479 6.98755 24.3177 7.08358 24.2216C7.17962 24.1256 7.30987 24.0717 7.44569 24.0717H8.53439C8.67021 24.0717 8.80046 24.1256 8.89649 24.2216C8.99253 24.3177 9.04648 24.4479 9.04648 24.5837C9.04648 24.7196 8.99253 24.8498 8.89649 24.9459C8.80046 25.0419 8.67021 25.0958 8.53439 25.0958Z" />
        <path d="M11.5183 25.0958H10.4301C10.2942 25.0958 10.164 25.0419 10.068 24.9459C9.97192 24.8498 9.91797 24.7196 9.91797 24.5837C9.91797 24.4479 9.97192 24.3177 10.068 24.2216C10.164 24.1256 10.2942 24.0717 10.4301 24.0717H11.5183C11.6541 24.0717 11.7843 24.1256 11.8804 24.2216C11.9764 24.3177 12.0303 24.4479 12.0303 24.5837C12.0303 24.7196 11.9764 24.8498 11.8804 24.9459C11.7843 25.0419 11.6541 25.0958 11.5183 25.0958Z" />
        <path d="M5.5495 27.499H4.46131C4.32549 27.499 4.19524 27.445 4.09921 27.349C4.00317 27.253 3.94922 27.1227 3.94922 26.9869C3.94922 26.8511 4.00317 26.7208 4.09921 26.6248C4.19524 26.5287 4.32549 26.4748 4.46131 26.4748H5.5495C5.68532 26.4748 5.81557 26.5287 5.91161 26.6248C6.00764 26.7208 6.06159 26.8511 6.06159 26.9869C6.06159 27.1227 6.00764 27.253 5.91161 27.349C5.81557 27.445 5.68532 27.499 5.5495 27.499Z" />
        <path d="M8.53439 27.499H7.44569C7.30987 27.499 7.17962 27.445 7.08358 27.349C6.98755 27.253 6.93359 27.1227 6.93359 26.9869C6.93359 26.8511 6.98755 26.7208 7.08358 26.6248C7.17962 26.5287 7.30987 26.4748 7.44569 26.4748H8.53439C8.67021 26.4748 8.80046 26.5287 8.89649 26.6248C8.99253 26.7208 9.04648 26.8511 9.04648 26.9869C9.04648 27.1227 8.99253 27.253 8.89649 27.349C8.80046 27.445 8.67021 27.499 8.53439 27.499Z" />
        <path d="M11.5183 27.499H10.4301C10.2942 27.499 10.164 27.445 10.068 27.349C9.97192 27.253 9.91797 27.1227 9.91797 26.9869C9.91797 26.8511 9.97192 26.7208 10.068 26.6248C10.164 26.5287 10.2942 26.4748 10.4301 26.4748H11.5183C11.6541 26.4748 11.7843 26.5287 11.8804 26.6248C11.9764 26.7208 12.0303 26.8511 12.0303 26.9869C12.0303 27.1227 11.9764 27.253 11.8804 27.349C11.7843 27.445 11.6541 27.499 11.5183 27.499Z" />
        <path d="M5.5495 29.9021H4.46131C4.32549 29.9021 4.19524 29.8482 4.09921 29.7521C4.00317 29.6561 3.94922 29.5258 3.94922 29.39C3.94922 29.2542 4.00317 29.124 4.09921 29.0279C4.19524 28.9319 4.32549 28.8779 4.46131 28.8779H5.5495C5.68532 28.8779 5.81557 28.9319 5.91161 29.0279C6.00764 29.124 6.06159 29.2542 6.06159 29.39C6.06159 29.5258 6.00764 29.6561 5.91161 29.7521C5.81557 29.8482 5.68532 29.9021 5.5495 29.9021Z" />
        <path d="M8.53439 29.9021H7.44569C7.30987 29.9021 7.17962 29.8482 7.08358 29.7521C6.98755 29.6561 6.93359 29.5258 6.93359 29.39C6.93359 29.2542 6.98755 29.124 7.08358 29.0279C7.17962 28.9319 7.30987 28.8779 7.44569 28.8779H8.53439C8.67021 28.8779 8.80046 28.9319 8.89649 29.0279C8.99253 29.124 9.04648 29.2542 9.04648 29.39C9.04648 29.5258 8.99253 29.6561 8.89649 29.7521C8.80046 29.8482 8.67021 29.9021 8.53439 29.9021Z" />
        <path d="M11.5183 29.9021H10.4301C10.2942 29.9021 10.164 29.8482 10.068 29.7521C9.97192 29.6561 9.91797 29.5258 9.91797 29.39C9.91797 29.2542 9.97192 29.124 10.068 29.0279C10.164 28.9319 10.2942 28.8779 10.4301 28.8779H11.5183C11.6541 28.8779 11.7843 28.9319 11.8804 29.0279C11.9764 29.124 12.0303 29.2542 12.0303 29.39C12.0303 29.5258 11.9764 29.6561 11.8804 29.7521C11.7843 29.8482 11.6541 29.9021 11.5183 29.9021Z" />
        <path d="M17.4125 5.89028C17.2767 5.89028 17.1464 5.83633 17.0504 5.74029C16.9543 5.64426 16.9004 5.514 16.9004 5.37819V4.41187C16.9004 4.27606 16.9543 4.1458 17.0504 4.04977C17.1464 3.95373 17.2767 3.89978 17.4125 3.89978C17.5483 3.89978 17.6785 3.95373 17.7746 4.04977C17.8706 4.1458 17.9246 4.27606 17.9246 4.41187V5.37819C17.9246 5.514 17.8706 5.64426 17.7746 5.74029C17.6785 5.83633 17.5483 5.89028 17.4125 5.89028Z" />
        <path d="M15.0765 6.4858C14.9407 6.4858 14.8105 6.43185 14.7144 6.33581C14.6184 6.23978 14.5645 6.10952 14.5645 5.97371V5.00739C14.5645 4.87158 14.6184 4.74132 14.7144 4.64529C14.8105 4.54925 14.9407 4.4953 15.0765 4.4953C15.2124 4.4953 15.3426 4.54925 15.4386 4.64529C15.5347 4.74132 15.5886 4.87158 15.5886 5.00739V5.97371C15.5886 6.10952 15.5347 6.23978 15.4386 6.33581C15.3426 6.43185 15.2124 6.4858 15.0765 6.4858Z" />
        <path d="M17.4125 9.74233C17.2767 9.74233 17.1464 9.68838 17.0504 9.59234C16.9543 9.49631 16.9004 9.36605 16.9004 9.23024V8.26392C16.9004 8.12811 16.9543 7.99786 17.0504 7.90182C17.1464 7.80578 17.2767 7.75183 17.4125 7.75183C17.5483 7.75183 17.6785 7.80578 17.7746 7.90182C17.8706 7.99786 17.9246 8.12811 17.9246 8.26392V9.23024C17.9246 9.36605 17.8706 9.49631 17.7746 9.59234C17.6785 9.68838 17.5483 9.74233 17.4125 9.74233Z" />
        <path d="M15.0765 10.3378C14.9407 10.3378 14.8105 10.2838 14.7144 10.1878C14.6184 10.0918 14.5645 9.96151 14.5645 9.8257V8.85938C14.5645 8.72357 14.6184 8.59331 14.7144 8.49728C14.8105 8.40124 14.9407 8.34729 15.0765 8.34729C15.2124 8.34729 15.3426 8.40124 15.4386 8.49728C15.5347 8.59331 15.5886 8.72357 15.5886 8.85938V9.8257C15.5886 9.96151 15.5347 10.0918 15.4386 10.1878C15.3426 10.2838 15.2124 10.3378 15.0765 10.3378Z" />
        <path d="M17.4125 13.5959C17.2767 13.5959 17.1464 13.542 17.0504 13.446C16.9543 13.3499 16.9004 13.2197 16.9004 13.0838V12.1155C16.9004 11.9797 16.9543 11.8494 17.0504 11.7534C17.1464 11.6573 17.2767 11.6034 17.4125 11.6034C17.5483 11.6034 17.6785 11.6573 17.7746 11.7534C17.8706 11.8494 17.9246 11.9797 17.9246 12.1155V13.0838C17.9246 13.2197 17.8706 13.3499 17.7746 13.446C17.6785 13.542 17.5483 13.5959 17.4125 13.5959Z" />
        <path d="M15.0765 14.1898C14.9407 14.1898 14.8105 14.1359 14.7144 14.0399C14.6184 13.9438 14.5645 13.8136 14.5645 13.6777V12.7114C14.5645 12.5756 14.6184 12.4454 14.7144 12.3493C14.8105 12.2533 14.9407 12.1993 15.0765 12.1993C15.2124 12.1993 15.3426 12.2533 15.4386 12.3493C15.5347 12.4454 15.5886 12.5756 15.5886 12.7114V13.6777C15.5886 13.8136 15.5347 13.9438 15.4386 14.0399C15.3426 14.1359 15.2124 14.1898 15.0765 14.1898Z" />
        <path d="M17.4125 17.4453C17.2767 17.4453 17.1464 17.3914 17.0504 17.2953C16.9543 17.1993 16.9004 17.0691 16.9004 16.9332V15.9669C16.9004 15.8311 16.9543 15.7009 17.0504 15.6048C17.1464 15.5088 17.2767 15.4548 17.4125 15.4548C17.5483 15.4548 17.6785 15.5088 17.7746 15.6048C17.8706 15.7009 17.9246 15.8311 17.9246 15.9669V16.9332C17.9246 17.0691 17.8706 17.1993 17.7746 17.2953C17.6785 17.3914 17.5483 17.4453 17.4125 17.4453Z" />
        <path d="M15.0765 18.0408C14.9407 18.0408 14.8105 17.9869 14.7144 17.8909C14.6184 17.7948 14.5645 17.6646 14.5645 17.5288V16.5624C14.5645 16.4266 14.6184 16.2964 14.7144 16.2003C14.8105 16.1043 14.9407 16.0504 15.0765 16.0504C15.2124 16.0504 15.3426 16.1043 15.4386 16.2003C15.5347 16.2964 15.5886 16.4266 15.5886 16.5624V17.5288C15.5886 17.6646 15.5347 17.7948 15.4386 17.8909C15.3426 17.9869 15.2124 18.0408 15.0765 18.0408Z" />
        <path d="M17.4125 21.2974C17.2767 21.2974 17.1464 21.2434 17.0504 21.1474C16.9543 21.0514 16.9004 20.9211 16.9004 20.7853V19.819C16.9004 19.6832 16.9543 19.5529 17.0504 19.4569C17.1464 19.3608 17.2767 19.3069 17.4125 19.3069C17.5483 19.3069 17.6785 19.3608 17.7746 19.4569C17.8706 19.5529 17.9246 19.6832 17.9246 19.819V20.7853C17.9246 20.9211 17.8706 21.0514 17.7746 21.1474C17.6785 21.2434 17.5483 21.2974 17.4125 21.2974Z" />
        <path d="M15.0765 21.8919C14.9407 21.8919 14.8105 21.8379 14.7144 21.7419C14.6184 21.6458 14.5645 21.5156 14.5645 21.3798V20.4145C14.5645 20.2787 14.6184 20.1484 14.7144 20.0524C14.8105 19.9564 14.9407 19.9024 15.0765 19.9024C15.2124 19.9024 15.3426 19.9564 15.4386 20.0524C15.5347 20.1484 15.5886 20.2787 15.5886 20.4145V21.3798C15.5886 21.5156 15.5347 21.6458 15.4386 21.7419C15.3426 21.8379 15.2124 21.8919 15.0765 21.8919Z" />
        <path d="M17.4125 25.1494C17.2767 25.1494 17.1464 25.0955 17.0504 24.9994C16.9543 24.9034 16.9004 24.7732 16.9004 24.6373V23.671C16.9004 23.5352 16.9543 23.405 17.0504 23.3089C17.1464 23.2129 17.2767 23.1589 17.4125 23.1589C17.5483 23.1589 17.6785 23.2129 17.7746 23.3089C17.8706 23.405 17.9246 23.5352 17.9246 23.671V24.6373C17.9246 24.7732 17.8706 24.9034 17.7746 24.9994C17.6785 25.0955 17.5483 25.1494 17.4125 25.1494Z" />
        <path d="M15.0765 25.7449C14.9407 25.7449 14.8105 25.6909 14.7144 25.5949C14.6184 25.4989 14.5645 25.3686 14.5645 25.2328V24.2665C14.5645 24.1307 14.6184 24.0004 14.7144 23.9044C14.8105 23.8083 14.9407 23.7544 15.0765 23.7544C15.2124 23.7544 15.3426 23.8083 15.4386 23.9044C15.5347 24.0004 15.5886 24.1307 15.5886 24.2665V25.2328C15.5886 25.3686 15.5347 25.4989 15.4386 25.5949C15.3426 25.6909 15.2124 25.7449 15.0765 25.7449Z" />
        <path d="M17.4125 29.0006C17.2767 29.0006 17.1464 28.9467 17.0504 28.8506C16.9543 28.7546 16.9004 28.6244 16.9004 28.4885V27.5248C16.9004 27.389 16.9543 27.2587 17.0504 27.1627C17.1464 27.0666 17.2767 27.0127 17.4125 27.0127C17.5483 27.0127 17.6785 27.0666 17.7746 27.1627C17.8706 27.2587 17.9246 27.389 17.9246 27.5248V28.4911C17.9239 28.6265 17.8696 28.7561 17.7737 28.8516C17.6777 28.947 17.5479 29.0006 17.4125 29.0006Z" />
        <path d="M15.0765 29.5969C14.9407 29.5969 14.8105 29.543 14.7144 29.4469C14.6184 29.3509 14.5645 29.2206 14.5645 29.0848V28.118C14.5645 27.9822 14.6184 27.8519 14.7144 27.7559C14.8105 27.6598 14.9407 27.6059 15.0765 27.6059C15.2124 27.6059 15.3426 27.6598 15.4386 27.7559C15.5347 27.8519 15.5886 27.9822 15.5886 28.118V29.0843C15.5887 29.1516 15.5755 29.2182 15.5498 29.2804C15.5241 29.3426 15.4864 29.3991 15.4388 29.4467C15.3913 29.4943 15.3348 29.5321 15.2726 29.5579C15.2105 29.5836 15.1438 29.5969 15.0765 29.5969Z" />
        <path d="M20.9457 5.40244C20.8099 5.40244 20.6796 5.34848 20.5836 5.25245C20.4875 5.15641 20.4336 5.02616 20.4336 4.89035V3.92505C20.4336 3.78924 20.4875 3.65899 20.5836 3.56295C20.6796 3.46692 20.8099 3.41296 20.9457 3.41296C21.0815 3.41296 21.2118 3.46692 21.3078 3.56295C21.4038 3.65899 21.4578 3.78924 21.4578 3.92505V4.89035C21.4578 5.02616 21.4038 5.15641 21.3078 5.25245C21.2118 5.34848 21.0815 5.40244 20.9457 5.40244Z" />
        <path d="M22.6762 6.05548C22.5403 6.05548 22.4101 6.00152 22.3141 5.90549C22.218 5.80945 22.1641 5.6792 22.1641 5.54339V4.57758C22.1641 4.44177 22.218 4.31151 22.3141 4.21548C22.4101 4.11944 22.5403 4.06549 22.6762 4.06549C22.812 4.06549 22.9422 4.11944 23.0383 4.21548C23.1343 4.31151 23.1882 4.44177 23.1882 4.57758V5.5439C23.1881 5.67962 23.1341 5.80974 23.0381 5.90567C22.9421 6.00159 22.8119 6.05548 22.6762 6.05548Z" />
        <path d="M24.4027 6.708C24.2669 6.708 24.1367 6.65405 24.0406 6.55801C23.9446 6.46198 23.8906 6.33173 23.8906 6.19591V5.23011C23.8906 5.09429 23.9446 4.96404 24.0406 4.86801C24.1367 4.77197 24.2669 4.71802 24.4027 4.71802C24.5385 4.71802 24.6688 4.77197 24.7648 4.86801C24.8609 4.96404 24.9148 5.09429 24.9148 5.23011V6.19642C24.9147 6.33215 24.8607 6.46227 24.7646 6.5582C24.6686 6.65412 24.5384 6.708 24.4027 6.708Z" />
        <path d="M20.9457 9.24356C20.8099 9.24356 20.6796 9.18961 20.5836 9.09357C20.4875 8.99753 20.4336 8.86728 20.4336 8.73147V7.76362C20.4336 7.6278 20.4875 7.49755 20.5836 7.40151C20.6796 7.30548 20.8099 7.25153 20.9457 7.25153C21.0815 7.25153 21.2118 7.30548 21.3078 7.40151C21.4038 7.49755 21.4578 7.6278 21.4578 7.76362V8.73147C21.4578 8.86728 21.4038 8.99753 21.3078 9.09357C21.2118 9.18961 21.0815 9.24356 20.9457 9.24356Z" />
        <path d="M22.6762 9.89355C22.5403 9.89355 22.4101 9.8396 22.3141 9.74356C22.218 9.64753 22.1641 9.51727 22.1641 9.38146V8.41566C22.1641 8.27984 22.218 8.14959 22.3141 8.05355C22.4101 7.95752 22.5403 7.90356 22.6762 7.90356C22.812 7.90356 22.9422 7.95752 23.0383 8.05355C23.1343 8.14959 23.1882 8.27984 23.1882 8.41566V9.38146C23.1882 9.51727 23.1343 9.64753 23.0383 9.74356C22.9422 9.8396 22.812 9.89355 22.6762 9.89355Z" />
        <path d="M24.4027 10.5461C24.2669 10.5461 24.1367 10.4921 24.0406 10.3961C23.9446 10.3001 23.8906 10.1698 23.8906 10.034V9.06818C23.8906 8.93237 23.9446 8.80211 24.0406 8.70608C24.1367 8.61004 24.2669 8.55609 24.4027 8.55609C24.5385 8.55609 24.6688 8.61004 24.7648 8.70608C24.8609 8.80211 24.9148 8.93237 24.9148 9.06818V10.0345C24.9147 10.1702 24.8607 10.3003 24.7646 10.3963C24.6686 10.4922 24.5384 10.5461 24.4027 10.5461Z" />
        <path d="M20.9457 13.0798C20.8099 13.0798 20.6796 13.0259 20.5836 12.9299C20.4875 12.8338 20.4336 12.7036 20.4336 12.5678V11.5989C20.4336 11.4631 20.4875 11.3328 20.5836 11.2368C20.6796 11.1407 20.8099 11.0868 20.9457 11.0868C21.0815 11.0868 21.2118 11.1407 21.3078 11.2368C21.4038 11.3328 21.4578 11.4631 21.4578 11.5989V12.5652C21.4581 12.6327 21.4451 12.6995 21.4195 12.762C21.3939 12.8244 21.3563 12.8811 21.3087 12.929C21.2611 12.9768 21.2045 13.0147 21.1422 13.0406C21.0799 13.0665 21.0131 13.0799 20.9457 13.0798Z" />
        <path d="M22.6762 13.7321C22.5403 13.7321 22.4101 13.6782 22.3141 13.5821C22.218 13.4861 22.1641 13.3559 22.1641 13.22V12.2537C22.1641 12.1179 22.218 11.9877 22.3141 11.8916C22.4101 11.7956 22.5403 11.7416 22.6762 11.7416C22.812 11.7416 22.9422 11.7956 23.0383 11.8916C23.1343 11.9877 23.1882 12.1179 23.1882 12.2537V13.22C23.1882 13.3559 23.1343 13.4861 23.0383 13.5821C22.9422 13.6782 22.812 13.7321 22.6762 13.7321Z" />
        <path d="M24.4027 14.3842C24.2669 14.3842 24.1367 14.3302 24.0406 14.2342C23.9446 14.1381 23.8906 14.0079 23.8906 13.8721V12.9063C23.8906 12.7704 23.9446 12.6402 24.0406 12.5442C24.1367 12.4481 24.2669 12.3942 24.4027 12.3942C24.5385 12.3942 24.6688 12.4481 24.7648 12.5442C24.8609 12.6402 24.9148 12.7704 24.9148 12.9063V13.8726C24.9147 14.0083 24.8607 14.1384 24.7646 14.2343C24.6686 14.3303 24.5384 14.3842 24.4027 14.3842Z" />
        <path d="M20.9457 16.9181C20.8099 16.9181 20.6796 16.8642 20.5836 16.7681C20.4875 16.6721 20.4336 16.5418 20.4336 16.406V15.4397C20.4336 15.3039 20.4875 15.1736 20.5836 15.0776C20.6796 14.9816 20.8099 14.9276 20.9457 14.9276C21.0815 14.9276 21.2118 14.9816 21.3078 15.0776C21.4038 15.1736 21.4578 15.3039 21.4578 15.4397V16.406C21.4578 16.5418 21.4038 16.6721 21.3078 16.7681C21.2118 16.8642 21.0815 16.9181 20.9457 16.9181Z" />
        <path d="M22.6762 17.5706C22.5403 17.5706 22.4101 17.5167 22.3141 17.4207C22.218 17.3246 22.1641 17.1944 22.1641 17.0585V16.0922C22.1641 15.9564 22.218 15.8262 22.3141 15.7301C22.4101 15.6341 22.5403 15.5801 22.6762 15.5801C22.812 15.5801 22.9422 15.6341 23.0383 15.7301C23.1343 15.8262 23.1882 15.9564 23.1882 16.0922V17.0585C23.1882 17.1944 23.1343 17.3246 23.0383 17.4207C22.9422 17.5167 22.812 17.5706 22.6762 17.5706Z" />
        <path d="M24.4027 18.2227C24.2669 18.2227 24.1367 18.1688 24.0406 18.0727C23.9446 17.9767 23.8906 17.8465 23.8906 17.7106V16.7443C23.8906 16.6085 23.9446 16.4783 24.0406 16.3822C24.1367 16.2862 24.2669 16.2322 24.4027 16.2322C24.5385 16.2322 24.6688 16.2862 24.7648 16.3822C24.8609 16.4783 24.9148 16.6085 24.9148 16.7443V17.7106C24.9148 17.8465 24.8609 17.9767 24.7648 18.0727C24.6688 18.1688 24.5385 18.2227 24.4027 18.2227Z" />
        <path d="M20.9457 20.7564C20.8099 20.7564 20.6796 20.7024 20.5836 20.6064C20.4875 20.5103 20.4336 20.3801 20.4336 20.2443V19.2805C20.4336 19.1447 20.4875 19.0145 20.5836 18.9184C20.6796 18.8224 20.8099 18.7684 20.9457 18.7684C21.0815 18.7684 21.2118 18.8224 21.3078 18.9184C21.4038 19.0145 21.4578 19.1447 21.4578 19.2805V20.2468C21.4571 20.3822 21.4029 20.5118 21.3069 20.6073C21.2109 20.7028 21.0811 20.7564 20.9457 20.7564Z" />
        <path d="M22.6762 21.4087C22.5403 21.4087 22.4101 21.3548 22.3141 21.2587C22.218 21.1627 22.1641 21.0324 22.1641 20.8966V19.9303C22.1641 19.7945 22.218 19.6642 22.3141 19.5682C22.4101 19.4722 22.5403 19.4182 22.6762 19.4182C22.812 19.4182 22.9422 19.4722 23.0383 19.5682C23.1343 19.6642 23.1882 19.7945 23.1882 19.9303V20.8966C23.1882 21.0324 23.1343 21.1627 23.0383 21.2587C22.9422 21.3548 22.812 21.4087 22.6762 21.4087Z" />
        <path d="M24.4027 22.0607C24.2669 22.0607 24.1367 22.0068 24.0406 21.9108C23.9446 21.8147 23.8906 21.6845 23.8906 21.5487V20.5823C23.8906 20.4465 23.9446 20.3163 24.0406 20.2202C24.1367 20.1242 24.2669 20.0703 24.4027 20.0703C24.5385 20.0703 24.6688 20.1242 24.7648 20.2202C24.8609 20.3163 24.9148 20.4465 24.9148 20.5823V21.5487C24.9148 21.6845 24.8609 21.8147 24.7648 21.9108C24.6688 22.0068 24.5385 22.0607 24.4027 22.0607Z" />
        <path d="M20.9457 24.5943C20.8099 24.5943 20.6796 24.5403 20.5836 24.4443C20.4875 24.3482 20.4336 24.218 20.4336 24.0822V23.1158C20.4336 22.98 20.4875 22.8498 20.5836 22.7537C20.6796 22.6577 20.8099 22.6038 20.9457 22.6038C21.0815 22.6038 21.2118 22.6577 21.3078 22.7537C21.4038 22.8498 21.4578 22.98 21.4578 23.1158V24.0822C21.4578 24.218 21.4038 24.3482 21.3078 24.4443C21.2118 24.5403 21.0815 24.5943 20.9457 24.5943Z" />
        <path d="M22.6762 25.2468C22.5403 25.2468 22.4101 25.1928 22.3141 25.0968C22.218 25.0008 22.1641 24.8705 22.1641 24.7347V23.7684C22.1641 23.6326 22.218 23.5023 22.3141 23.4063C22.4101 23.3102 22.5403 23.2563 22.6762 23.2563C22.812 23.2563 22.9422 23.3102 23.0383 23.4063C23.1343 23.5023 23.1882 23.6326 23.1882 23.7684V24.7347C23.1882 24.8705 23.1343 25.0008 23.0383 25.0968C22.9422 25.1928 22.812 25.2468 22.6762 25.2468Z" />
        <path d="M24.4027 25.8993C24.2669 25.8993 24.1367 25.8454 24.0406 25.7493C23.9446 25.6533 23.8906 25.523 23.8906 25.3872V24.4209C23.8906 24.2851 23.9446 24.1548 24.0406 24.0588C24.1367 23.9628 24.2669 23.9088 24.4027 23.9088C24.5385 23.9088 24.6688 23.9628 24.7648 24.0588C24.8609 24.1548 24.9148 24.2851 24.9148 24.4209V25.3872C24.9148 25.523 24.8609 25.6533 24.7648 25.7493C24.6688 25.8454 24.5385 25.8993 24.4027 25.8993Z" />
        <path d="M20.9457 28.4323C20.8099 28.4323 20.6796 28.3784 20.5836 28.2823C20.4875 28.1863 20.4336 28.0561 20.4336 27.9202V26.9539C20.4336 26.8181 20.4875 26.6879 20.5836 26.5918C20.6796 26.4958 20.8099 26.4418 20.9457 26.4418C21.0815 26.4418 21.2118 26.4958 21.3078 26.5918C21.4038 26.6879 21.4578 26.8181 21.4578 26.9539V27.9202C21.4578 28.0561 21.4038 28.1863 21.3078 28.2823C21.2118 28.3784 21.0815 28.4323 20.9457 28.4323Z" />
        <path d="M22.6762 29.0849C22.5403 29.0849 22.4101 29.0309 22.3141 28.9349C22.218 28.8388 22.1641 28.7086 22.1641 28.5728V27.6064C22.1641 27.4706 22.218 27.3404 22.3141 27.2443C22.4101 27.1483 22.5403 27.0944 22.6762 27.0944C22.812 27.0944 22.9422 27.1483 23.0383 27.2443C23.1343 27.3404 23.1882 27.4706 23.1882 27.6064V28.5728C23.1882 28.7086 23.1343 28.8388 23.0383 28.9349C22.9422 29.0309 22.812 29.0849 22.6762 29.0849Z" />
        <path d="M24.4027 29.7374C24.2669 29.7374 24.1367 29.6834 24.0406 29.5874C23.9446 29.4914 23.8906 29.3611 23.8906 29.2253V28.259C23.8906 28.1232 23.9446 27.9929 24.0406 27.8969C24.1367 27.8008 24.2669 27.7469 24.4027 27.7469C24.5385 27.7469 24.6688 27.8008 24.7648 27.8969C24.8609 27.9929 24.9148 28.1232 24.9148 28.259V29.2253C24.9148 29.3611 24.8609 29.4914 24.7648 29.5874C24.6688 29.6834 24.5385 29.7374 24.4027 29.7374Z" />
        <path d="M30.8812 16.2848C30.7454 16.2848 30.6152 16.2309 30.5191 16.1348C30.4231 16.0388 30.3691 15.9086 30.3691 15.7727V15.255C30.3691 15.1192 30.4231 14.9889 30.5191 14.8929C30.6152 14.7969 30.7454 14.7429 30.8812 14.7429C31.017 14.7429 31.1473 14.7969 31.2433 14.8929C31.3394 14.9889 31.3933 15.1192 31.3933 15.255V15.7727C31.3933 15.9086 31.3394 16.0388 31.2433 16.1348C31.1473 16.2309 31.017 16.2848 30.8812 16.2848Z" />
        <path d="M32.6058 17.3694C32.47 17.3694 32.3398 17.3155 32.2437 17.2194C32.1477 17.1234 32.0938 16.9931 32.0938 16.8573V16.3396C32.0938 16.2038 32.1477 16.0735 32.2437 15.9775C32.3398 15.8815 32.47 15.8275 32.6058 15.8275C32.7417 15.8275 32.8719 15.8815 32.9679 15.9775C33.064 16.0735 33.1179 16.2038 33.1179 16.3396V16.8573C33.1179 16.9931 33.064 17.1234 32.9679 17.2194C32.8719 17.3155 32.7417 17.3694 32.6058 17.3694Z" />
        <path d="M30.8812 18.8134C30.7454 18.8134 30.6152 18.7594 30.5191 18.6634C30.4231 18.5673 30.3691 18.4371 30.3691 18.3013V17.7841C30.3691 17.6482 30.4231 17.518 30.5191 17.422C30.6152 17.3259 30.7454 17.272 30.8812 17.272C31.017 17.272 31.1473 17.3259 31.2433 17.422C31.3394 17.518 31.3933 17.6482 31.3933 17.7841V18.3018C31.3932 18.4375 31.3392 18.5676 31.2432 18.6636C31.1471 18.7595 31.017 18.8134 30.8812 18.8134Z" />
        <path d="M32.6058 19.8977C32.47 19.8977 32.3398 19.8437 32.2437 19.7477C32.1477 19.6517 32.0938 19.5214 32.0938 19.3856V18.8704C32.0938 18.7346 32.1477 18.6044 32.2437 18.5083C32.3398 18.4123 32.47 18.3583 32.6058 18.3583C32.7417 18.3583 32.8719 18.4123 32.9679 18.5083C33.064 18.6044 33.1179 18.7346 33.1179 18.8704V19.3881C33.1173 19.5235 33.063 19.6531 32.967 19.7486C32.8711 19.8441 32.7412 19.8977 32.6058 19.8977Z" />
        <path d="M30.8812 21.3424C30.7454 21.3424 30.6152 21.2884 30.5191 21.1924C30.4231 21.0964 30.3691 20.9661 30.3691 20.8303V20.3126C30.3691 20.1768 30.4231 20.0465 30.5191 19.9505C30.6152 19.8544 30.7454 19.8005 30.8812 19.8005C31.017 19.8005 31.1473 19.8544 31.2433 19.9505C31.3394 20.0465 31.3933 20.1768 31.3933 20.3126V20.8303C31.3933 20.9661 31.3394 21.0964 31.2433 21.1924C31.1473 21.2884 31.017 21.3424 30.8812 21.3424Z" />
        <path d="M32.6058 22.427C32.47 22.427 32.3398 22.373 32.2437 22.277C32.1477 22.181 32.0938 22.0507 32.0938 21.9149V21.3972C32.0938 21.2613 32.1477 21.1311 32.2437 21.0351C32.3398 20.939 32.47 20.8851 32.6058 20.8851C32.7417 20.8851 32.8719 20.939 32.9679 21.0351C33.064 21.1311 33.1179 21.2613 33.1179 21.3972V21.9149C33.1179 22.0507 33.064 22.181 32.9679 22.277C32.8719 22.373 32.7417 22.427 32.6058 22.427Z" />
        <path d="M30.8812 23.8719C30.7454 23.8719 30.6152 23.818 30.5191 23.7219C30.4231 23.6259 30.3691 23.4956 30.3691 23.3598V22.8421C30.3691 22.7063 30.4231 22.576 30.5191 22.48C30.6152 22.384 30.7454 22.33 30.8812 22.33C31.017 22.33 31.1473 22.384 31.2433 22.48C31.3394 22.576 31.3933 22.7063 31.3933 22.8421V23.3598C31.3933 23.4956 31.3394 23.6259 31.2433 23.7219C31.1473 23.818 31.017 23.8719 30.8812 23.8719Z" />
        <path d="M32.6058 24.956C32.47 24.956 32.3398 24.902 32.2437 24.806C32.1477 24.7099 32.0938 24.5797 32.0938 24.4439V23.9262C32.0938 23.7903 32.1477 23.6601 32.2437 23.5641C32.3398 23.468 32.47 23.4141 32.6058 23.4141C32.7417 23.4141 32.8719 23.468 32.9679 23.5641C33.064 23.6601 33.1179 23.7903 33.1179 23.9262V24.4439C33.1179 24.5797 33.064 24.7099 32.9679 24.806C32.8719 24.902 32.7417 24.956 32.6058 24.956Z" />
        <path d="M30.8812 26.3984C30.7454 26.3984 30.6152 26.3445 30.5191 26.2485C30.4231 26.1524 30.3691 26.0222 30.3691 25.8864V25.3707C30.3691 25.2349 30.4231 25.1046 30.5191 25.0086C30.6152 24.9125 30.7454 24.8586 30.8812 24.8586C31.017 24.8586 31.1473 24.9125 31.2433 25.0086C31.3394 25.1046 31.3933 25.2349 31.3933 25.3707V25.8864C31.3933 26.0222 31.3394 26.1524 31.2433 26.2485C31.1473 26.3445 31.017 26.3984 30.8812 26.3984Z" />
        <path d="M32.6058 27.4851C32.47 27.4851 32.3398 27.4311 32.2437 27.3351C32.1477 27.2391 32.0938 27.1088 32.0938 26.973V26.4553C32.0938 26.3195 32.1477 26.1892 32.2437 26.0932C32.3398 25.9971 32.47 25.9432 32.6058 25.9432C32.7417 25.9432 32.8719 25.9971 32.9679 26.0932C33.064 26.1892 33.1179 26.3195 33.1179 26.4553V26.973C33.1179 27.1088 33.064 27.2391 32.9679 27.3351C32.8719 27.4311 32.7417 27.4851 32.6058 27.4851Z" />
        <path d="M30.8812 28.9295C30.7454 28.9295 30.6152 28.8756 30.5191 28.7795C30.4231 28.6835 30.3691 28.5533 30.3691 28.4174V27.8997C30.3691 27.7639 30.4231 27.6337 30.5191 27.5376C30.6152 27.4416 30.7454 27.3876 30.8812 27.3876C31.017 27.3876 31.1473 27.4416 31.2433 27.5376C31.3394 27.6337 31.3933 27.7639 31.3933 27.8997V28.4174C31.3933 28.5533 31.3394 28.6835 31.2433 28.7795C31.1473 28.8756 31.017 28.9295 30.8812 28.9295Z" />
        <path d="M32.6058 30.0136C32.47 30.0136 32.3398 29.9596 32.2437 29.8636C32.1477 29.7676 32.0938 29.6373 32.0938 29.5015V28.9838C32.0938 28.848 32.1477 28.7177 32.2437 28.6217C32.3398 28.5256 32.47 28.4717 32.6058 28.4717C32.7417 28.4717 32.8719 28.5256 32.9679 28.6217C33.064 28.7177 33.1179 28.848 33.1179 28.9838V29.5015C33.1179 29.6373 33.064 29.7676 32.9679 29.8636C32.8719 29.9596 32.7417 30.0136 32.6058 30.0136Z" />
        <path d="M36.0179 31.8603H1.19568C1.05987 31.8603 0.929617 31.8064 0.833582 31.7103C0.737546 31.6143 0.683594 31.484 0.683594 31.3482C0.683594 31.2124 0.737546 31.0821 0.833582 30.9861C0.929617 30.8901 1.05987 30.8361 1.19568 30.8361H36.0179C36.1537 30.8361 36.2839 30.8901 36.38 30.9861C36.476 31.0821 36.53 31.2124 36.53 31.3482C36.53 31.484 36.476 31.6143 36.38 31.7103C36.2839 31.8064 36.1537 31.8603 36.0179 31.8603Z" />
    </symbol>

    <symbol id="object-info-arrow-icon" viewBox="0 0 31 16" xmlns="http://www.w3.org/2000/svg">
        <path d="M30.7071 8.70711C31.0976 8.31658 31.0976 7.68342 30.7071 7.29289L24.3431 0.928932C23.9526 0.538408 23.3195 0.538408 22.9289 0.928932C22.5384 1.31946 22.5384 1.95262 22.9289 2.34315L28.5858 8L22.9289 13.6569C22.5384 14.0474 22.5384 14.6805 22.9289 15.0711C23.3195 15.4616 23.9526 15.4616 24.3431 15.0711L30.7071 8.70711ZM0 9H30V7H0V9Z"/>
    </symbol>


</svg>