<?xml version="1.0" encoding="iso-8859-1"?>
<?xml-stylesheet type="text/css" href="../css/fr-svg-include.css" ?>

<svg xmlns="http://www.w3.org/2000/svg" xmlns:xlink="http://www.w3.org/1999/xlink">

    <symbol id="phone-icon" viewBox="0 0 17 17" xmlns="http://www.w3.org/2000/svg">
        <path d="M15.8282 12.1254L13.6652 9.96237C12.8926 9.18984 11.5794 9.49888 11.2703 10.5031C11.0386 11.1984 10.2661 11.5847 9.57079 11.4302C8.02574 11.0439 5.93992 9.03533 5.55366 7.41303C5.3219 6.71773 5.78541 5.9452 6.48069 5.71348C7.48497 5.40447 7.79398 4.09117 7.02145 3.31865L4.85838 1.15558C4.24036 0.614808 3.31333 0.614808 2.77256 1.15558L1.30477 2.62337C-0.163032 4.16843 1.45927 8.26281 5.09014 11.8937C8.72101 15.5245 12.8154 17.2241 14.3604 15.6791L15.8282 14.2113C16.369 13.5932 16.369 12.6662 15.8282 12.1254Z"/>
    </symbol>

    <symbol id="download-icon" viewBox="0 0 15 19" xmlns="http://www.w3.org/2000/svg">
        <path d="M13.2468 7.6145C13.1743 7.44529 12.9809 7.32443 12.7875 7.32443H10.5394V0.507634C10.5394 0.24173 10.2977 0 10.0318 0H4.23024C3.94017 0 3.72261 0.217557 3.72261 0.507634V7.32443H1.47452C1.28113 7.32443 1.11192 7.44529 1.01523 7.6145C0.918538 7.78371 0.942711 8.00127 1.06358 8.14631L6.72007 15.3257C6.81676 15.4466 6.96179 15.5191 7.13101 15.5191C7.27604 15.5191 7.44526 15.4466 7.54195 15.3257L13.1984 8.14631C13.3193 8.00127 13.3435 7.78371 13.2468 7.6145ZM7.13101 14.1896L2.51396 8.33969H4.23024C4.52032 8.33969 4.73788 8.12214 4.73788 7.83206V1.01527H9.49996V7.83206C9.49996 8.12214 9.71752 8.33969 10.0076 8.33969H11.7481L7.13101 14.1896Z"/>
        <path d="M13.7303 17.9847H0.507634C0.24173 17.9847 0 18.2023 0 18.4924C0 18.7825 0.217557 19 0.507634 19H13.7303C14.0204 19 14.2379 18.7825 14.2379 18.4924C14.2379 18.2023 14.0204 17.9847 13.7303 17.9847Z"/>
    </symbol>

    <symbol id="arrow-btn-icon" viewBox="0 0 36 12" xmlns="http://www.w3.org/2000/svg">
        <path d="M35.5303 6.53033C35.8232 6.23744 35.8232 5.76256 35.5303 5.46967L30.7574 0.696699C30.4645 0.403806 29.9896 0.403806 29.6967 0.696699C29.4038 0.989593 29.4038 1.46447 29.6967 1.75736L33.9393 6L29.6967 10.2426C29.4038 10.5355 29.4038 11.0104 29.6967 11.3033C29.9896 11.5962 30.4645 11.5962 30.7574 11.3033L35.5303 6.53033ZM0 6.75H35V5.25H0V6.75Z"/>
    </symbol>

    <symbol id="arrow-prev-icon" viewBox="0 0 31 16" xmlns="http://www.w3.org/2000/svg">
        <path d="M0.292891 7.29289C-0.0976334 7.68342 -0.0976334 8.31658 0.292891 8.70711L6.65685 15.0711C7.04738 15.4616 7.68054 15.4616 8.07107 15.0711C8.46159 14.6805 8.46159 14.0474 8.07107 13.6569L2.41421 8L8.07107 2.34315C8.46159 1.95262 8.46159 1.31946 8.07107 0.928932C7.68054 0.538408 7.04738 0.538408 6.65685 0.928932L0.292891 7.29289ZM31 7L0.999998 7V9L31 9V7Z"/>
    </symbol>

    <symbol id="arrow-next-icon" viewBox="0 0 31 16" xmlns="http://www.w3.org/2000/svg">
        <path d="M30.7071 8.70711C31.0976 8.31658 31.0976 7.68342 30.7071 7.29289L24.3431 0.928932C23.9526 0.538408 23.3195 0.538408 22.9289 0.928932C22.5384 1.31946 22.5384 1.95262 22.9289 2.34315L28.5858 8L22.9289 13.6569C22.5384 14.0474 22.5384 14.6805 22.9289 15.0711C23.3195 15.4616 23.9526 15.4616 24.3431 15.0711L30.7071 8.70711ZM0 9H30V7H0V9Z"/>
    </symbol>

    <symbol id="arrow-prev-icon-mobile" width="11" height="20" viewBox="0 0 11 20" xmlns="http://www.w3.org/2000/svg">
        <path d="M0.26667 10.5488L9.50188 19.784C9.80762 20.0792 10.2948 20.0708 10.5901 19.765C10.8781 19.4668 10.8781 18.994 10.5901 18.6958L1.89898 10.0047L10.5901 1.31355C10.8905 1.01305 10.8905 0.525856 10.5901 0.225349C10.2895 -0.0751095 9.80239 -0.0751095 9.50188 0.225349L0.26667 9.46056C-0.0337896 9.76111 -0.0337896 10.2483 0.26667 10.5488Z"/>
    </symbol>

    <symbol id="arrow-next-icon-mobile" width="12" height="20" viewBox="0 0 12 20" xmlns="http://www.w3.org/2000/svg">
        <path d="M11.1618 9.45124L1.92659 0.216026C1.62085 -0.0792478 1.13366 -0.0707702 0.838382 0.234966C0.550323 0.533216 0.550323 1.00602 0.838382 1.30423L9.52949 9.99534L0.838382 18.6864C0.537922 18.9869 0.537922 19.4741 0.838382 19.7747C1.13893 20.0751 1.62608 20.0751 1.92659 19.7747L11.1618 10.5394C11.4623 10.2389 11.4623 9.75174 11.1618 9.45124Z"/>
    </symbol>

    <symbol id="location-icon" viewBox="0 0 8 10" xmlns="http://www.w3.org/2000/svg">
        <path d="M6.96043 1.71245C6.35353 0.665107 5.27557 0.0252441 4.07683 0.000791016C4.02566 -0.000263672 3.97416 -0.000263672 3.92297 0.000791016C2.72426 0.0252441 1.64629 0.665107 1.03937 1.71245C0.419022 2.783 0.402049 4.06893 0.993963 5.15235L3.47371 9.69116C3.47482 9.69317 3.47594 9.69518 3.47709 9.69718C3.58619 9.88681 3.78164 10 3.99994 10C4.21822 10 4.41367 9.88679 4.52275 9.69718C4.5239 9.69518 4.52502 9.69317 4.52613 9.69116L7.00588 5.15235C7.59775 4.06893 7.58078 2.783 6.96043 1.71245ZM3.9999 4.53126C3.22449 4.53126 2.59365 3.90042 2.59365 3.12501C2.59365 2.3496 3.22449 1.71876 3.9999 1.71876C4.77531 1.71876 5.40615 2.3496 5.40615 3.12501C5.40615 3.90042 4.77533 4.53126 3.9999 4.53126Z"/>
    </symbol>

    <symbol id="gem-icon" viewBox="0 0 20 24" xmlns="http://www.w3.org/2000/svg">
        <path d="M19.8613 17.683V6.33625C19.8613 6.00869 19.578 5.85231 19.5778 5.85215C19.5778 5.85215 10.2819 0.592921 10.2819 0.592921L10.2818 0.592866C10.1189 0.500831 9.92044 0.500553 9.75619 0.590035C9.74664 0.595253 9.73709 0.600526 9.72765 0.605855H9.7276L0.422649 5.85209C0.422371 5.85226 0.13916 6.01102 0.13916 6.33619V17.683C0.13916 17.9845 0.417376 18.1641 0.41893 18.165C0.419818 18.1655 9.7276 23.4134 9.7276 23.4134C9.7276 23.4134 9.72765 23.4134 9.72771 23.4134C9.89935 23.498 10.1011 23.498 10.2728 23.4134L10.2729 23.4134L19.5789 18.1665C19.5797 18.1661 19.8613 18.0248 19.8613 17.683ZM10.0002 18.3771L4.65444 15.363V8.65623L10.0002 5.64221L15.5558 8.77452C15.5565 8.77491 15.5579 8.77574 15.56 8.77707C15.7277 8.87888 15.9378 8.87816 16.1062 8.77768C16.1063 8.77763 16.1063 8.77757 16.1063 8.77757L18.751 7.28647V16.7328L16.3888 15.401V13.2322C16.3888 12.9365 16.1657 12.6784 15.8707 12.6593C15.5474 12.6383 15.2786 12.8944 15.2786 13.2131V15.4009L10.0002 18.3771ZM3.54425 8.58046V15.4389L1.2493 16.7329V7.28647L3.54425 8.58046ZM15.8337 7.65677L10.5553 4.68072V2.03967L18.1759 6.33625L15.8337 7.65677ZM9.44505 2.03967V4.68072L4.16657 7.65683L1.82444 6.3363L9.44505 2.03967ZM4.16657 16.3625L9.44505 19.3386V21.9796L1.82444 17.6831L4.16657 16.3625ZM10.5553 21.9796V19.3386L15.8337 16.3625L18.1759 17.683L10.5553 21.9796Z"/>
    </symbol>

    <symbol id="spreading-icon" viewBox="0 0 48 48" xmlns="http://www.w3.org/2000/svg">
        <path d="M36.6316 24.0984C36.6435 18.1044 32.4486 12.9243 26.5831 11.6892C20.7179 10.4545 14.7903 13.5033 12.384 18.993C9.97783 24.4831 11.7526 30.908 16.636 34.3843C21.5189 37.8603 28.1709 37.4343 32.5708 33.3639C35.1582 30.9774 36.6304 27.6183 36.6316 24.0984ZM12.9885 23.3089C13.1735 20.7535 14.2432 18.3427 16.013 16.4904C16.5843 16.9607 17.1965 17.379 17.8422 17.7409C17.2786 19.5454 16.9671 21.4192 16.917 23.3089H12.9885ZM35.0148 24.8879C34.8298 27.4432 33.7601 29.8541 31.9903 31.7067C31.4202 31.2364 30.8095 30.8182 30.165 30.4562C30.7267 28.6514 31.0354 26.7775 31.0832 24.8879H35.0148ZM28.7179 29.7504C27.4643 29.2485 26.1378 28.952 24.7894 28.8722V24.8879H29.5058C29.4522 26.5358 29.1863 28.1703 28.7148 29.7504H28.7179ZM24.7894 30.4512C25.9532 30.5329 27.0962 30.7993 28.1755 31.2407C27.319 33.2302 26.1232 34.6199 24.7894 35.0223V30.4512ZM24.7894 23.3089V19.3245C26.1367 19.2443 27.462 18.9479 28.7148 18.4468C29.1859 20.0269 29.4511 21.6609 29.5043 23.3089H24.7894ZM23.2104 17.7456C22.047 17.6638 20.9041 17.3975 19.8247 16.9561C20.6813 14.9666 21.877 13.5773 23.2104 13.1745V17.7456ZM24.7894 17.7456V13.1775C26.124 13.5804 27.3159 14.9697 28.1755 16.9592C27.0958 17.3994 25.9528 17.665 24.7894 17.7456ZM28.2222 13.8907C29.1535 14.2762 30.0266 14.7889 30.8173 15.4141C30.4302 15.7194 30.0224 15.9981 29.5976 16.2479C29.2356 15.4095 28.7738 14.6181 28.2222 13.8907ZM18.4026 16.2479C17.9775 15.9978 17.5696 15.7194 17.1822 15.4141C17.9732 14.7889 18.8471 14.2758 19.7788 13.8899C19.2268 14.6177 18.765 15.4095 18.4026 16.2479ZM19.2854 18.4468C20.5382 18.9479 21.8636 19.2443 23.2104 19.3245V23.3089H18.4944C18.548 21.6609 18.814 20.0269 19.2854 18.4468ZM23.2104 24.8879V28.8722C21.8636 28.9524 20.5382 29.2489 19.2854 29.7504C18.8143 28.1703 18.5491 26.5358 18.4959 24.8879H23.2104ZM23.2104 30.4512V35.0192C21.8763 34.6168 20.6843 33.2271 19.8247 31.2376C20.9045 30.7974 22.0474 30.5318 23.2104 30.4512ZM19.7781 34.3065C18.8467 33.9206 17.9736 33.4079 17.183 32.7826C17.57 32.4773 17.9775 32.199 18.4026 31.9492C18.7646 32.7872 19.2264 33.5787 19.7781 34.3065ZM29.5976 31.9492C30.0228 32.199 30.4306 32.4777 30.818 32.7826C30.027 33.4083 29.1531 33.9214 28.2214 34.3072C28.7734 33.5794 29.2352 32.7876 29.5976 31.9492ZM35.0117 23.3089H31.0832C31.0343 21.4192 30.7244 19.5454 30.1619 17.7409C30.8061 17.379 31.4171 16.9603 31.9872 16.4904C33.7574 18.3423 34.8271 20.7535 35.0117 23.3089ZM12.9854 24.8879H16.9139C16.9648 26.7779 17.2774 28.6517 17.8422 30.4562C17.198 30.8182 16.587 31.2364 16.0169 31.7067C14.2452 29.8552 13.1743 27.444 12.9885 24.8879H12.9854Z"/>
        <path d="M47.6842 24.0984C47.6807 22.5703 46.5836 21.2639 45.079 20.9967C44.5725 17.5139 43.2029 14.2129 41.0946 11.395C41.9816 10.1433 41.8352 8.43371 40.7481 7.35126C39.6479 6.30505 37.9691 6.16204 36.7082 7.00779C33.8891 4.89764 30.5867 3.52646 27.1019 3.01955C26.8378 1.51307 25.5295 0.414429 23.9998 0.414429C22.4706 0.414429 21.1623 1.51307 20.8982 3.01955C17.4126 3.52608 14.1094 4.89725 11.2896 7.00779C10.0286 6.16204 8.34985 6.30505 7.24967 7.35126C6.16221 8.43371 6.01573 10.1433 6.90312 11.395C4.79566 14.2133 3.4268 17.5139 2.92104 20.9967C1.41456 21.2608 0.315918 22.5691 0.315918 24.0984C0.315918 25.6276 1.41456 26.9359 2.92104 27.2004C3.42757 30.6829 4.7972 33.9838 6.90543 36.8021C6.01804 38.0541 6.1626 39.7641 7.24813 40.8497C8.33366 41.9348 10.0433 42.0798 11.2957 41.192C14.114 43.3006 17.415 44.6706 20.8982 45.1775C21.1623 46.6836 22.4706 47.7827 23.9998 47.7827C25.5295 47.7827 26.8378 46.6836 27.1019 45.1775C30.5847 44.671 33.8853 43.301 36.7036 41.1931C37.956 42.0805 39.6656 41.9356 40.7512 40.8504C41.8363 39.7649 41.9813 38.0553 41.0939 36.8028C43.2025 33.9845 44.5725 30.6832 45.079 27.2004C46.5836 26.9328 47.6807 25.6264 47.6842 24.0984ZM46.1052 24.0984C46.1052 24.9703 45.3986 25.6773 44.5262 25.6773C43.6543 25.6773 42.9473 24.9703 42.9473 24.0984C42.9473 23.2264 43.6543 22.5194 44.5262 22.5194C45.3986 22.5194 46.1052 23.2264 46.1052 24.0984ZM38.5146 8.00505C39.1533 8.00466 39.7292 8.38938 39.9736 8.97917C40.218 9.56935 40.0831 10.2486 39.6317 10.7004C39.0072 11.2967 38.0235 11.2967 37.399 10.7004C36.9476 10.2486 36.8127 9.56974 37.0571 8.97956C37.3011 8.38976 37.877 8.00505 38.5154 8.00505H38.5146ZM23.9998 1.993C24.8722 1.993 25.5788 2.69998 25.5788 3.57195C25.5788 4.44392 24.8722 5.1509 23.9998 5.1509C23.1279 5.1509 22.4209 4.44392 22.4209 3.57195C22.4209 2.69998 23.1279 1.993 23.9998 1.993ZM8.36835 8.46686C8.76463 8.05632 9.35173 7.89172 9.90375 8.03627C10.4561 8.18083 10.8871 8.6118 11.0317 9.16382C11.1762 9.71584 11.0116 10.3029 10.6011 10.6996C9.9766 11.2959 8.99284 11.2959 8.36835 10.6996C7.75196 10.0828 7.75196 9.08326 8.36835 8.46686ZM1.89449 24.0984C1.89449 23.2264 2.60147 22.5194 3.47344 22.5194C4.3458 22.5194 5.05239 23.2264 5.05239 24.0984C5.05239 24.9703 4.3458 25.6773 3.47344 25.6773C2.60147 25.6773 1.89449 24.9703 1.89449 24.0984ZM8.36835 39.7302C7.75157 39.1134 7.75157 38.1135 8.36797 37.4971C8.98475 36.8803 9.9847 36.8803 10.6011 37.4971C11.2179 38.1135 11.2179 39.1134 10.6011 39.7302C9.9766 40.327 8.99284 40.327 8.36835 39.7302ZM23.9998 46.2037C23.1279 46.2037 22.4209 45.4967 22.4209 44.6248C22.4209 43.7528 23.1279 43.0458 23.9998 43.0458C24.8722 43.0458 25.5788 43.7528 25.5788 44.6248C25.5788 45.4967 24.8722 46.2037 23.9998 46.2037ZM23.9998 41.4668C22.6557 41.4707 21.4618 42.3265 21.027 43.5986C17.8714 43.1237 14.8804 41.8828 12.3157 39.9843C12.914 38.7792 12.6719 37.3267 11.7159 36.3803C10.7518 35.4644 9.3259 35.2312 8.12048 35.7921C6.21849 33.2251 4.9753 30.2311 4.49999 27.0716C5.77518 26.641 6.63405 25.4445 6.63405 24.0984C6.63405 22.7522 5.77518 21.5561 4.49999 21.1251C4.97453 17.9699 6.21579 14.9789 8.11432 12.4142C9.31973 13.0075 10.7692 12.7677 11.7194 11.8179C12.6696 10.8677 12.9094 9.41824 12.3157 8.21244C14.8804 6.31392 17.8714 5.07304 21.027 4.5985C21.4576 5.87369 22.6537 6.73217 23.9998 6.73217C25.3463 6.73217 26.5425 5.87369 26.9731 4.5985C30.1287 5.07304 33.1197 6.31392 35.6843 8.21244C35.0907 9.41824 35.3305 10.8677 36.2807 11.8179C37.2309 12.7677 38.6803 13.0075 39.8858 12.4142C41.7843 14.9789 43.0255 17.9699 43.5001 21.1251C42.2249 21.5561 41.366 22.7522 41.366 24.0984C41.366 25.4445 42.2249 26.641 43.5001 27.0716C43.0236 30.2314 41.7785 33.2259 39.875 35.7921C38.6692 35.2312 37.2432 35.4644 36.2795 36.3803C35.3231 37.3267 35.0814 38.7792 35.6797 39.9843C33.1162 41.882 30.1272 43.1229 26.9731 43.5986C26.5383 42.3265 25.3444 41.4707 23.9998 41.4668ZM39.6317 39.7302C39.0072 40.327 38.0235 40.327 37.399 39.7302C36.7822 39.1134 36.7822 38.1135 37.399 37.4971C38.0154 36.8803 39.0153 36.8803 39.6317 37.4971C40.2485 38.1135 40.2485 39.1134 39.6317 39.7302Z"/>
    </symbol>

    <symbol id="energy-icon" viewBox="0 0 30 30" xmlns="http://www.w3.org/2000/svg">
        <path d="M14.9997 5.23041C9.61248 5.23041 5.22998 9.61291 5.22998 15.0001C5.22998 20.3874 9.61248 24.7699 14.9997 24.7699C20.3869 24.7699 24.7695 20.3874 24.7695 15.0001C24.7695 9.61291 20.3869 5.23041 14.9997 5.23041ZM14.9997 23.8817C10.1026 23.8817 6.11814 19.8972 6.11814 15.0001C6.11814 10.1031 10.1026 6.11857 14.9997 6.11857C19.8968 6.11857 23.8813 10.1031 23.8813 15.0001C23.8813 19.8972 19.8968 23.8817 14.9997 23.8817Z"/>
        <path d="M14.9997 4.78633C15.1175 4.78633 15.2305 4.73955 15.3138 4.65627C15.397 4.57299 15.4438 4.46003 15.4438 4.34226V1.67778C15.4438 1.56001 15.397 1.44705 15.3138 1.36377C15.2305 1.28049 15.1175 1.2337 14.9997 1.2337C14.882 1.2337 14.769 1.28049 14.6857 1.36377C14.6025 1.44705 14.5557 1.56001 14.5557 1.67778V4.34226C14.5557 4.46003 14.6025 4.57299 14.6857 4.65627C14.769 4.73955 14.882 4.78633 14.9997 4.78633Z"/>
        <path d="M14.9997 25.214C14.882 25.214 14.769 25.2608 14.6857 25.3441C14.6025 25.4273 14.5557 25.5403 14.5557 25.6581V26.5462C14.5557 26.664 14.6025 26.777 14.6857 26.8602C14.769 26.9435 14.882 26.9903 14.9997 26.9903C15.1175 26.9903 15.2305 26.9435 15.3138 26.8602C15.397 26.777 15.4438 26.664 15.4438 26.5462V25.6581C15.4438 25.5403 15.397 25.4273 15.3138 25.3441C15.2305 25.2608 15.1175 25.214 14.9997 25.214Z"/>
        <path d="M28.3224 14.5561H25.6579C25.5402 14.5561 25.4272 14.6029 25.3439 14.6862C25.2607 14.7694 25.2139 14.8824 25.2139 15.0002C25.2139 15.1179 25.2607 15.2309 25.3439 15.3142C25.4272 15.3975 25.5402 15.4442 25.6579 15.4442H28.3224C28.4402 15.4442 28.5532 15.3975 28.6364 15.3142C28.7197 15.2309 28.7665 15.1179 28.7665 15.0002C28.7665 14.8824 28.7197 14.7694 28.6364 14.6862C28.5532 14.6029 28.4402 14.5561 28.3224 14.5561Z"/>
        <path d="M4.39746 14.5561H1.67748C1.5597 14.5561 1.44675 14.6029 1.36347 14.6862C1.28019 14.7694 1.2334 14.8824 1.2334 15.0002C1.2334 15.1179 1.28019 15.2309 1.36347 15.3142C1.44675 15.3975 1.5597 15.4442 1.67748 15.4442H4.39746C4.51524 15.4442 4.62819 15.3975 4.71147 15.3142C4.79475 15.2309 4.84154 15.1179 4.84154 15.0002C4.84154 14.8824 4.79475 14.7694 4.71147 14.6862C4.62819 14.6029 4.51524 14.5561 4.39746 14.5561Z"/>
        <path d="M14.9997 27.4344C14.882 27.4344 14.769 27.4812 14.6857 27.5645C14.6025 27.6477 14.5557 27.7607 14.5557 27.8785V28.3225C14.5557 28.4403 14.6025 28.5533 14.6857 28.6366C14.769 28.7198 14.882 28.7666 14.9997 28.7666C15.1175 28.7666 15.2305 28.7198 15.3138 28.6366C15.397 28.5533 15.4438 28.4403 15.4438 28.3225V27.8785C15.4438 27.7607 15.397 27.6477 15.3138 27.5645C15.2305 27.4812 15.1175 27.4344 14.9997 27.4344Z"/>
        <path d="M22.85 22.2224C22.8087 22.1811 22.7598 22.1484 22.7059 22.1261C22.652 22.1038 22.5943 22.0923 22.5359 22.0923C22.4776 22.0923 22.4199 22.1038 22.366 22.1261C22.3121 22.1484 22.2631 22.1811 22.2219 22.2224C22.1806 22.2636 22.1479 22.3126 22.1256 22.3665C22.1033 22.4203 22.0918 22.4781 22.0918 22.5364C22.0918 22.5947 22.1033 22.6525 22.1256 22.7064C22.1479 22.7603 22.1806 22.8092 22.2219 22.8505L24.106 24.7345C24.1472 24.7758 24.1962 24.8085 24.2501 24.8308C24.3039 24.8531 24.3617 24.8646 24.42 24.8646C24.4783 24.8646 24.5361 24.8531 24.59 24.8308C24.6438 24.8085 24.6928 24.7758 24.734 24.7345C24.7753 24.6933 24.808 24.6443 24.8303 24.5905C24.8526 24.5366 24.8641 24.4788 24.8641 24.4205C24.8641 24.3622 24.8526 24.3044 24.8303 24.2506C24.808 24.1967 24.7753 24.1477 24.734 24.1065L22.85 22.2224Z"/>
        <path d="M7.14965 7.77793C7.23295 7.86122 7.34591 7.90801 7.4637 7.90801C7.58149 7.90801 7.69446 7.86122 7.77775 7.77793C7.86104 7.69464 7.90783 7.58167 7.90783 7.46388C7.90783 7.34609 7.86104 7.23313 7.77775 7.14984L7.14971 6.52186C7.06643 6.43857 6.95347 6.39178 6.83569 6.39178C6.71791 6.39178 6.60496 6.43857 6.52167 6.52186C6.43839 6.60514 6.3916 6.71809 6.3916 6.83587C6.3916 6.95365 6.43839 7.06661 6.52167 7.14989L7.14965 7.77793Z"/>
        <path d="M7.14939 22.2224L5.26533 24.1065C5.18204 24.1898 5.13525 24.3027 5.13525 24.4205C5.13525 24.5383 5.18204 24.6512 5.26533 24.7345C5.34861 24.8178 5.46156 24.8646 5.57934 24.8646C5.69712 24.8646 5.81008 24.8178 5.89336 24.7345L7.77748 22.8505C7.81872 22.8092 7.85143 22.7603 7.87375 22.7064C7.89607 22.6525 7.90756 22.5947 7.90756 22.5364C7.90756 22.4781 7.89607 22.4203 7.87375 22.3665C7.85143 22.3126 7.81872 22.2636 7.77748 22.2224C7.73624 22.1811 7.68728 22.1484 7.63339 22.1261C7.57951 22.1038 7.52176 22.0923 7.46343 22.0923C7.40511 22.0923 7.34736 22.1038 7.29347 22.1261C7.23959 22.1484 7.19063 22.1811 7.14939 22.2224Z"/>
        <path d="M24.1062 5.26581L22.1828 7.18912C22.1416 7.23036 22.1089 7.27932 22.0865 7.33321C22.0642 7.38709 22.0527 7.44484 22.0527 7.50317C22.0527 7.56149 22.0642 7.61924 22.0865 7.67313C22.1089 7.72701 22.1416 7.77597 22.1828 7.81721C22.2241 7.85845 22.273 7.89117 22.3269 7.91349C22.3808 7.93581 22.4385 7.9473 22.4969 7.9473C22.5552 7.9473 22.6129 7.93581 22.6668 7.91349C22.7207 7.89117 22.7697 7.85845 22.8109 7.81721L24.7342 5.89385C24.7755 5.85261 24.8082 5.80366 24.8305 5.74978C24.8528 5.6959 24.8643 5.63815 24.8643 5.57983C24.8643 5.52151 24.8528 5.46377 24.8305 5.40989C24.8082 5.35601 24.7755 5.30705 24.7342 5.26581C24.693 5.22458 24.644 5.19186 24.5901 5.16955C24.5363 5.14723 24.4785 5.13574 24.4202 5.13574C24.3619 5.13574 24.3041 5.14723 24.2502 5.16955C24.1964 5.19186 24.1474 5.22458 24.1062 5.26581Z"/>
        <path d="M5.57934 6.20787C5.66263 6.29115 5.77558 6.33794 5.89336 6.33794C6.01114 6.33794 6.1241 6.29115 6.20738 6.20787C6.29067 6.12459 6.33745 6.01163 6.33745 5.89385C6.33745 5.77607 6.29067 5.66312 6.20738 5.57983L5.89336 5.26581C5.81008 5.18253 5.69712 5.13574 5.57934 5.13574C5.46156 5.13574 5.34861 5.18253 5.26533 5.26581C5.18204 5.3491 5.13525 5.46205 5.13525 5.57983C5.13525 5.69761 5.18204 5.81057 5.26533 5.89385L5.57934 6.20787Z"/>
        <path d="M18.0616 14.8014C18.0246 14.7276 17.9679 14.6656 17.8977 14.6223C17.8275 14.579 17.7466 14.556 17.6641 14.556H16.4207L16.7749 9.70335C16.7818 9.60763 16.7576 9.51222 16.7058 9.43142C16.654 9.35062 16.5775 9.28878 16.4876 9.25515C16.3977 9.22152 16.2993 9.21791 16.2072 9.24487C16.1151 9.27184 16.0342 9.32791 15.9766 9.40471L11.9799 14.7337C11.9304 14.7996 11.9003 14.8781 11.8929 14.9602C11.8855 15.0424 11.9011 15.1249 11.938 15.1987C11.9749 15.2725 12.0316 15.3345 12.1017 15.3779C12.1719 15.4212 12.2527 15.4442 12.3352 15.4442H13.6291L13.225 20.2924C13.2171 20.3884 13.2406 20.4843 13.292 20.5658C13.3434 20.6472 13.4199 20.7097 13.5099 20.7439C13.5999 20.7781 13.6986 20.7822 13.7911 20.7554C13.8836 20.7286 13.9649 20.6725 14.0227 20.5955L18.0194 15.2665C18.0689 15.2006 18.099 15.1221 18.1065 15.0399C18.1139 14.9578 18.0984 14.8752 18.0616 14.8014ZM14.2381 18.8281L14.5539 15.0367C14.5591 14.9755 14.5515 14.9139 14.5316 14.8558C14.5117 14.7977 14.48 14.7443 14.4384 14.6991C14.3968 14.6539 14.3462 14.6179 14.29 14.5932C14.2337 14.5686 14.1729 14.5559 14.1115 14.556H13.2233L15.779 11.1488L15.5004 14.9679C15.4959 15.0288 15.5041 15.0899 15.5244 15.1475C15.5446 15.2051 15.5765 15.2578 15.6181 15.3025C15.6597 15.3472 15.71 15.3829 15.766 15.4072C15.8219 15.4316 15.8823 15.4442 15.9433 15.4442H16.776L14.2381 18.8281Z"/>
    </symbol>

    <symbol id="house-icon" viewBox="0 0 30 26" xmlns="http://www.w3.org/2000/svg">
        <path d="M15.274 5.29136C15.1158 5.14926 14.8758 5.14926 14.7176 5.29136L4.00475 14.9198C3.30022 15.4411 2.62577 15.4048 1.98136 14.8109C1.45873 14.1064 1.49504 13.4321 2.09027 12.7877L14.0387 2.05875C14.5844 1.56865 15.4074 1.56859 15.9531 2.05875L20.5626 6.19801C20.7337 6.35177 20.9969 6.33761 21.1507 6.16659C21.3043 5.99556 21.2903 5.73222 21.1192 5.57852L16.5095 1.43909C15.6466 0.663949 14.3451 0.663949 13.4822 1.43903L1.53395 12.168C0.613986 12.9935 0.535273 14.4479 1.3617 15.3674C2.18664 16.2865 3.64222 16.3643 4.56113 15.5395L5.69325 14.5229V24.726C5.69325 24.956 5.87965 25.1425 6.10968 25.1425H10.3295C10.5596 25.1425 10.746 24.956 10.746 24.726C10.746 24.4961 10.5596 24.3096 10.3295 24.3096H6.52612V13.7751L14.9958 6.16975L23.4655 13.7751V24.3097H16.06V21.2845C17.4481 21.5604 18.9884 20.8022 19.814 19.9573C20.6446 19.1073 21.1507 17.9517 21.2392 16.7034C21.2639 16.3551 21.1325 16.1362 21.018 16.0139C20.7385 15.7156 20.287 15.684 19.9677 15.6848C18.367 15.6853 16.6235 16.5494 15.7628 17.926C14.9073 15.8081 12.4494 14.4792 10.238 14.4786C9.5413 14.4742 8.68917 14.7404 8.7529 15.6403C8.86175 17.1762 9.48402 18.5975 10.505 19.6424C11.5326 20.694 13.2191 21.5882 15.2271 21.225V24.3097H12.144C11.914 24.3097 11.7276 24.4961 11.7276 24.7261C11.7276 24.9561 11.914 25.1425 12.144 25.1425H23.8819C24.112 25.1425 24.2984 24.9561 24.2984 24.7261V14.523L25.4303 15.5394C26.337 16.3544 27.8176 16.2866 28.6297 15.3676C29.5247 14.3548 29.3211 12.7968 28.4577 12.168L22.9341 7.20801C22.7629 7.0543 22.4996 7.06857 22.346 7.23965C22.1924 7.41073 22.2065 7.67407 22.3776 7.82772L27.9014 12.7878C28.4966 13.4322 28.5328 14.1066 28.01 14.8111C27.4748 15.4075 26.567 15.4412 25.9869 14.9198L15.274 5.29136ZM16.6752 18.0749C17.4266 17.1289 18.7195 16.5177 19.9691 16.5177C20.0613 16.5172 20.4175 16.5192 20.4085 16.6445C20.2517 18.856 18.6359 20.4814 16.5665 20.5092C16.2004 20.5144 16.1642 20.436 16.123 20.2588C15.9437 19.487 16.1862 18.6904 16.6752 18.0749ZM15.1458 20.1156C15.077 20.4116 14.9665 20.5155 14.4886 20.5092C11.8464 20.4736 9.78355 18.4012 9.58371 15.5814C9.56251 15.2834 10.0538 15.3148 10.2368 15.3115C11.8293 15.3115 13.4775 16.091 14.4358 17.2975C15.0675 18.0927 15.3772 19.1191 15.1458 20.1156Z"/>
    </symbol>
    
    <symbol id="projects-list-prev" viewBox="0 0 19 35" xmlns="http://www.w3.org/2000/svg">
        <path d="M0.466429 18.4603L16.628 34.622C17.1631 35.1387 18.0157 35.1238 18.5324 34.5888C19.0365 34.0669 19.0365 33.2395 18.5324 32.7176L3.32296 17.5082L18.5324 2.29873C19.0582 1.77284 19.0582 0.92025 18.5324 0.394367C18.0064 -0.131439 17.1539 -0.131439 16.628 0.394367L0.466429 16.556C-0.0593758 17.0819 -0.0593758 17.9345 0.466429 18.4603Z"/>
    </symbol>

    <symbol id="projects-list-next" viewBox="0 0 19 35" xmlns="http://www.w3.org/2000/svg">
        <path d="M18.5331 16.5397L2.37146 0.378046C1.83643 -0.138684 0.983837 -0.123848 0.467108 0.41119C-0.0369959 0.933128 -0.0369959 1.76054 0.467108 2.2824L15.6765 17.4918L0.467108 32.7013C-0.0586973 33.2272 -0.0586973 34.0798 0.467108 34.6056C0.99307 35.1314 1.84558 35.1314 2.37146 34.6056L18.5331 18.444C19.0589 17.9181 19.0589 17.0655 18.5331 16.5397Z"/>
    </symbol>

</svg>