<?xml version="1.0" encoding="iso-8859-1"?>
<?xml-stylesheet type="text/css" href="../css/fr-svg-include.css" ?>

<svg xmlns="http://www.w3.org/2000/svg" xmlns:xlink="http://www.w3.org/1999/xlink">

    <symbol id="phone-icon" viewBox="0 0 17 17" xmlns="http://www.w3.org/2000/svg">
        <path d="M15.8282 12.1254L13.6652 9.96237C12.8926 9.18984 11.5794 9.49888 11.2703 10.5031C11.0386 11.1984 10.2661 11.5847 9.57079 11.4302C8.02574 11.0439 5.93992 9.03533 5.55366 7.41303C5.3219 6.71773 5.78541 5.9452 6.48069 5.71348C7.48497 5.40447 7.79398 4.09117 7.02145 3.31865L4.85838 1.15558C4.24036 0.614808 3.31333 0.614808 2.77256 1.15558L1.30477 2.62337C-0.163032 4.16843 1.45927 8.26281 5.09014 11.8937C8.72101 15.5245 12.8154 17.2241 14.3604 15.6791L15.8282 14.2113C16.369 13.5932 16.369 12.6662 15.8282 12.1254Z"/>
    </symbol>

    <symbol id="download-icon" viewBox="0 0 15 19" xmlns="http://www.w3.org/2000/svg">
        <path d="M13.2468 7.6145C13.1743 7.44529 12.9809 7.32443 12.7875 7.32443H10.5394V0.507634C10.5394 0.24173 10.2977 0 10.0318 0H4.23024C3.94017 0 3.72261 0.217557 3.72261 0.507634V7.32443H1.47452C1.28113 7.32443 1.11192 7.44529 1.01523 7.6145C0.918538 7.78371 0.942711 8.00127 1.06358 8.14631L6.72007 15.3257C6.81676 15.4466 6.96179 15.5191 7.13101 15.5191C7.27604 15.5191 7.44526 15.4466 7.54195 15.3257L13.1984 8.14631C13.3193 8.00127 13.3435 7.78371 13.2468 7.6145ZM7.13101 14.1896L2.51396 8.33969H4.23024C4.52032 8.33969 4.73788 8.12214 4.73788 7.83206V1.01527H9.49996V7.83206C9.49996 8.12214 9.71752 8.33969 10.0076 8.33969H11.7481L7.13101 14.1896Z"/>
        <path d="M13.7303 17.9847H0.507634C0.24173 17.9847 0 18.2023 0 18.4924C0 18.7825 0.217557 19 0.507634 19H13.7303C14.0204 19 14.2379 18.7825 14.2379 18.4924C14.2379 18.2023 14.0204 17.9847 13.7303 17.9847Z"/>
    </symbol>

    <symbol id="arrow-btn-icon" viewBox="0 0 36 12" xmlns="http://www.w3.org/2000/svg">
        <path d="M35.5303 6.53033C35.8232 6.23744 35.8232 5.76256 35.5303 5.46967L30.7574 0.696699C30.4645 0.403806 29.9896 0.403806 29.6967 0.696699C29.4038 0.989593 29.4038 1.46447 29.6967 1.75736L33.9393 6L29.6967 10.2426C29.4038 10.5355 29.4038 11.0104 29.6967 11.3033C29.9896 11.5962 30.4645 11.5962 30.7574 11.3033L35.5303 6.53033ZM0 6.75H35V5.25H0V6.75Z"/>
    </symbol>

    <symbol id="arrow-prev-icon" viewBox="0 0 31 16" xmlns="http://www.w3.org/2000/svg">
        <path d="M0.292891 7.29289C-0.0976334 7.68342 -0.0976334 8.31658 0.292891 8.70711L6.65685 15.0711C7.04738 15.4616 7.68054 15.4616 8.07107 15.0711C8.46159 14.6805 8.46159 14.0474 8.07107 13.6569L2.41421 8L8.07107 2.34315C8.46159 1.95262 8.46159 1.31946 8.07107 0.928932C7.68054 0.538408 7.04738 0.538408 6.65685 0.928932L0.292891 7.29289ZM31 7L0.999998 7V9L31 9V7Z"/>
    </symbol>

    <symbol id="arrow-next-icon" viewBox="0 0 31 16" xmlns="http://www.w3.org/2000/svg">
        <path d="M30.7071 8.70711C31.0976 8.31658 31.0976 7.68342 30.7071 7.29289L24.3431 0.928932C23.9526 0.538408 23.3195 0.538408 22.9289 0.928932C22.5384 1.31946 22.5384 1.95262 22.9289 2.34315L28.5858 8L22.9289 13.6569C22.5384 14.0474 22.5384 14.6805 22.9289 15.0711C23.3195 15.4616 23.9526 15.4616 24.3431 15.0711L30.7071 8.70711ZM0 9H30V7H0V9Z"/>
    </symbol>

    <symbol id="arrow-prev-icon-mobile" width="11" height="20" viewBox="0 0 11 20" xmlns="http://www.w3.org/2000/svg">
        <path d="M0.26667 10.5488L9.50188 19.784C9.80762 20.0792 10.2948 20.0708 10.5901 19.765C10.8781 19.4668 10.8781 18.994 10.5901 18.6958L1.89898 10.0047L10.5901 1.31355C10.8905 1.01305 10.8905 0.525856 10.5901 0.225349C10.2895 -0.0751095 9.80239 -0.0751095 9.50188 0.225349L0.26667 9.46056C-0.0337896 9.76111 -0.0337896 10.2483 0.26667 10.5488Z"/>
    </symbol>

    <symbol id="arrow-next-icon-mobile" width="12" height="20" viewBox="0 0 12 20" xmlns="http://www.w3.org/2000/svg">
        <path d="M11.1618 9.45124L1.92659 0.216026C1.62085 -0.0792478 1.13366 -0.0707702 0.838382 0.234966C0.550323 0.533216 0.550323 1.00602 0.838382 1.30423L9.52949 9.99534L0.838382 18.6864C0.537922 18.9869 0.537922 19.4741 0.838382 19.7747C1.13893 20.0751 1.62608 20.0751 1.92659 19.7747L11.1618 10.5394C11.4623 10.2389 11.4623 9.75174 11.1618 9.45124Z"/>
    </symbol>

    <symbol id="location-icon" viewBox="0 0 8 10" xmlns="http://www.w3.org/2000/svg">
        <path d="M6.96043 1.71245C6.35353 0.665107 5.27557 0.0252441 4.07683 0.000791016C4.02566 -0.000263672 3.97416 -0.000263672 3.92297 0.000791016C2.72426 0.0252441 1.64629 0.665107 1.03937 1.71245C0.419022 2.783 0.402049 4.06893 0.993963 5.15235L3.47371 9.69116C3.47482 9.69317 3.47594 9.69518 3.47709 9.69718C3.58619 9.88681 3.78164 10 3.99994 10C4.21822 10 4.41367 9.88679 4.52275 9.69718C4.5239 9.69518 4.52502 9.69317 4.52613 9.69116L7.00588 5.15235C7.59775 4.06893 7.58078 2.783 6.96043 1.71245ZM3.9999 4.53126C3.22449 4.53126 2.59365 3.90042 2.59365 3.12501C2.59365 2.3496 3.22449 1.71876 3.9999 1.71876C4.77531 1.71876 5.40615 2.3496 5.40615 3.12501C5.40615 3.90042 4.77533 4.53126 3.9999 4.53126Z"/>
    </symbol>

    <symbol id="gem-icon" viewBox="0 0 20 24" xmlns="http://www.w3.org/2000/svg">
        <path d="M19.8613 17.683V6.33625C19.8613 6.00869 19.578 5.85231 19.5778 5.85215C19.5778 5.85215 10.2819 0.592921 10.2819 0.592921L10.2818 0.592866C10.1189 0.500831 9.92044 0.500553 9.75619 0.590035C9.74664 0.595253 9.73709 0.600526 9.72765 0.605855H9.7276L0.422649 5.85209C0.422371 5.85226 0.13916 6.01102 0.13916 6.33619V17.683C0.13916 17.9845 0.417376 18.1641 0.41893 18.165C0.419818 18.1655 9.7276 23.4134 9.7276 23.4134C9.7276 23.4134 9.72765 23.4134 9.72771 23.4134C9.89935 23.498 10.1011 23.498 10.2728 23.4134L10.2729 23.4134L19.5789 18.1665C19.5797 18.1661 19.8613 18.0248 19.8613 17.683ZM10.0002 18.3771L4.65444 15.363V8.65623L10.0002 5.64221L15.5558 8.77452C15.5565 8.77491 15.5579 8.77574 15.56 8.77707C15.7277 8.87888 15.9378 8.87816 16.1062 8.77768C16.1063 8.77763 16.1063 8.77757 16.1063 8.77757L18.751 7.28647V16.7328L16.3888 15.401V13.2322C16.3888 12.9365 16.1657 12.6784 15.8707 12.6593C15.5474 12.6383 15.2786 12.8944 15.2786 13.2131V15.4009L10.0002 18.3771ZM3.54425 8.58046V15.4389L1.2493 16.7329V7.28647L3.54425 8.58046ZM15.8337 7.65677L10.5553 4.68072V2.03967L18.1759 6.33625L15.8337 7.65677ZM9.44505 2.03967V4.68072L4.16657 7.65683L1.82444 6.3363L9.44505 2.03967ZM4.16657 16.3625L9.44505 19.3386V21.9796L1.82444 17.6831L4.16657 16.3625ZM10.5553 21.9796V19.3386L15.8337 16.3625L18.1759 17.683L10.5553 21.9796Z"/>
    </symbol>

    <symbol id="spreading-icon" viewBox="0 0 48 48" xmlns="http://www.w3.org/2000/svg">
        <path d="M36.6316 24.0984C36.6435 18.1044 32.4486 12.9243 26.5831 11.6892C20.7179 10.4545 14.7903 13.5033 12.384 18.993C9.97783 24.4831 11.7526 30.908 16.636 34.3843C21.5189 37.8603 28.1709 37.4343 32.5708 33.3639C35.1582 30.9774 36.6304 27.6183 36.6316 24.0984ZM12.9885 23.3089C13.1735 20.7535 14.2432 18.3427 16.013 16.4904C16.5843 16.9607 17.1965 17.379 17.8422 17.7409C17.2786 19.5454 16.9671 21.4192 16.917 23.3089H12.9885ZM35.0148 24.8879C34.8298 27.4432 33.7601 29.8541 31.9903 31.7067C31.4202 31.2364 30.8095 30.8182 30.165 30.4562C30.7267 28.6514 31.0354 26.7775 31.0832 24.8879H35.0148ZM28.7179 29.7504C27.4643 29.2485 26.1378 28.952 24.7894 28.8722V24.8879H29.5058C29.4522 26.5358 29.1863 28.1703 28.7148 29.7504H28.7179ZM24.7894 30.4512C25.9532 30.5329 27.0962 30.7993 28.1755 31.2407C27.319 33.2302 26.1232 34.6199 24.7894 35.0223V30.4512ZM24.7894 23.3089V19.3245C26.1367 19.2443 27.462 18.9479 28.7148 18.4468C29.1859 20.0269 29.4511 21.6609 29.5043 23.3089H24.7894ZM23.2104 17.7456C22.047 17.6638 20.9041 17.3975 19.8247 16.9561C20.6813 14.9666 21.877 13.5773 23.2104 13.1745V17.7456ZM24.7894 17.7456V13.1775C26.124 13.5804 27.3159 14.9697 28.1755 16.9592C27.0958 17.3994 25.9528 17.665 24.7894 17.7456ZM28.2222 13.8907C29.1535 14.2762 30.0266 14.7889 30.8173 15.4141C30.4302 15.7194 30.0224 15.9981 29.5976 16.2479C29.2356 15.4095 28.7738 14.6181 28.2222 13.8907ZM18.4026 16.2479C17.9775 15.9978 17.5696 15.7194 17.1822 15.4141C17.9732 14.7889 18.8471 14.2758 19.7788 13.8899C19.2268 14.6177 18.765 15.4095 18.4026 16.2479ZM19.2854 18.4468C20.5382 18.9479 21.8636 19.2443 23.2104 19.3245V23.3089H18.4944C18.548 21.6609 18.814 20.0269 19.2854 18.4468ZM23.2104 24.8879V28.8722C21.8636 28.9524 20.5382 29.2489 19.2854 29.7504C18.8143 28.1703 18.5491 26.5358 18.4959 24.8879H23.2104ZM23.2104 30.4512V35.0192C21.8763 34.6168 20.6843 33.2271 19.8247 31.2376C20.9045 30.7974 22.0474 30.5318 23.2104 30.4512ZM19.7781 34.3065C18.8467 33.9206 17.9736 33.4079 17.183 32.7826C17.57 32.4773 17.9775 32.199 18.4026 31.9492C18.7646 32.7872 19.2264 33.5787 19.7781 34.3065ZM29.5976 31.9492C30.0228 32.199 30.4306 32.4777 30.818 32.7826C30.027 33.4083 29.1531 33.9214 28.2214 34.3072C28.7734 33.5794 29.2352 32.7876 29.5976 31.9492ZM35.0117 23.3089H31.0832C31.0343 21.4192 30.7244 19.5454 30.1619 17.7409C30.8061 17.379 31.4171 16.9603 31.9872 16.4904C33.7574 18.3423 34.8271 20.7535 35.0117 23.3089ZM12.9854 24.8879H16.9139C16.9648 26.7779 17.2774 28.6517 17.8422 30.4562C17.198 30.8182 16.587 31.2364 16.0169 31.7067C14.2452 29.8552 13.1743 27.444 12.9885 24.8879H12.9854Z"/>
        <path d="M47.6842 24.0984C47.6807 22.5703 46.5836 21.2639 45.079 20.9967C44.5725 17.5139 43.2029 14.2129 41.0946 11.395C41.9816 10.1433 41.8352 8.43371 40.7481 7.35126C39.6479 6.30505 37.9691 6.16204 36.7082 7.00779C33.8891 4.89764 30.5867 3.52646 27.1019 3.01955C26.8378 1.51307 25.5295 0.414429 23.9998 0.414429C22.4706 0.414429 21.1623 1.51307 20.8982 3.01955C17.4126 3.52608 14.1094 4.89725 11.2896 7.00779C10.0286 6.16204 8.34985 6.30505 7.24967 7.35126C6.16221 8.43371 6.01573 10.1433 6.90312 11.395C4.79566 14.2133 3.4268 17.5139 2.92104 20.9967C1.41456 21.2608 0.315918 22.5691 0.315918 24.0984C0.315918 25.6276 1.41456 26.9359 2.92104 27.2004C3.42757 30.6829 4.7972 33.9838 6.90543 36.8021C6.01804 38.0541 6.1626 39.7641 7.24813 40.8497C8.33366 41.9348 10.0433 42.0798 11.2957 41.192C14.114 43.3006 17.415 44.6706 20.8982 45.1775C21.1623 46.6836 22.4706 47.7827 23.9998 47.7827C25.5295 47.7827 26.8378 46.6836 27.1019 45.1775C30.5847 44.671 33.8853 43.301 36.7036 41.1931C37.956 42.0805 39.6656 41.9356 40.7512 40.8504C41.8363 39.7649 41.9813 38.0553 41.0939 36.8028C43.2025 33.9845 44.5725 30.6832 45.079 27.2004C46.5836 26.9328 47.6807 25.6264 47.6842 24.0984ZM46.1052 24.0984C46.1052 24.9703 45.3986 25.6773 44.5262 25.6773C43.6543 25.6773 42.9473 24.9703 42.9473 24.0984C42.9473 23.2264 43.6543 22.5194 44.5262 22.5194C45.3986 22.5194 46.1052 23.2264 46.1052 24.0984ZM38.5146 8.00505C39.1533 8.00466 39.7292 8.38938 39.9736 8.97917C40.218 9.56935 40.0831 10.2486 39.6317 10.7004C39.0072 11.2967 38.0235 11.2967 37.399 10.7004C36.9476 10.2486 36.8127 9.56974 37.0571 8.97956C37.3011 8.38976 37.877 8.00505 38.5154 8.00505H38.5146ZM23.9998 1.993C24.8722 1.993 25.5788 2.69998 25.5788 3.57195C25.5788 4.44392 24.8722 5.1509 23.9998 5.1509C23.1279 5.1509 22.4209 4.44392 22.4209 3.57195C22.4209 2.69998 23.1279 1.993 23.9998 1.993ZM8.36835 8.46686C8.76463 8.05632 9.35173 7.89172 9.90375 8.03627C10.4561 8.18083 10.8871 8.6118 11.0317 9.16382C11.1762 9.71584 11.0116 10.3029 10.6011 10.6996C9.9766 11.2959 8.99284 11.2959 8.36835 10.6996C7.75196 10.0828 7.75196 9.08326 8.36835 8.46686ZM1.89449 24.0984C1.89449 23.2264 2.60147 22.5194 3.47344 22.5194C4.3458 22.5194 5.05239 23.2264 5.05239 24.0984C5.05239 24.9703 4.3458 25.6773 3.47344 25.6773C2.60147 25.6773 1.89449 24.9703 1.89449 24.0984ZM8.36835 39.7302C7.75157 39.1134 7.75157 38.1135 8.36797 37.4971C8.98475 36.8803 9.9847 36.8803 10.6011 37.4971C11.2179 38.1135 11.2179 39.1134 10.6011 39.7302C9.9766 40.327 8.99284 40.327 8.36835 39.7302ZM23.9998 46.2037C23.1279 46.2037 22.4209 45.4967 22.4209 44.6248C22.4209 43.7528 23.1279 43.0458 23.9998 43.0458C24.8722 43.0458 25.5788 43.7528 25.5788 44.6248C25.5788 45.4967 24.8722 46.2037 23.9998 46.2037ZM23.9998 41.4668C22.6557 41.4707 21.4618 42.3265 21.027 43.5986C17.8714 43.1237 14.8804 41.8828 12.3157 39.9843C12.914 38.7792 12.6719 37.3267 11.7159 36.3803C10.7518 35.4644 9.3259 35.2312 8.12048 35.7921C6.21849 33.2251 4.9753 30.2311 4.49999 27.0716C5.77518 26.641 6.63405 25.4445 6.63405 24.0984C6.63405 22.7522 5.77518 21.5561 4.49999 21.1251C4.97453 17.9699 6.21579 14.9789 8.11432 12.4142C9.31973 13.0075 10.7692 12.7677 11.7194 11.8179C12.6696 10.8677 12.9094 9.41824 12.3157 8.21244C14.8804 6.31392 17.8714 5.07304 21.027 4.5985C21.4576 5.87369 22.6537 6.73217 23.9998 6.73217C25.3463 6.73217 26.5425 5.87369 26.9731 4.5985C30.1287 5.07304 33.1197 6.31392 35.6843 8.21244C35.0907 9.41824 35.3305 10.8677 36.2807 11.8179C37.2309 12.7677 38.6803 13.0075 39.8858 12.4142C41.7843 14.9789 43.0255 17.9699 43.5001 21.1251C42.2249 21.5561 41.366 22.7522 41.366 24.0984C41.366 25.4445 42.2249 26.641 43.5001 27.0716C43.0236 30.2314 41.7785 33.2259 39.875 35.7921C38.6692 35.2312 37.2432 35.4644 36.2795 36.3803C35.3231 37.3267 35.0814 38.7792 35.6797 39.9843C33.1162 41.882 30.1272 43.1229 26.9731 43.5986C26.5383 42.3265 25.3444 41.4707 23.9998 41.4668ZM39.6317 39.7302C39.0072 40.327 38.0235 40.327 37.399 39.7302C36.7822 39.1134 36.7822 38.1135 37.399 37.4971C38.0154 36.8803 39.0153 36.8803 39.6317 37.4971C40.2485 38.1135 40.2485 39.1134 39.6317 39.7302Z"/>
    </symbol>

    <symbol id="energy-icon" viewBox="0 0 30 30" xmlns="http://www.w3.org/2000/svg">
        <path d="M14.9997 5.23041C9.61248 5.23041 5.22998 9.61291 5.22998 15.0001C5.22998 20.3874 9.61248 24.7699 14.9997 24.7699C20.3869 24.7699 24.7695 20.3874 24.7695 15.0001C24.7695 9.61291 20.3869 5.23041 14.9997 5.23041ZM14.9997 23.8817C10.1026 23.8817 6.11814 19.8972 6.11814 15.0001C6.11814 10.1031 10.1026 6.11857 14.9997 6.11857C19.8968 6.11857 23.8813 10.1031 23.8813 15.0001C23.8813 19.8972 19.8968 23.8817 14.9997 23.8817Z"/>
        <path d="M14.9997 4.78633C15.1175 4.78633 15.2305 4.73955 15.3138 4.65627C15.397 4.57299 15.4438 4.46003 15.4438 4.34226V1.67778C15.4438 1.56001 15.397 1.44705 15.3138 1.36377C15.2305 1.28049 15.1175 1.2337 14.9997 1.2337C14.882 1.2337 14.769 1.28049 14.6857 1.36377C14.6025 1.44705 14.5557 1.56001 14.5557 1.67778V4.34226C14.5557 4.46003 14.6025 4.57299 14.6857 4.65627C14.769 4.73955 14.882 4.78633 14.9997 4.78633Z"/>
        <path d="M14.9997 25.214C14.882 25.214 14.769 25.2608 14.6857 25.3441C14.6025 25.4273 14.5557 25.5403 14.5557 25.6581V26.5462C14.5557 26.664 14.6025 26.777 14.6857 26.8602C14.769 26.9435 14.882 26.9903 14.9997 26.9903C15.1175 26.9903 15.2305 26.9435 15.3138 26.8602C15.397 26.777 15.4438 26.664 15.4438 26.5462V25.6581C15.4438 25.5403 15.397 25.4273 15.3138 25.3441C15.2305 25.2608 15.1175 25.214 14.9997 25.214Z"/>
        <path d="M28.3224 14.5561H25.6579C25.5402 14.5561 25.4272 14.6029 25.3439 14.6862C25.2607 14.7694 25.2139 14.8824 25.2139 15.0002C25.2139 15.1179 25.2607 15.2309 25.3439 15.3142C25.4272 15.3975 25.5402 15.4442 25.6579 15.4442H28.3224C28.4402 15.4442 28.5532 15.3975 28.6364 15.3142C28.7197 15.2309 28.7665 15.1179 28.7665 15.0002C28.7665 14.8824 28.7197 14.7694 28.6364 14.6862C28.5532 14.6029 28.4402 14.5561 28.3224 14.5561Z"/>
        <path d="M4.39746 14.5561H1.67748C1.5597 14.5561 1.44675 14.6029 1.36347 14.6862C1.28019 14.7694 1.2334 14.8824 1.2334 15.0002C1.2334 15.1179 1.28019 15.2309 1.36347 15.3142C1.44675 15.3975 1.5597 15.4442 1.67748 15.4442H4.39746C4.51524 15.4442 4.62819 15.3975 4.71147 15.3142C4.79475 15.2309 4.84154 15.1179 4.84154 15.0002C4.84154 14.8824 4.79475 14.7694 4.71147 14.6862C4.62819 14.6029 4.51524 14.5561 4.39746 14.5561Z"/>
        <path d="M14.9997 27.4344C14.882 27.4344 14.769 27.4812 14.6857 27.5645C14.6025 27.6477 14.5557 27.7607 14.5557 27.8785V28.3225C14.5557 28.4403 14.6025 28.5533 14.6857 28.6366C14.769 28.7198 14.882 28.7666 14.9997 28.7666C15.1175 28.7666 15.2305 28.7198 15.3138 28.6366C15.397 28.5533 15.4438 28.4403 15.4438 28.3225V27.8785C15.4438 27.7607 15.397 27.6477 15.3138 27.5645C15.2305 27.4812 15.1175 27.4344 14.9997 27.4344Z"/>
        <path d="M22.85 22.2224C22.8087 22.1811 22.7598 22.1484 22.7059 22.1261C22.652 22.1038 22.5943 22.0923 22.5359 22.0923C22.4776 22.0923 22.4199 22.1038 22.366 22.1261C22.3121 22.1484 22.2631 22.1811 22.2219 22.2224C22.1806 22.2636 22.1479 22.3126 22.1256 22.3665C22.1033 22.4203 22.0918 22.4781 22.0918 22.5364C22.0918 22.5947 22.1033 22.6525 22.1256 22.7064C22.1479 22.7603 22.1806 22.8092 22.2219 22.8505L24.106 24.7345C24.1472 24.7758 24.1962 24.8085 24.2501 24.8308C24.3039 24.8531 24.3617 24.8646 24.42 24.8646C24.4783 24.8646 24.5361 24.8531 24.59 24.8308C24.6438 24.8085 24.6928 24.7758 24.734 24.7345C24.7753 24.6933 24.808 24.6443 24.8303 24.5905C24.8526 24.5366 24.8641 24.4788 24.8641 24.4205C24.8641 24.3622 24.8526 24.3044 24.8303 24.2506C24.808 24.1967 24.7753 24.1477 24.734 24.1065L22.85 22.2224Z"/>
        <path d="M7.14965 7.77793C7.23295 7.86122 7.34591 7.90801 7.4637 7.90801C7.58149 7.90801 7.69446 7.86122 7.77775 7.77793C7.86104 7.69464 7.90783 7.58167 7.90783 7.46388C7.90783 7.34609 7.86104 7.23313 7.77775 7.14984L7.14971 6.52186C7.06643 6.43857 6.95347 6.39178 6.83569 6.39178C6.71791 6.39178 6.60496 6.43857 6.52167 6.52186C6.43839 6.60514 6.3916 6.71809 6.3916 6.83587C6.3916 6.95365 6.43839 7.06661 6.52167 7.14989L7.14965 7.77793Z"/>
        <path d="M7.14939 22.2224L5.26533 24.1065C5.18204 24.1898 5.13525 24.3027 5.13525 24.4205C5.13525 24.5383 5.18204 24.6512 5.26533 24.7345C5.34861 24.8178 5.46156 24.8646 5.57934 24.8646C5.69712 24.8646 5.81008 24.8178 5.89336 24.7345L7.77748 22.8505C7.81872 22.8092 7.85143 22.7603 7.87375 22.7064C7.89607 22.6525 7.90756 22.5947 7.90756 22.5364C7.90756 22.4781 7.89607 22.4203 7.87375 22.3665C7.85143 22.3126 7.81872 22.2636 7.77748 22.2224C7.73624 22.1811 7.68728 22.1484 7.63339 22.1261C7.57951 22.1038 7.52176 22.0923 7.46343 22.0923C7.40511 22.0923 7.34736 22.1038 7.29347 22.1261C7.23959 22.1484 7.19063 22.1811 7.14939 22.2224Z"/>
        <path d="M24.1062 5.26581L22.1828 7.18912C22.1416 7.23036 22.1089 7.27932 22.0865 7.33321C22.0642 7.38709 22.0527 7.44484 22.0527 7.50317C22.0527 7.56149 22.0642 7.61924 22.0865 7.67313C22.1089 7.72701 22.1416 7.77597 22.1828 7.81721C22.2241 7.85845 22.273 7.89117 22.3269 7.91349C22.3808 7.93581 22.4385 7.9473 22.4969 7.9473C22.5552 7.9473 22.6129 7.93581 22.6668 7.91349C22.7207 7.89117 22.7697 7.85845 22.8109 7.81721L24.7342 5.89385C24.7755 5.85261 24.8082 5.80366 24.8305 5.74978C24.8528 5.6959 24.8643 5.63815 24.8643 5.57983C24.8643 5.52151 24.8528 5.46377 24.8305 5.40989C24.8082 5.35601 24.7755 5.30705 24.7342 5.26581C24.693 5.22458 24.644 5.19186 24.5901 5.16955C24.5363 5.14723 24.4785 5.13574 24.4202 5.13574C24.3619 5.13574 24.3041 5.14723 24.2502 5.16955C24.1964 5.19186 24.1474 5.22458 24.1062 5.26581Z"/>
        <path d="M5.57934 6.20787C5.66263 6.29115 5.77558 6.33794 5.89336 6.33794C6.01114 6.33794 6.1241 6.29115 6.20738 6.20787C6.29067 6.12459 6.33745 6.01163 6.33745 5.89385C6.33745 5.77607 6.29067 5.66312 6.20738 5.57983L5.89336 5.26581C5.81008 5.18253 5.69712 5.13574 5.57934 5.13574C5.46156 5.13574 5.34861 5.18253 5.26533 5.26581C5.18204 5.3491 5.13525 5.46205 5.13525 5.57983C5.13525 5.69761 5.18204 5.81057 5.26533 5.89385L5.57934 6.20787Z"/>
        <path d="M18.0616 14.8014C18.0246 14.7276 17.9679 14.6656 17.8977 14.6223C17.8275 14.579 17.7466 14.556 17.6641 14.556H16.4207L16.7749 9.70335C16.7818 9.60763 16.7576 9.51222 16.7058 9.43142C16.654 9.35062 16.5775 9.28878 16.4876 9.25515C16.3977 9.22152 16.2993 9.21791 16.2072 9.24487C16.1151 9.27184 16.0342 9.32791 15.9766 9.40471L11.9799 14.7337C11.9304 14.7996 11.9003 14.8781 11.8929 14.9602C11.8855 15.0424 11.9011 15.1249 11.938 15.1987C11.9749 15.2725 12.0316 15.3345 12.1017 15.3779C12.1719 15.4212 12.2527 15.4442 12.3352 15.4442H13.6291L13.225 20.2924C13.2171 20.3884 13.2406 20.4843 13.292 20.5658C13.3434 20.6472 13.4199 20.7097 13.5099 20.7439C13.5999 20.7781 13.6986 20.7822 13.7911 20.7554C13.8836 20.7286 13.9649 20.6725 14.0227 20.5955L18.0194 15.2665C18.0689 15.2006 18.099 15.1221 18.1065 15.0399C18.1139 14.9578 18.0984 14.8752 18.0616 14.8014ZM14.2381 18.8281L14.5539 15.0367C14.5591 14.9755 14.5515 14.9139 14.5316 14.8558C14.5117 14.7977 14.48 14.7443 14.4384 14.6991C14.3968 14.6539 14.3462 14.6179 14.29 14.5932C14.2337 14.5686 14.1729 14.5559 14.1115 14.556H13.2233L15.779 11.1488L15.5004 14.9679C15.4959 15.0288 15.5041 15.0899 15.5244 15.1475C15.5446 15.2051 15.5765 15.2578 15.6181 15.3025C15.6597 15.3472 15.71 15.3829 15.766 15.4072C15.8219 15.4316 15.8823 15.4442 15.9433 15.4442H16.776L14.2381 18.8281Z"/>
    </symbol>

    <symbol id="house-icon" viewBox="0 0 30 26" xmlns="http://www.w3.org/2000/svg">
        <path d="M15.274 5.29136C15.1158 5.14926 14.8758 5.14926 14.7176 5.29136L4.00475 14.9198C3.30022 15.4411 2.62577 15.4048 1.98136 14.8109C1.45873 14.1064 1.49504 13.4321 2.09027 12.7877L14.0387 2.05875C14.5844 1.56865 15.4074 1.56859 15.9531 2.05875L20.5626 6.19801C20.7337 6.35177 20.9969 6.33761 21.1507 6.16659C21.3043 5.99556 21.2903 5.73222 21.1192 5.57852L16.5095 1.43909C15.6466 0.663949 14.3451 0.663949 13.4822 1.43903L1.53395 12.168C0.613986 12.9935 0.535273 14.4479 1.3617 15.3674C2.18664 16.2865 3.64222 16.3643 4.56113 15.5395L5.69325 14.5229V24.726C5.69325 24.956 5.87965 25.1425 6.10968 25.1425H10.3295C10.5596 25.1425 10.746 24.956 10.746 24.726C10.746 24.4961 10.5596 24.3096 10.3295 24.3096H6.52612V13.7751L14.9958 6.16975L23.4655 13.7751V24.3097H16.06V21.2845C17.4481 21.5604 18.9884 20.8022 19.814 19.9573C20.6446 19.1073 21.1507 17.9517 21.2392 16.7034C21.2639 16.3551 21.1325 16.1362 21.018 16.0139C20.7385 15.7156 20.287 15.684 19.9677 15.6848C18.367 15.6853 16.6235 16.5494 15.7628 17.926C14.9073 15.8081 12.4494 14.4792 10.238 14.4786C9.5413 14.4742 8.68917 14.7404 8.7529 15.6403C8.86175 17.1762 9.48402 18.5975 10.505 19.6424C11.5326 20.694 13.2191 21.5882 15.2271 21.225V24.3097H12.144C11.914 24.3097 11.7276 24.4961 11.7276 24.7261C11.7276 24.9561 11.914 25.1425 12.144 25.1425H23.8819C24.112 25.1425 24.2984 24.9561 24.2984 24.7261V14.523L25.4303 15.5394C26.337 16.3544 27.8176 16.2866 28.6297 15.3676C29.5247 14.3548 29.3211 12.7968 28.4577 12.168L22.9341 7.20801C22.7629 7.0543 22.4996 7.06857 22.346 7.23965C22.1924 7.41073 22.2065 7.67407 22.3776 7.82772L27.9014 12.7878C28.4966 13.4322 28.5328 14.1066 28.01 14.8111C27.4748 15.4075 26.567 15.4412 25.9869 14.9198L15.274 5.29136ZM16.6752 18.0749C17.4266 17.1289 18.7195 16.5177 19.9691 16.5177C20.0613 16.5172 20.4175 16.5192 20.4085 16.6445C20.2517 18.856 18.6359 20.4814 16.5665 20.5092C16.2004 20.5144 16.1642 20.436 16.123 20.2588C15.9437 19.487 16.1862 18.6904 16.6752 18.0749ZM15.1458 20.1156C15.077 20.4116 14.9665 20.5155 14.4886 20.5092C11.8464 20.4736 9.78355 18.4012 9.58371 15.5814C9.56251 15.2834 10.0538 15.3148 10.2368 15.3115C11.8293 15.3115 13.4775 16.091 14.4358 17.2975C15.0675 18.0927 15.3772 19.1191 15.1458 20.1156Z"/>
    </symbol>
    
    <symbol id="projects-list-prev" viewBox="0 0 19 35" xmlns="http://www.w3.org/2000/svg">
        <path d="M0.466429 18.4603L16.628 34.622C17.1631 35.1387 18.0157 35.1238 18.5324 34.5888C19.0365 34.0669 19.0365 33.2395 18.5324 32.7176L3.32296 17.5082L18.5324 2.29873C19.0582 1.77284 19.0582 0.92025 18.5324 0.394367C18.0064 -0.131439 17.1539 -0.131439 16.628 0.394367L0.466429 16.556C-0.0593758 17.0819 -0.0593758 17.9345 0.466429 18.4603Z"/>
    </symbol>

    <symbol id="projects-list-next" viewBox="0 0 19 35" xmlns="http://www.w3.org/2000/svg">
        <path d="M18.5331 16.5397L2.37146 0.378046C1.83643 -0.138684 0.983837 -0.123848 0.467108 0.41119C-0.0369959 0.933128 -0.0369959 1.76054 0.467108 2.2824L15.6765 17.4918L0.467108 32.7013C-0.0586973 33.2272 -0.0586973 34.0798 0.467108 34.6056C0.99307 35.1314 1.84558 35.1314 2.37146 34.6056L18.5331 18.444C19.0589 17.9181 19.0589 17.0655 18.5331 16.5397Z"/>
    </symbol>

    <symbol id="drawing-icon" viewBox="0 0 28 28" xmlns="http://www.w3.org/2000/svg">
        <path d="M24.5728 19.6518C24.4221 19.5894 24.2487 19.6239 24.1333 19.7392L19.7265 24.146C19.6112 24.2614 19.5767 24.4348 19.6391 24.5855C19.7015 24.7362 19.8486 24.8344 20.0117 24.8344H24.4185C24.6413 24.8344 24.8218 24.6539 24.8218 24.4312V20.0243C24.8217 19.8613 24.7235 19.7142 24.5728 19.6518ZM20.9851 24.028L24.0152 20.9979V24.028H20.9851Z"/>
        <path d="M27.4875 13.1882C27.3368 13.1257 27.1634 13.1603 27.048 13.2756L25.8403 14.4833V6.2717C25.8403 6.04895 25.6597 5.86844 25.4371 5.86844H22.3387L23.4634 4.74374C23.4636 4.74358 23.4637 4.74336 23.4639 4.7432L24.5476 3.65949C24.7798 3.42731 24.9077 3.11844 24.9077 2.79004C24.9077 2.46165 24.7798 2.15289 24.5476 1.9206L23.2944 0.667429C23.0622 0.435244 22.7534 0.307373 22.425 0.307373C22.0966 0.307373 21.7878 0.435244 21.5555 0.667429L20.4713 1.75168L19.1611 3.06183L16.3546 5.86839H3.8375V1.87906C3.8375 1.65632 3.65694 1.47581 3.43425 1.47581C1.68548 1.47592 0.262695 2.8986 0.262695 4.64747V21.7749C0.262695 21.8047 0.26613 21.8336 0.272247 21.8615C0.327945 22.6036 0.648991 23.2931 1.18553 23.8165C1.75905 24.3758 2.51613 24.6839 3.31738 24.6839H15.6397L13.3189 27.0046C13.2036 27.12 13.1691 27.2933 13.2315 27.4441C13.2939 27.5947 13.441 27.693 13.6041 27.693H27.3332C27.5559 27.693 27.7364 27.5125 27.7364 27.2897V13.5608C27.7364 13.3977 27.6381 13.2506 27.4875 13.1882ZM22.1259 1.23778C22.2908 1.07283 22.5594 1.07283 22.7242 1.23778L23.9774 2.491C24.1424 2.65589 24.1424 2.92435 23.9774 3.0893L23.1784 3.8884L21.3268 2.03688L22.1259 1.23778ZM20.7565 2.60717L22.608 4.45864L21.8681 5.19856L20.0167 3.34708L20.7565 2.60717ZM26.93 18.0919H26.186C25.9633 18.0919 25.7828 18.2724 25.7828 18.4951C25.7828 18.7179 25.9633 18.8984 26.186 18.8984H26.93V20.1136H26.186C25.9633 20.1136 25.7828 20.2941 25.7828 20.5168C25.7828 20.7396 25.9633 20.9201 26.186 20.9201H26.93V22.1352H26.186C25.9633 22.1352 25.7828 22.3157 25.7828 22.5385C25.7828 22.7612 25.9633 22.9417 26.186 22.9417H26.93V24.1569H26.186C25.9633 24.1569 25.7828 24.3374 25.7828 24.5601C25.7828 24.7829 25.9633 24.9634 26.186 24.9634H26.93V26.8867H14.5776L18.6508 22.8135C18.8083 22.656 18.8083 22.4007 18.6508 22.2432C18.6327 22.2251 18.6133 22.2095 18.5929 22.1955C18.4359 22.088 18.2199 22.1038 18.0804 22.2432L16.4462 23.8775H3.31743C2.09442 23.8775 1.10987 22.9227 1.07113 21.7018C1.07344 21.6252 1.0794 21.5492 1.08895 21.4741C1.089 21.4737 1.08905 21.4733 1.08911 21.4728C1.09361 21.4371 1.09903 21.4016 1.10521 21.3663C1.1059 21.3623 1.10665 21.3583 1.10735 21.3542C1.11299 21.3227 1.11932 21.2914 1.12624 21.2602C1.12817 21.2515 1.13021 21.2428 1.13225 21.2341C1.13837 21.2077 1.14497 21.1815 1.15205 21.1554C1.15591 21.1412 1.15994 21.1272 1.16407 21.1131C1.16997 21.0926 1.17609 21.0722 1.18258 21.0519C1.18908 21.0317 1.196 21.0117 1.20303 20.9917C1.20791 20.9777 1.21274 20.9636 1.218 20.9498C1.22782 20.9234 1.23823 20.8972 1.24896 20.8713C1.25202 20.8638 1.25502 20.8563 1.25819 20.8488C1.27198 20.8166 1.28631 20.7848 1.30144 20.7534C1.30208 20.752 1.30267 20.7507 1.30332 20.7493C1.61873 20.0966 2.22535 19.61 2.95335 19.459C2.95539 19.4586 2.95743 19.4581 2.95947 19.4576C2.99284 19.4508 3.02654 19.445 3.06046 19.4396C3.06609 19.4386 3.07172 19.4375 3.07747 19.4367C3.10811 19.432 3.13907 19.4283 3.17003 19.4249C3.17872 19.4239 3.18736 19.4225 3.19611 19.4217C3.226 19.4187 3.25615 19.4167 3.28631 19.4148C3.29586 19.4142 3.30541 19.4132 3.31496 19.4127C3.35446 19.4107 3.39427 19.4097 3.43425 19.4097C3.65694 19.4097 3.8375 19.2292 3.8375 19.0065V16.0826C3.8375 15.8599 3.65694 15.6794 3.43425 15.6794C3.21156 15.6794 3.031 15.8599 3.031 16.0826V18.6286C2.35006 18.7147 1.718 19.0184 1.21961 19.5051C1.16718 19.5563 1.11749 19.6096 1.06909 19.6636V4.64747C1.06909 3.48086 1.91831 2.50871 3.03094 2.31671V6.2717V14.4697V14.4697C3.03094 14.6924 3.21151 14.873 3.43419 14.873C3.65688 14.873 3.83745 14.6924 3.83745 14.4697V14.4697V6.67495H15.5481L13.3189 8.90418C13.1614 9.06173 13.1614 9.31699 13.3189 9.47448C13.4764 9.63192 13.7317 9.63192 13.8891 9.47448L16.8068 6.55684C16.8069 6.55674 16.8069 6.55663 16.807 6.55657L19.4463 3.91733L21.2977 5.76885L21.0805 5.98607C21.0803 5.98623 21.0801 5.98639 21.08 5.98655L12.949 14.1176L11.0975 12.2661L12.7002 10.6634C12.8577 10.5059 12.8577 10.2506 12.7002 10.0931C12.5428 9.93568 12.2874 9.93568 12.13 10.0931L10.2421 11.981C10.232 11.9911 10.2226 12.0017 10.2137 12.0127C10.2108 12.0163 10.2081 12.0203 10.2053 12.0241C10.1997 12.0316 10.1941 12.0392 10.1889 12.0472C10.1859 12.0518 10.1832 12.0565 10.1804 12.0613C10.176 12.0688 10.1717 12.0764 10.1678 12.0842C10.1652 12.0893 10.1629 12.0944 10.1605 12.0996C10.1569 12.1075 10.1536 12.1156 10.1506 12.1236C10.1495 12.1264 10.1481 12.1291 10.1471 12.132L9.36144 14.3575L8.82581 15.8749C8.81873 15.8951 8.81363 15.9156 8.80982 15.9363H7.46876C7.24607 15.9363 7.0655 16.1168 7.0655 16.3395C7.0655 16.5623 7.24607 16.7428 7.46876 16.7428H18.6361C18.8588 16.7428 19.0393 16.5623 19.0393 16.3395C19.0393 16.1168 18.8588 15.9363 18.6361 15.9363H10.624L13.0832 15.0682C13.0853 15.0674 13.0872 15.0664 13.0892 15.0657C13.0988 15.0621 13.1082 15.0581 13.1175 15.0539C13.1212 15.0522 13.1249 15.0506 13.1285 15.0488C13.1381 15.044 13.1476 15.0387 13.1569 15.033C13.16 15.0311 13.1631 15.0295 13.166 15.0276C13.1757 15.0214 13.1852 15.0146 13.1945 15.0074C13.1968 15.0056 13.1992 15.0041 13.2014 15.0022C13.2126 14.9932 13.2236 14.9835 13.2341 14.9731L21.5322 6.675H25.0338V15.2898L19.2656 21.0581C19.1081 21.2156 19.1081 21.4709 19.2656 21.6284C19.2754 21.6382 19.2856 21.6474 19.2962 21.6561C19.3701 21.7163 19.4605 21.7465 19.5507 21.7465C19.641 21.7465 19.7313 21.7163 19.8052 21.6561C19.8158 21.6475 19.826 21.6382 19.8359 21.6284C19.836 21.6282 19.8359 21.6284 19.836 21.6282L26.93 14.5342V18.0919ZM12.2115 14.5205L11.0564 14.9283L10.2868 14.1587L10.6946 13.0036L12.2115 14.5205Z"/>
    </symbol>

    <symbol id="building-icon" viewBox="0 0 28 28" xmlns="http://www.w3.org/2000/svg">
        <g clip-path="url(#clip0)">
            <path d="M27.3284 20.9785H24.6399V17.6445C24.6399 17.4192 24.4572 17.2365 24.2319 17.2365C24.0066 17.2365 23.8238 17.4192 23.8238 17.6445V26.8784H18.2489H16.8212V25.0588V23.8347V21.4886V20.2646V17.9186V16.6945V14.7565H23.8238V15.7402C23.8238 15.9656 24.0066 16.1483 24.2319 16.1483C24.4572 16.1483 24.6399 15.9656 24.6399 15.7402V14.3485C24.6399 14.1232 24.4572 13.9405 24.2319 13.9405H18.657V0.714179C18.657 0.488863 18.4743 0.306152 18.2489 0.306152H9.76258C9.53726 0.306152 9.35455 0.488863 9.35455 0.714179V6.81806H4.07655C3.85123 6.81806 3.66852 7.00077 3.66852 7.22608V17.2579H0.670722C0.445406 17.2579 0.262695 17.4407 0.262695 17.666V27.2864C0.262695 27.5117 0.445406 27.6944 0.670722 27.6944H4.07655H12.563C12.5634 27.6944 12.5637 27.6944 12.564 27.6944H16.4132H18.2489H24.2309C24.2312 27.6944 24.2316 27.6944 24.2319 27.6944H27.3284C27.5537 27.6944 27.7364 27.5117 27.7364 27.2864V21.3865C27.7364 21.1612 27.5537 20.9785 27.3284 20.9785ZM3.66852 26.8784H1.07875V18.074H3.66852V26.8784ZM12.155 26.8784H9.76258V26.8784H4.48457V24.6221H12.155V26.8784ZM12.155 21.0588H8.47765C8.25233 21.0588 8.06962 21.2415 8.06962 21.4668C8.06962 21.6921 8.25233 21.8748 8.47765 21.8748H12.155V23.806H4.48457V21.8748H6.57349C6.7988 21.8748 6.98151 21.6921 6.98151 21.4668C6.98151 21.2415 6.7988 21.0588 6.57349 21.0588H4.48457V19.1276H12.155V21.0588ZM12.155 18.3116H4.48457V17.666V16.3803H12.155V18.3116ZM12.155 15.5643H4.48457V13.6332H12.155V15.5643ZM12.155 12.8171H4.48457V10.8859H12.155V12.8171ZM12.155 10.0699H4.48457V7.63406H12.155V10.0699ZM16.0052 14.3486V16.6946V17.9187V20.2647V21.4887V23.8348V25.0589V26.8785H12.971V7.22603C12.971 7.00072 12.7884 6.818 12.563 6.818H12.0067V6.002C12.0067 5.77669 11.8241 5.59398 11.5987 5.59398C11.3733 5.59398 11.1907 5.77669 11.1907 6.002V6.818H10.1706V1.12221H17.8409V13.9406H16.4131C16.1878 13.9406 16.0052 14.1232 16.0052 14.3486ZM26.9203 26.8784H24.64V21.7945H26.9203V26.8784Z"/>
            <path d="M16.4129 9.14648C16.1875 9.14648 16.0049 9.3292 16.0049 9.55451V10.7785C16.0049 11.0039 16.1876 11.1866 16.4129 11.1866C16.6383 11.1866 16.8209 11.0039 16.8209 10.7785V9.55451C16.8209 9.3292 16.6383 9.14648 16.4129 9.14648Z"/>
            <path d="M14.0057 9.14648C13.7803 9.14648 13.5977 9.3292 13.5977 9.55451V10.7785C13.5977 11.0039 13.7804 11.1866 14.0057 11.1866C14.231 11.1866 14.4137 11.0039 14.4137 10.7785V9.55451C14.4137 9.3292 14.231 9.14648 14.0057 9.14648Z"/>
            <path d="M16.4129 5.59399C16.1875 5.59399 16.0049 5.77671 16.0049 6.00202V7.22605C16.0049 7.45137 16.1876 7.63408 16.4129 7.63408C16.6383 7.63408 16.8209 7.45137 16.8209 7.22605V6.00202C16.8209 5.77671 16.6383 5.59399 16.4129 5.59399Z"/>
            <path d="M14.0057 5.59399C13.7803 5.59399 13.5977 5.77671 13.5977 6.00202V7.22605C13.5977 7.45137 13.7804 7.63408 14.0057 7.63408C14.231 7.63408 14.4137 7.45137 14.4137 7.22605V6.00202C14.4137 5.77671 14.231 5.59399 14.0057 5.59399Z"/>
            <path d="M11.5985 2.0415C11.3731 2.0415 11.1904 2.22421 11.1904 2.44953V3.67356C11.1904 3.89887 11.3731 4.08159 11.5985 4.08159C11.8238 4.08159 12.0065 3.89887 12.0065 3.67356V2.44953C12.0065 2.22421 11.8239 2.0415 11.5985 2.0415Z"/>
            <path d="M16.4129 2.0415C16.1875 2.0415 16.0049 2.22421 16.0049 2.44953V3.67356C16.0049 3.89887 16.1876 4.08159 16.4129 4.08159C16.6383 4.08159 16.8209 3.89887 16.8209 3.67356V2.44953C16.8209 2.22421 16.6383 2.0415 16.4129 2.0415Z"/>
            <path d="M14.0057 2.0415C13.7803 2.0415 13.5977 2.22421 13.5977 2.44953V3.67356C13.5977 3.89887 13.7804 4.08159 14.0057 4.08159C14.231 4.08159 14.4137 3.89887 14.4137 3.67356V2.44953C14.4137 2.22421 14.231 2.0415 14.0057 2.0415Z"/>
            <path d="M16.1952 12.78C16.0301 12.8839 15.9606 13.1001 16.0365 13.2805C16.1017 13.4344 16.2551 13.5362 16.423 13.5321C16.5941 13.5279 16.7463 13.4147 16.8004 13.2524C16.9194 12.8956 16.5113 12.5812 16.1952 12.78Z"/>
            <path d="M14.0057 12.7166C13.7803 12.7166 13.5977 12.8993 13.5977 13.1246V14.3486C13.5977 14.574 13.7804 14.7566 14.0057 14.7566C14.231 14.7566 14.4137 14.5739 14.4137 14.3486V13.1246C14.4137 12.8992 14.231 12.7166 14.0057 12.7166Z"/>
            <path d="M14.0057 23.4268C13.7803 23.4268 13.5977 23.6095 13.5977 23.8348V25.0588C13.5977 25.2841 13.7804 25.4668 14.0057 25.4668C14.231 25.4668 14.4137 25.2841 14.4137 25.0588V23.8348C14.4137 23.6094 14.231 23.4268 14.0057 23.4268Z"/>
            <path d="M14.0057 19.8567C13.7803 19.8567 13.5977 20.0394 13.5977 20.2647V21.4887C13.5977 21.7141 13.7804 21.8968 14.0057 21.8968C14.231 21.8968 14.4137 21.7141 14.4137 21.4887V20.2647C14.4137 20.0394 14.231 19.8567 14.0057 19.8567Z"/>
            <path d="M14.0057 16.2866C13.7803 16.2866 13.5977 16.4693 13.5977 16.6946V17.9187C13.5977 18.144 13.7804 18.3267 14.0057 18.3267C14.231 18.3267 14.4137 18.144 14.4137 17.9187V16.6946C14.4137 16.4693 14.231 16.2866 14.0057 16.2866Z"/>
            <path d="M22.5793 23.3025H18.0653C17.8399 23.3025 17.6572 23.4852 17.6572 23.7105C17.6572 23.9358 17.8399 24.1185 18.0653 24.1185H22.5793C22.8046 24.1185 22.9873 23.9358 22.9873 23.7105C22.9873 23.4852 22.8047 23.3025 22.5793 23.3025Z"/>
            <path d="M22.5793 25.2312H18.0653C17.8399 25.2312 17.6572 25.4139 17.6572 25.6392C17.6572 25.8645 17.8399 26.0473 18.0653 26.0473H22.5793C22.8046 26.0473 22.9873 25.8645 22.9873 25.6392C22.9873 25.4139 22.8047 25.2312 22.5793 25.2312Z"/>
            <path d="M22.5793 21.3738H18.0653C17.8399 21.3738 17.6572 21.5565 17.6572 21.7818C17.6572 22.0071 17.8399 22.1898 18.0653 22.1898H22.5793C22.8046 22.1898 22.9873 22.0071 22.9873 21.7818C22.9873 21.5565 22.8047 21.3738 22.5793 21.3738Z"/>
            <path d="M22.5793 15.5876H18.0653C17.8399 15.5876 17.6572 15.7704 17.6572 15.9957C17.6572 16.221 17.8399 16.4037 18.0653 16.4037H22.5793C22.8046 16.4037 22.9873 16.221 22.9873 15.9957C22.9873 15.7704 22.8047 15.5876 22.5793 15.5876Z"/>
            <path d="M22.5793 19.4451H18.0653C17.8399 19.4451 17.6572 19.6278 17.6572 19.8531C17.6572 20.0784 17.8399 20.2611 18.0653 20.2611H22.5793C22.8046 20.2611 22.9873 20.0784 22.9873 19.8531C22.9873 19.6278 22.8047 19.4451 22.5793 19.4451Z"/>
            <path d="M22.5793 17.5164H18.0653C17.8399 17.5164 17.6572 17.6991 17.6572 17.9244C17.6572 18.1497 17.8399 18.3324 18.0653 18.3324H22.5793C22.8046 18.3324 22.9873 18.1497 22.9873 17.9244C22.9873 17.6991 22.8047 17.5164 22.5793 17.5164Z"/>
            <path d="M2.37385 18.7224C2.14848 18.7224 1.96582 18.9051 1.96582 19.1304V20.1912C1.96582 20.4166 2.14848 20.5993 2.37385 20.5993C2.59922 20.5993 2.78187 20.4166 2.78187 20.1912V19.1304C2.78187 18.9051 2.59916 18.7224 2.37385 18.7224Z"/>
            <path d="M2.37385 21.5378C2.14848 21.5378 1.96582 21.7206 1.96582 21.9459V23.0067C1.96582 23.232 2.14848 23.4147 2.37385 23.4147C2.59922 23.4147 2.78187 23.232 2.78187 23.0067V21.9459C2.78187 21.7205 2.59916 21.5378 2.37385 21.5378Z"/>
            <path d="M2.37385 24.353C2.14848 24.353 1.96582 24.5357 1.96582 24.7611V25.8219C1.96582 26.0472 2.14848 26.2299 2.37385 26.2299C2.59922 26.2299 2.78187 26.0472 2.78187 25.8219V24.7611C2.78187 24.5357 2.59916 24.353 2.37385 24.353Z"/>
            <path d="M25.7801 22.7737C25.5547 22.7737 25.3721 22.9564 25.3721 23.1817V24.3365C25.3721 24.5618 25.5547 24.7445 25.7801 24.7445C26.0055 24.7445 26.1881 24.5618 26.1881 24.3365V23.1817C26.1881 22.9564 26.0055 22.7737 25.7801 22.7737Z"/>
            <path d="M24.5839 8.16699H19.6063C19.3809 8.16699 19.1982 8.3497 19.1982 8.57502C19.1982 8.80034 19.3809 8.98305 19.6063 8.98305H24.5839C24.8093 8.98305 24.9919 8.80034 24.9919 8.57502C24.9919 8.3497 24.8093 8.16699 24.5839 8.16699Z"/>
            <path d="M26.1342 9.88062H22.5438C22.3184 9.88062 22.1357 10.0633 22.1357 10.2886C22.1357 10.514 22.3184 10.6967 22.5438 10.6967H26.1342C26.3596 10.6967 26.5423 10.514 26.5423 10.2886C26.5423 10.0633 26.3596 9.88062 26.1342 9.88062Z"/>
            <path d="M7.6108 3.35254H4.02033C3.79496 3.35254 3.6123 3.53525 3.6123 3.76057C3.6123 3.98588 3.79502 4.16859 4.02033 4.16859H7.6108C7.83617 4.16859 8.01883 3.98588 8.01883 3.76057C8.01883 3.53525 7.83622 3.35254 7.6108 3.35254Z"/>
            <path d="M5.57071 4.71265H1.98029C1.75492 4.71265 1.57227 4.89536 1.57227 5.12067C1.57227 5.34599 1.75498 5.5287 1.98029 5.5287H5.57076C5.79613 5.5287 5.97879 5.34599 5.97879 5.12067C5.97879 4.89536 5.79613 4.71265 5.57071 4.71265Z"/>
        </g>
    </symbol>


</svg>