<?xml version="1.0" encoding="iso-8859-1"?>
<?xml-stylesheet type="text/css" href="../css/fr-svg-include.css" ?>

<svg xmlns="http://www.w3.org/2000/svg" xmlns:xlink="http://www.w3.org/1999/xlink">

    <symbol id="phone-icon" viewBox="0 0 17 17" xmlns="http://www.w3.org/2000/svg">
        <path d="M15.8282 12.1254L13.6652 9.96237C12.8926 9.18984 11.5794 9.49888 11.2703 10.5031C11.0386 11.1984 10.2661 11.5847 9.57079 11.4302C8.02574 11.0439 5.93992 9.03533 5.55366 7.41303C5.3219 6.71773 5.78541 5.9452 6.48069 5.71348C7.48497 5.40447 7.79398 4.09117 7.02145 3.31865L4.85838 1.15558C4.24036 0.614808 3.31333 0.614808 2.77256 1.15558L1.30477 2.62337C-0.163032 4.16843 1.45927 8.26281 5.09014 11.8937C8.72101 15.5245 12.8154 17.2241 14.3604 15.6791L15.8282 14.2113C16.369 13.5932 16.369 12.6662 15.8282 12.1254Z"/>
    </symbol>

    <symbol id="download-icon" viewBox="0 0 15 19" xmlns="http://www.w3.org/2000/svg">
        <path d="M13.2468 7.6145C13.1743 7.44529 12.9809 7.32443 12.7875 7.32443H10.5394V0.507634C10.5394 0.24173 10.2977 0 10.0318 0H4.23024C3.94017 0 3.72261 0.217557 3.72261 0.507634V7.32443H1.47452C1.28113 7.32443 1.11192 7.44529 1.01523 7.6145C0.918538 7.78371 0.942711 8.00127 1.06358 8.14631L6.72007 15.3257C6.81676 15.4466 6.96179 15.5191 7.13101 15.5191C7.27604 15.5191 7.44526 15.4466 7.54195 15.3257L13.1984 8.14631C13.3193 8.00127 13.3435 7.78371 13.2468 7.6145ZM7.13101 14.1896L2.51396 8.33969H4.23024C4.52032 8.33969 4.73788 8.12214 4.73788 7.83206V1.01527H9.49996V7.83206C9.49996 8.12214 9.71752 8.33969 10.0076 8.33969H11.7481L7.13101 14.1896Z"/>
        <path d="M13.7303 17.9847H0.507634C0.24173 17.9847 0 18.2023 0 18.4924C0 18.7825 0.217557 19 0.507634 19H13.7303C14.0204 19 14.2379 18.7825 14.2379 18.4924C14.2379 18.2023 14.0204 17.9847 13.7303 17.9847Z"/>
    </symbol>

    <symbol id="arrow-btn-icon" viewBox="0 0 36 12" xmlns="http://www.w3.org/2000/svg">
        <path d="M35.5303 6.53033C35.8232 6.23744 35.8232 5.76256 35.5303 5.46967L30.7574 0.696699C30.4645 0.403806 29.9896 0.403806 29.6967 0.696699C29.4038 0.989593 29.4038 1.46447 29.6967 1.75736L33.9393 6L29.6967 10.2426C29.4038 10.5355 29.4038 11.0104 29.6967 11.3033C29.9896 11.5962 30.4645 11.5962 30.7574 11.3033L35.5303 6.53033ZM0 6.75H35V5.25H0V6.75Z"/>
    </symbol>

    <symbol id="arrow-prev-icon" viewBox="0 0 31 16" xmlns="http://www.w3.org/2000/svg">
        <path d="M0.292891 7.29289C-0.0976334 7.68342 -0.0976334 8.31658 0.292891 8.70711L6.65685 15.0711C7.04738 15.4616 7.68054 15.4616 8.07107 15.0711C8.46159 14.6805 8.46159 14.0474 8.07107 13.6569L2.41421 8L8.07107 2.34315C8.46159 1.95262 8.46159 1.31946 8.07107 0.928932C7.68054 0.538408 7.04738 0.538408 6.65685 0.928932L0.292891 7.29289ZM31 7L0.999998 7V9L31 9V7Z"/>
    </symbol>

    <symbol id="arrow-next-icon" viewBox="0 0 31 16" xmlns="http://www.w3.org/2000/svg">
        <path d="M30.7071 8.70711C31.0976 8.31658 31.0976 7.68342 30.7071 7.29289L24.3431 0.928932C23.9526 0.538408 23.3195 0.538408 22.9289 0.928932C22.5384 1.31946 22.5384 1.95262 22.9289 2.34315L28.5858 8L22.9289 13.6569C22.5384 14.0474 22.5384 14.6805 22.9289 15.0711C23.3195 15.4616 23.9526 15.4616 24.3431 15.0711L30.7071 8.70711ZM0 9H30V7H0V9Z"/>
    </symbol>

    <symbol id="location-icon" viewBox="0 0 8 10" xmlns="http://www.w3.org/2000/svg">
        <path d="M6.96043 1.71245C6.35353 0.665107 5.27557 0.0252441 4.07683 0.000791016C4.02566 -0.000263672 3.97416 -0.000263672 3.92297 0.000791016C2.72426 0.0252441 1.64629 0.665107 1.03937 1.71245C0.419022 2.783 0.402049 4.06893 0.993963 5.15235L3.47371 9.69116C3.47482 9.69317 3.47594 9.69518 3.47709 9.69718C3.58619 9.88681 3.78164 10 3.99994 10C4.21822 10 4.41367 9.88679 4.52275 9.69718C4.5239 9.69518 4.52502 9.69317 4.52613 9.69116L7.00588 5.15235C7.59775 4.06893 7.58078 2.783 6.96043 1.71245ZM3.9999 4.53126C3.22449 4.53126 2.59365 3.90042 2.59365 3.12501C2.59365 2.3496 3.22449 1.71876 3.9999 1.71876C4.77531 1.71876 5.40615 2.3496 5.40615 3.12501C5.40615 3.90042 4.77533 4.53126 3.9999 4.53126Z"/>
    </symbol>

    
</svg>